<svg width="375" height="736" viewBox="0 0 375 736" fill="none" xmlns="http://www.w3.org/2000/svg">
<g clip-path="url(#clip0_37_2880)">
<rect width="375" height="736" fill="url(#paint0_linear_37_2880)"/>
<path d="M-1 124V0H254.5C48.5 0 -0.999557 49.5 -1 124Z" fill="url(#paint1_linear_37_2880)" fill-opacity="0.6"/>
<path d="M245 -18C46.7393 -18 -14 19.1507 -14 95V-18H245Z" fill="url(#paint2_linear_37_2880)" fill-opacity="0.6"/>
<path d="M116 736C314.261 736 375 707.068 375 648L375 736L116 736Z" fill="url(#paint3_linear_37_2880)" fill-opacity="0.6"/>
<path d="M116 749C314.261 749 375 720.068 375 661L375 749L116 749Z" fill="url(#paint4_linear_37_2880)" fill-opacity="0.4"/>
</g>
<defs>
<linearGradient id="paint0_linear_37_2880" x1="187.5" y1="0" x2="187.5" y2="736" gradientUnits="userSpaceOnUse">
<stop stop-color="#FFC2A2"/>
<stop offset="0.0001" stop-color="#FFEBDF"/>
<stop offset="0.432292" stop-color="#FFF1E8"/>
<stop offset="1" stop-color="#FFE0CD"/>
</linearGradient>
<linearGradient id="paint1_linear_37_2880" x1="8.04077" y1="10.4056" x2="79.3231" y2="64.6448" gradientUnits="userSpaceOnUse">
<stop stop-color="#FFB88E"/>
<stop offset="1" stop-color="#FFD2B5"/>
</linearGradient>
<linearGradient id="paint2_linear_37_2880" x1="-4.83539" y1="-8.51748" x2="61.6374" y2="47.7461" gradientUnits="userSpaceOnUse">
<stop stop-color="#FFB88E"/>
<stop offset="1" stop-color="#FFD2B5"/>
</linearGradient>
<linearGradient id="paint3_linear_37_2880" x1="365.835" y1="728.615" x2="313.529" y2="671.765" gradientUnits="userSpaceOnUse">
<stop stop-color="#FFB88E"/>
<stop offset="1" stop-color="#FFD2B5"/>
</linearGradient>
<linearGradient id="paint4_linear_37_2880" x1="365.835" y1="741.615" x2="313.529" y2="684.765" gradientUnits="userSpaceOnUse">
<stop stop-color="#FFB88E"/>
<stop offset="1" stop-color="#FFD2B5"/>
</linearGradient>
<clipPath id="clip0_37_2880">
<rect width="375" height="736" fill="white"/>
</clipPath>
</defs>
</svg>
