<svg width="200" height="200" viewBox="0 0 200 200" fill="none" xmlns="http://www.w3.org/2000/svg">
<path d="M76.9854 160.76C74.322 162.312 72.1347 164.858 70.3826 167.374C69.0421 169.303 66.5727 176.164 71.6291 174.336C70.5649 180.58 78.3847 177.905 80.5661 175.188C89.1503 185.272 95.3591 168.891 93.7011 163.482" fill="#FFB935"/>
<path d="M134.669 146.096C137.72 146.537 140.701 148.083 143.265 149.765C145.229 151.052 150.085 156.491 144.711 156.685C148.033 162.077 139.784 162.518 136.739 160.818C132.546 173.377 120.664 160.507 120.176 154.874" fill="#FFB935"/>
<path d="M142.404 111.93C139.841 83.9311 128.864 79.5214 105.304 74.6884C106.639 73.5419 98.3663 78.5689 98.0311 76.8286C95.7498 75.7879 100.824 71.5957 99.0071 73.3243C99.5422 93.0562 99.3011 80.1682 99.5833 79.3039C99.8656 78.4396 98.7132 77.4342 98.0311 76.8286C97.0786 75.9819 96.0379 79.0746 94.8914 79.6214C91.4519 81.2735 92.9688 80.1917 90.9286 83.4137C65.5288 86.0654 50.8122 80.8855 46.8082 109.684C42.3808 141.522 50.7357 170.379 93.1863 171.378C135.637 172.372 145.332 143.932 142.404 111.93Z" fill="white"/>
<path d="M94.706 106.262C122.087 106.903 131.377 122.536 138.003 148.454C144.847 131.897 143.36 122.448 142.395 111.93C141.978 107.355 141.319 102.793 140.337 98.3067C139.42 94.1086 138.215 89.9694 136.627 85.9713C135.163 82.2907 133.364 78.7335 131.159 75.4351C129.078 72.3248 126.626 69.4614 123.81 66.992C121.005 64.5343 117.842 62.4882 114.45 60.9301C112.68 60.1188 110.845 59.4367 108.982 58.884C108.5 58.7429 108.012 58.5959 107.523 58.4784C107.065 58.3725 106.536 58.3549 106.107 58.1609C105.007 57.6611 106.471 56.2206 106.871 55.6503C107.447 54.8271 107.87 53.6689 107.277 52.8634C106.824 52.2578 105.983 52.1166 105.225 52.1166C103.331 52.1049 101.438 52.634 99.8271 53.6277C100.574 52.8516 101.103 51.8638 101.338 50.8114C101.444 50.341 101.462 49.7707 101.091 49.4591C100.903 49.3003 100.644 49.2415 100.403 49.2004C98.4043 48.8711 96.4934 50.0411 94.9177 51.123C92.9421 52.4753 91.2606 54.1275 89.8024 56.0148C89.4673 56.4499 89.0557 57.1084 88.503 57.2848C88.356 57.3318 88.1973 57.2966 88.0444 57.3024C87.4506 57.3318 86.8509 57.4435 86.2688 57.5376C82.6587 58.1197 79.1192 59.1251 75.7796 60.6185C56.8473 69.0734 52.1025 91.1747 46.7991 109.69C43.3478 121.743 46.1641 136.683 48.7218 144.126C54.7425 119.473 73.7512 105.774 94.7001 106.262H94.706Z" fill="#757575"/>
<path d="M77.7867 97.019C77.7455 98.73 76.5402 100.088 75.0938 100.059C73.6474 100.024 72.5068 98.6124 72.548 96.9014C72.5891 95.1905 73.7944 93.8323 75.2408 93.8617C76.6872 93.897 77.8278 95.3081 77.7867 97.019Z" fill="white" stroke="black" stroke-miterlimit="10"/>
<path d="M104.896 97.7422C104.855 99.4532 103.65 100.811 102.203 100.782C100.757 100.747 99.6162 99.3356 99.6573 97.6246C99.6985 95.9137 100.904 94.5555 102.35 94.5849C103.797 94.6202 104.937 96.0313 104.896 97.7422Z" fill="white" stroke="black" stroke-miterlimit="10"/>
<path d="M70.27 100.888C70.2171 103.187 68.3062 105.009 66.0073 104.956C63.7084 104.904 61.8857 102.993 61.9386 100.694C61.9915 98.3949 63.9024 96.5722 66.2013 96.6251C68.5002 96.678 70.3229 98.5889 70.27 100.888Z" fill="#F5A6A6"/>
<path d="M115.387 101.946C115.334 104.245 113.423 106.068 111.124 106.015C108.826 105.962 107.003 104.051 107.056 101.752C107.109 99.4532 109.02 97.6305 111.319 97.6834C113.617 97.7364 115.44 99.6472 115.387 101.946Z" fill="#F5A6A6"/>
<path d="M87.8559 124.312L87.7148 148.789L95.9757 153.146L102.279 146.025L93.0182 123.33L87.8559 124.312Z" fill="#EA4D1E"/>
<mask id="mask0_21_1805" style="mask-type:luminance" maskUnits="userSpaceOnUse" x="87" y="123" width="16" height="31">
<path d="M87.8559 124.312L87.7148 148.789L95.9757 153.146L102.279 146.025L93.0182 123.33L87.8559 124.312Z" fill="white"/>
</mask>
<g mask="url(#mask0_21_1805)">
<mask id="mask1_21_1805" style="mask-type:luminance" maskUnits="userSpaceOnUse" x="80" y="121" width="16" height="36">
<path d="M85.9636 121.572L90.9318 129.674L89.3796 135.083L93.4659 138.923L91.0612 143.95L95.9236 147.301L95.0828 156.115L80.3721 150.694L80.0781 125.094L85.9636 121.572Z" fill="white"/>
</mask>
<g mask="url(#mask1_21_1805)">
<path d="M78.8905 127.863L95.9472 124.624" stroke="#7E2318" stroke-width="1.22" stroke-miterlimit="10"/>
<path d="M79.1014 128.963L96.1581 125.723" stroke="#7E2318" stroke-width="1.22" stroke-miterlimit="10"/>
<path d="M79.3085 130.062L96.3651 126.829" stroke="#7E2318" stroke-width="1.22" stroke-miterlimit="10"/>
<path d="M79.5197 131.162L96.5763 127.928" stroke="#7E2318" stroke-width="1.22" stroke-miterlimit="10"/>
<path d="M79.7264 132.261L96.7831 129.028" stroke="#7E2318" stroke-width="1.22" stroke-miterlimit="10"/>
<path d="M79.9374 133.361L96.9941 130.127" stroke="#7E2318" stroke-width="1.22" stroke-miterlimit="10"/>
<path d="M80.1444 134.46L97.2011 131.227" stroke="#7E2318" stroke-width="1.22" stroke-miterlimit="10"/>
<path d="M80.3553 135.566L97.412 132.326" stroke="#7E2318" stroke-width="1.22" stroke-miterlimit="10"/>
<path d="M80.5585 136.665L97.6151 133.431" stroke="#7E2318" stroke-width="1.22" stroke-miterlimit="10"/>
<path d="M80.7733 137.765L97.83 134.531" stroke="#7E2318" stroke-width="1.22" stroke-miterlimit="10"/>
<path d="M80.9764 138.864L98.0331 135.63" stroke="#7E2318" stroke-width="1.22" stroke-miterlimit="10"/>
<path d="M81.1913 139.964L98.248 136.73" stroke="#7E2318" stroke-width="1.22" stroke-miterlimit="10"/>
<path d="M81.3944 141.063L98.4511 137.829" stroke="#7E2318" stroke-width="1.22" stroke-miterlimit="10"/>
<path d="M81.6053 142.168L98.662 138.929" stroke="#7E2318" stroke-width="1.22" stroke-miterlimit="10"/>
<path d="M81.8124 143.268L98.8691 140.034" stroke="#7E2318" stroke-width="1.22" stroke-miterlimit="10"/>
<path d="M82.0233 144.367L99.08 141.134" stroke="#7E2318" stroke-width="1.22" stroke-miterlimit="10"/>
<path d="M82.2301 145.467L99.2868 142.233" stroke="#7E2318" stroke-width="1.22" stroke-miterlimit="10"/>
<path d="M82.4413 146.566L99.498 143.333" stroke="#7E2318" stroke-width="1.22" stroke-miterlimit="10"/>
<path d="M82.6483 147.666L99.705 144.432" stroke="#7E2318" stroke-width="1.22" stroke-miterlimit="10"/>
<path d="M82.8593 148.771L99.9159 145.532" stroke="#7E2318" stroke-width="1.22" stroke-miterlimit="10"/>
<path d="M83.0663 149.871L100.123 146.637" stroke="#7E2318" stroke-width="1.22" stroke-miterlimit="10"/>
<path d="M83.2772 150.97L100.334 147.736" stroke="#7E2318" stroke-width="1.22" stroke-miterlimit="10"/>
<path d="M83.4843 152.07L100.541 148.836" stroke="#7E2318" stroke-width="1.22" stroke-miterlimit="10"/>
<path d="M83.6952 153.169L100.752 149.935" stroke="#7E2318" stroke-width="1.22" stroke-miterlimit="10"/>
<path d="M83.8983 154.269L100.955 151.035" stroke="#7E2318" stroke-width="1.22" stroke-miterlimit="10"/>
<path d="M84.1132 155.374L101.17 152.134" stroke="#7E2318" stroke-width="1.22" stroke-miterlimit="10"/>
<path d="M84.3163 156.473L101.373 153.24" stroke="#7E2318" stroke-width="1.22" stroke-miterlimit="10"/>
</g>
</g>
<path d="M94.1116 125.147L87.5264 126.399L85.5156 121.378L94.141 119.744L94.1116 125.147Z" fill="#D5321C"/>
<path d="M93.1483 122.531L91.408 121.02L88.5329 121.566L87.4628 123.612C87.4334 123.665 87.4275 123.724 87.4393 123.777C87.451 123.836 87.4804 123.889 87.5216 123.924L89.2678 125.435L92.1429 124.888L93.213 122.842C93.2365 122.789 93.2483 122.73 93.2365 122.678C93.2248 122.619 93.1954 122.566 93.1542 122.531H93.1483ZM90.1909 125.147L88.4035 123.589L89.4971 121.49L90.1909 125.141V125.147ZM91.1669 124.959L90.4731 121.308L92.2605 122.86L91.1669 124.965V124.959Z" fill="white"/>
<path d="M56.3783 102.816C40.768 96.7604 24.7403 102.005 24.364 108.208C23.8936 116.004 36.864 113.558 46.9886 117.833" fill="#757575"/>
<path d="M139.118 100.094C157.738 104.169 167.128 122.601 163.5 127.658C159.302 133.514 150.077 120.961 135.543 119.003" fill="#757575"/>
<path d="M81.8496 104.621C81.8496 104.621 83.4783 116.051 91.0335 114.505C96.7426 113.341 97.0542 104.127 97.0542 104.127L81.8438 104.615L81.8496 104.621Z" fill="#FFB935"/>
<path d="M83.4882 104.798C83.4882 104.798 84.7699 113.435 89.6911 112.976C94.6182 112.518 95.2885 104.063 95.2885 104.063L83.4882 104.792V104.798Z" fill="#333333"/>
<path d="M83.0648 106.532L93.5305 106.779C96.0411 106.838 99.3572 105.68 98.8045 103.792C98.5987 103.087 97.7462 102.528 96.9407 102.017C95.2826 100.97 93.3953 99.6296 91.1022 99.1945C88.7739 98.7476 86.1928 99.0651 84.2878 99.9765C82.9237 100.629 81.8066 101.464 80.5425 102.193C79.2902 102.91 78.173 103.734 78.8962 104.874C79.5606 105.927 81.3657 106.491 83.059 106.526L83.0648 106.532Z" fill="#FFB935"/>
<path d="M119.225 60.0188H117.855V81.5498H119.225V60.0188Z" fill="#333333"/>
<path d="M123.065 62.1531H121.695V83.6842H123.065V62.1531Z" fill="#333333"/>
<path d="M126.909 60.0188H125.539V81.5498H126.909V60.0188Z" fill="#333333"/>
<path d="M59.4656 61.5005C60.6651 48.6594 51.2283 37.2824 38.3873 36.083C25.5463 34.8836 14.1693 44.3203 12.9699 57.1613C11.8822 68.8088 19.5491 79.2568 30.5675 81.9908L27.6571 113.164C27.4748 115.093 28.9094 116.821 30.8379 116.998C32.7664 117.174 34.495 115.746 34.6714 113.817L37.5818 82.6434C48.9177 81.9967 58.3838 73.1479 59.4656 61.5005Z" fill="#020202"/>
<path d="M36.2292 79.345C47.3151 79.345 56.3021 70.3581 56.3021 59.2721C56.3021 48.1861 47.3151 39.1992 36.2292 39.1992C25.1432 39.1992 16.1562 48.1861 16.1562 59.2721C16.1562 70.3581 25.1432 79.345 36.2292 79.345Z" fill="white"/>
<path d="M42.3162 74.8059L24.2542 46.6604L30.1455 43.7323L48.2076 71.8838L42.3162 74.8059Z" fill="#020202"/>
<path d="M26.8457 72.6305L50.6639 50.3763L45.6133 45.9137L21.801 68.1679L26.8457 72.6305Z" fill="#020202"/>
<path d="M185.347 28.9276C183.783 28.9276 182.325 29.3744 181.096 30.1505C181.39 29.4214 181.554 28.6277 181.554 27.7928C181.554 24.3238 178.744 21.5193 175.281 21.5193C173.793 21.5193 172.429 22.0367 171.353 22.901C170.677 18.0386 166.503 14.2933 161.458 14.2933C155.937 14.2933 151.463 18.7676 151.463 24.2886C151.463 24.5649 151.474 24.8413 151.498 25.1117C150.975 25 150.428 24.9471 149.869 24.9471C145.807 24.9471 142.461 28.0103 142.02 31.9556C141.244 31.6439 140.397 31.4734 139.51 31.4734C135.782 31.4734 132.766 34.4897 132.766 38.2173C132.766 41.945 135.782 44.9612 139.51 44.9612H185.347C189.774 44.9612 193.361 41.3746 193.361 36.9473C193.361 32.52 189.774 28.9334 185.347 28.9334V28.9276Z" fill="white"/>
<path d="M149.516 49.853C149.516 49.853 146.012 51.6639 145.183 53.9335C144.354 56.203 145.9 57.3789 146.676 57.6611C147.452 57.9433 149.387 58.0374 150.216 55.762C151.045 53.4925 149.516 49.853 149.516 49.853Z" fill="#9FDEFA"/>
<path d="M165.032 49.853C165.032 49.853 161.528 51.6639 160.698 53.9335C159.869 56.203 161.416 57.3789 162.192 57.6611C162.968 57.9433 164.902 58.0374 165.731 55.762C166.56 53.4925 165.032 49.853 165.032 49.853Z" fill="#9FDEFA"/>
<path d="M180.555 49.853C180.555 49.853 177.051 51.6639 176.222 53.9335C175.393 56.203 176.939 57.3789 177.715 57.6611C178.491 57.9433 180.426 58.0374 181.255 55.762C182.084 53.4925 180.555 49.853 180.555 49.853Z" fill="#9FDEFA"/>
<path d="M157.27 63.9817C157.27 63.9817 153.766 65.7926 152.937 68.0621C152.108 70.3316 153.654 71.5075 154.43 71.7897C155.206 72.072 157.141 72.166 157.97 69.8906C158.799 67.6211 157.27 63.9817 157.27 63.9817Z" fill="#9FDEFA"/>
<path d="M172.793 63.9817C172.793 63.9817 169.289 65.7926 168.46 68.0621C167.631 70.3316 169.178 71.5075 169.954 71.7897C170.73 72.072 172.664 72.166 173.493 69.8906C174.322 67.6211 172.793 63.9817 172.793 63.9817Z" fill="#9FDEFA"/>
</svg>
