<svg width="365" height="120" viewBox="0 0 365 120" fill="none" xmlns="http://www.w3.org/2000/svg">
<g filter="url(#filter0_d_27_3886)">
<g clip-path="url(#clip0_27_3886)">
<rect x="10" y="10" width="345" height="100" rx="12" fill="white"/>
<path d="M177 10C49.164 10 10 34 10 83V10H177Z" fill="url(#paint0_linear_27_3886)" fill-opacity="0.6"/>
<path d="M168 1C40.164 1 1 25 1 74V1H168Z" fill="url(#paint1_linear_27_3886)" fill-opacity="0.6"/>
<circle cx="331" cy="60" r="10" fill="white"/>
<path d="M328 65.4331L332.945 60.4771L328 55.5221L329.522 54.0001L336 60.4771L329.522 66.9551L328 65.4331Z" fill="#0282B9"/>
<path d="M103.164 48.778H110.864V49.632H103.164V48.778ZM103.164 51.074H110.864V51.914H103.164V51.074ZM103.164 53.384H110.906V54.322H103.164V53.384ZM100.742 44.186H113.272V45.166H100.742V44.186ZM102.338 46.468H111.648V55.12H110.57V47.392H103.388V55.12H102.338V46.468ZM106.482 44.69L107.77 44.774C107.504 45.6 107.168 46.482 106.916 47.084L105.894 46.93C106.132 46.3 106.37 45.348 106.482 44.69ZM109.814 42.226L110.976 42.534C110.472 43.29 109.856 44.074 109.352 44.606L108.442 44.312C108.918 43.738 109.492 42.856 109.814 42.226ZM103.178 42.604L104.102 42.198C104.62 42.688 105.166 43.388 105.446 43.864L104.466 44.368C104.228 43.878 103.668 43.136 103.178 42.604ZM120.37 42.254L121.518 42.464C121.014 44.858 120.174 47.154 119.138 48.638C118.9 48.47 118.382 48.162 118.102 48.036C119.166 46.678 119.936 44.48 120.37 42.254ZM120.216 44.648H126.222V45.684H119.754L120.216 44.648ZM125.9 44.648H126.054L126.264 44.592L127.034 45.012C126.684 46.384 126.054 47.854 125.564 48.82C125.34 48.708 124.92 48.498 124.682 48.386C125.116 47.518 125.69 46.02 125.9 44.9V44.648ZM122.792 47.644C123.408 50.78 124.808 53.174 127.482 54.112C127.258 54.322 126.936 54.742 126.782 55.036C123.982 53.888 122.582 51.326 121.896 47.798L122.792 47.644ZM121.77 46.258H122.876V47.364C122.876 49.688 122.484 52.95 118.186 55.176C118.018 54.91 117.654 54.532 117.402 54.336C121.462 52.292 121.77 49.366 121.77 47.35V46.258ZM114.994 44.452H118.69V45.474H114.994V44.452ZM114.686 50.234H119.124V51.27H114.686V50.234ZM132.984 45.418H135.994V46.342H132.984V45.418ZM135.7 45.418H136.582C136.582 45.418 136.582 45.768 136.582 45.908C136.484 51.956 136.428 53.874 136.106 54.392C135.896 54.728 135.672 54.84 135.35 54.882C135.056 54.924 134.65 54.91 134.216 54.896C134.202 54.63 134.104 54.238 133.978 54C134.412 54.028 134.762 54.028 134.958 54.028C135.112 54.042 135.21 54 135.308 53.818C135.546 53.426 135.644 51.494 135.7 45.642V45.418ZM133.894 42.24H134.762C134.734 47.924 134.594 52.208 132.634 55.148C132.494 54.994 132.116 54.658 131.92 54.518C133.81 51.914 133.908 47.574 133.894 42.24ZM128.686 44.116H132.732V44.984H128.686V44.116ZM128.574 47.826H132.802V48.708H128.574V47.826ZM129.05 45.446L129.778 45.264C130.044 45.978 130.226 46.902 130.24 47.504L129.456 47.714C129.456 47.112 129.288 46.174 129.05 45.446ZM131.5 45.18L132.34 45.376C132.074 46.314 131.78 47.448 131.5 48.19L130.828 47.994C131.066 47.252 131.374 46.006 131.5 45.18ZM130.226 48.148H131.178V50.57C131.178 52.012 130.912 53.916 129.372 55.162C129.246 54.966 128.966 54.644 128.742 54.49C130.1 53.482 130.226 51.76 130.226 50.57V48.148ZM128.756 50.402H132.578V51.284H128.756V50.402ZM129.68 42.66L130.548 42.408C130.912 43.024 131.29 43.85 131.43 44.368L130.52 44.676C130.38 44.158 130.016 43.29 129.68 42.66ZM138.78 48.232H139.746V55.092H138.78V48.232ZM137.1 44.088H141.258V44.97H137.1V44.088ZM137.044 47.854H141.412V48.722H137.044V47.854ZM137.282 50.598H141.286V51.48H137.282V50.598ZM137.492 45.404L138.234 45.222C138.5 45.95 138.71 46.916 138.738 47.532L137.968 47.742C137.94 47.112 137.758 46.146 137.492 45.404ZM140.11 45.138L140.95 45.334C140.698 46.286 140.404 47.448 140.138 48.176L139.424 47.98C139.676 47.238 139.984 45.978 140.11 45.138ZM138.15 42.562L139.018 42.296C139.368 42.94 139.774 43.822 139.914 44.368L139.018 44.69C138.878 44.13 138.5 43.234 138.15 42.562ZM144.786 50.64H153.172V51.354H144.786V50.64ZM144.814 48.918H153.774V53.09H144.814V52.32H152.738V49.674H144.814V48.918ZM148.398 49.296H149.406V53.51C149.406 54 149.574 54.084 150.47 54.084C150.89 54.084 153.046 54.084 153.592 54.084C154.348 54.084 154.474 53.846 154.544 52.432C154.782 52.6 155.174 52.74 155.468 52.796C155.314 54.49 154.992 54.938 153.662 54.938C153.298 54.938 150.764 54.938 150.414 54.938C148.846 54.938 148.398 54.658 148.398 53.51V49.296ZM144.268 48.918H145.276V53.818H144.268V48.918ZM143.666 42.8H154.292V43.556H143.666V42.8ZM148.426 42.996H149.462V48.386H148.426V42.996ZM143.05 44.452H154.95V47.462H153.9V45.194H144.058V47.462H143.05V44.452ZM144.31 47.63C145.206 47.532 146.41 47.35 147.656 47.154L147.684 47.826C146.606 48.05 145.542 48.26 144.632 48.442L144.31 47.63ZM144.674 46.034L144.982 45.474C145.878 45.628 147.068 45.936 147.698 46.216L147.39 46.846C146.76 46.58 145.584 46.216 144.674 46.034ZM152.892 45.404L153.354 46.006C152.556 46.342 151.408 46.636 150.596 46.804L150.218 46.258C151.03 46.076 152.206 45.656 152.892 45.404ZM150.05 47.728L150.302 47.084C151.38 47.196 152.794 47.504 153.578 47.77L153.34 48.484C152.57 48.218 151.142 47.882 150.05 47.728ZM156.7 48.47H169.342V49.52H156.7V48.47ZM158.1 43.192H167.242V44.228H158.1V43.192ZM166.906 43.192H167.172L167.424 43.136L168.208 43.738C166.906 45.012 164.876 46.384 163.196 47.196C163.042 46.958 162.706 46.622 162.496 46.44C164.064 45.726 165.996 44.41 166.906 43.43V43.192ZM162.496 46.44H163.588V53.748C163.588 54.448 163.42 54.77 162.874 54.924C162.342 55.106 161.446 55.12 160.088 55.12C160.018 54.812 159.822 54.35 159.64 54.042C160.774 54.084 161.81 54.07 162.118 54.056C162.412 54.042 162.496 53.972 162.496 53.734V46.44ZM173.346 56.758C172.044 54.658 171.274 52.418 171.274 49.66C171.274 46.916 172.044 44.648 173.346 42.548L174.13 42.926C172.926 44.914 172.338 47.28 172.338 49.66C172.338 52.04 172.926 54.406 174.13 56.394L173.346 56.758ZM182.36 46.02H188.072V47H182.36V46.02ZM175.36 45.264H182.43V46.174H175.36V45.264ZM175.822 48.288H181.996V49.17H175.822V48.288ZM176.2 50.598H181.716V51.48H176.2V50.598ZM185.706 42.296H186.714V53.818C186.714 54.462 186.546 54.756 186.14 54.924C185.734 55.106 185.062 55.134 183.928 55.12C183.872 54.868 183.704 54.406 183.55 54.126C184.39 54.154 185.146 54.154 185.37 54.14C185.608 54.126 185.706 54.056 185.706 53.818V42.296ZM182.752 48.414L183.634 48.106C184.236 49.128 184.782 50.444 184.936 51.298L183.984 51.634C183.844 50.794 183.312 49.45 182.752 48.414ZM175.556 43.122L176.228 42.688C176.746 43.248 177.32 44.018 177.558 44.536L176.844 45.012C176.62 44.494 176.074 43.682 175.556 43.122ZM176.578 46.608L177.334 46.202C177.768 46.678 178.258 47.336 178.44 47.812L177.642 48.246C177.474 47.784 177.012 47.098 176.578 46.608ZM177.516 42.254H178.37V45.614H177.516V42.254ZM178.412 48.568H179.406V53.622H178.412V48.568ZM179.448 42.254H180.316V45.614H179.448V42.254ZM175.36 53.524C177.11 53.314 179.812 52.978 182.374 52.628L182.402 53.552C179.938 53.916 177.306 54.266 175.514 54.518L175.36 53.524ZM181.59 42.702L182.444 43.178C181.94 43.836 181.352 44.55 180.876 45.026L180.232 44.634C180.666 44.13 181.268 43.276 181.59 42.702ZM180.414 46.258L181.352 46.594C180.96 47.336 180.512 48.19 180.148 48.736L179.364 48.428C179.714 47.854 180.176 46.902 180.414 46.258ZM190.116 56.758L189.318 56.394C190.522 54.406 191.11 52.04 191.11 49.66C191.11 47.28 190.522 44.914 189.318 42.926L190.116 42.548C191.404 44.648 192.174 46.916 192.174 49.66C192.174 52.418 191.404 54.658 190.116 56.758ZM200.601 42.898H206.341V43.766H200.601V42.898ZM200.545 44.858H205.767V45.656H200.545V44.858ZM199.201 48.708H206.705V49.618H199.201V48.708ZM200.181 42.898H201.203V49.296H200.181V42.898ZM205.557 49.94L206.355 50.598C205.613 51.228 204.717 51.928 204.031 52.362L203.457 51.83C204.115 51.354 205.039 50.528 205.557 49.94ZM202.561 49.24C203.359 51.298 205.011 53.23 206.915 54.07C206.677 54.266 206.369 54.644 206.201 54.924C204.241 53.916 202.617 51.802 201.721 49.464L202.561 49.24ZM200.601 46.748H205.851V47.546H200.601V46.748ZM199.887 55.218L199.803 54.35L200.237 53.958L203.135 53.006C203.149 53.272 203.177 53.664 203.219 53.874C200.531 54.84 200.125 55.022 199.887 55.218ZM196.149 42.268H197.031V55.134H196.149V42.268ZM194.385 44.914H198.543V45.852H195.197V52.25H194.385V44.914ZM198.067 44.914H198.879V51.088C198.879 51.466 198.823 51.76 198.585 51.928C198.333 52.096 198.011 52.124 197.521 52.124C197.507 51.858 197.381 51.452 197.241 51.2C197.577 51.214 197.843 51.214 197.955 51.214C198.039 51.2 198.067 51.172 198.067 51.06V44.914ZM199.887 55.218C199.803 54.952 199.551 54.476 199.369 54.252C199.565 54.112 199.845 53.804 199.845 53.244V49.282H200.839V54.196C200.839 54.196 199.887 54.854 199.887 55.218ZM213.873 46.72H214.951V55.12H213.873V46.72ZM210.695 49.086V50.304H218.311V49.086H210.695ZM210.695 47.084V48.274H218.311V47.084H210.695ZM209.673 46.23H219.375V51.144H209.673V46.23ZM208.259 52.222H220.677V53.146H208.259V52.222ZM210.247 43.5V44.83H212.935V43.5H210.247ZM209.295 42.8H213.915V45.53H209.295V42.8ZM216.001 43.5V44.83H218.717V43.5H216.001ZM215.049 42.8H219.711V45.53H215.049V42.8Z" fill="#464646"/>
<path d="M100.918 79.67H117.082V81.146H100.918V79.67ZM102.646 76.466H113.752V77.816H102.646V76.466ZM108.064 78.734H109.864V82.874C109.864 83.756 109.594 84.134 108.856 84.35C108.136 84.548 107.038 84.548 105.436 84.548C105.328 84.116 105.076 83.54 104.842 83.144C105.994 83.18 107.308 83.18 107.614 83.162C107.956 83.144 108.064 83.072 108.064 82.82V78.734ZM113.374 76.448H113.842L114.22 76.376L115.336 77.348C113.554 78.32 111.178 79.166 108.892 79.688C108.694 79.4 108.298 78.95 108.064 78.716C110.008 78.284 112.258 77.474 113.374 76.772V76.448ZM105.022 72.956V74.306H112.978V72.956H105.022ZM103.33 71.75H114.778V75.53H103.33V71.75ZM101.134 69.284H116.83V70.742H101.134V69.284ZM107.596 67.988L109.324 67.682C109.702 68.366 110.08 69.284 110.206 69.896L108.388 70.256C108.262 69.662 107.938 68.708 107.596 67.988ZM122.95 83.252C121.564 83.252 119.962 82.604 118.954 81.668L119.908 80.246C120.826 81.002 121.798 81.542 122.95 81.542C124.336 81.542 125.02 80.84 125.02 79.688C125.02 76.772 119.476 77.276 119.476 73.424C119.476 71.282 120.988 69.878 123.256 69.878C124.912 69.878 125.938 70.544 126.802 71.462L125.722 72.686C124.984 71.966 124.372 71.588 123.346 71.588C122.176 71.588 121.474 72.236 121.474 73.316C121.474 75.944 127.036 75.332 127.036 79.526C127.036 81.74 125.506 83.252 122.95 83.252ZM122.446 85.232V82.46H123.904V85.232H122.446ZM122.446 70.58V67.88H123.904V70.58H122.446ZM133.09 83.252C131.002 83.252 129.688 82.406 128.734 81.47L129.742 80.12C130.48 80.876 131.452 81.542 132.838 81.542C134.332 81.542 135.448 80.48 135.448 78.716C135.448 76.97 134.44 75.962 132.928 75.962C132.1 75.962 131.596 76.196 130.822 76.7L129.796 76.052L130.192 69.752H136.924V71.516H132.01L131.704 74.9C132.262 74.612 132.802 74.45 133.522 74.45C135.736 74.45 137.554 75.746 137.554 78.662C137.554 81.578 135.394 83.252 133.09 83.252ZM143.661 83.252C141.051 83.252 139.377 80.93 139.377 76.322C139.377 71.75 141.051 69.518 143.661 69.518C146.253 69.518 147.945 71.75 147.945 76.322C147.945 80.93 146.253 83.252 143.661 83.252ZM143.661 81.596C145.011 81.596 145.947 80.156 145.947 76.322C145.947 72.542 145.011 71.138 143.661 71.138C142.311 71.138 141.357 72.542 141.357 76.322C141.357 80.156 142.311 81.596 143.661 81.596Z" fill="#EB6022"/>
<path d="M160.024 73.32H161.592V77.448H160.024V73.32ZM155.112 76.728H166.456V77.928H155.112V76.728ZM154.28 74.232H167.4V75.528H154.28V74.232ZM153.72 79.224H167.944V80.488H153.72V79.224ZM163.256 78.264H164.808V82.888C164.808 83.672 164.632 84.008 164.008 84.184C163.4 84.36 162.456 84.36 161.096 84.36C161.048 83.976 160.872 83.496 160.696 83.112C161.656 83.16 162.648 83.16 162.904 83.144C163.176 83.128 163.256 83.064 163.256 82.84V78.264ZM156.344 81.208L157.416 80.424C158.28 81.112 159.464 82.12 160.056 82.76L158.936 83.656C158.376 83.016 157.224 81.96 156.344 81.208ZM155.608 70.584H160.696V71.896H155.608V70.584ZM162.296 70.6H168.216V71.896H162.296V70.6ZM155.848 69.368L157.192 69.768C156.552 71.256 155.48 72.776 154.44 73.736C154.232 73.48 153.72 72.952 153.4 72.712C154.408 71.88 155.32 70.632 155.848 69.368ZM162.504 69.368L163.896 69.704C163.416 71.288 162.552 72.824 161.656 73.816C161.4 73.576 160.824 73.128 160.504 72.92C161.4 72.056 162.104 70.728 162.504 69.368ZM156.744 72.376L157.656 71.592C158.232 72.056 158.968 72.712 159.336 73.144L158.36 74.024C158.008 73.56 157.304 72.856 156.744 72.376ZM163.72 72.44L164.696 71.672C165.24 72.136 165.928 72.824 166.248 73.288L165.224 74.168C164.92 73.688 164.248 72.952 163.72 72.44ZM174.136 71.064H183.8V72.376H174.136V71.064ZM173.448 82.68H184.232V83.96H173.448V82.68ZM174.92 73.704H182.888V82.968H181.496V74.84H176.264V82.968H174.92V73.704ZM175.896 75.976H181.768V77.064H175.896V75.976ZM175.864 78.232H182.088V79.288H175.864V78.232ZM175.848 80.456H181.8V81.528H175.848V80.456ZM178.312 69.512L179.928 69.592C179.656 71.192 179.272 73.064 178.92 74.2L177.608 74.088C177.896 72.872 178.2 70.904 178.312 69.512ZM172.856 69.528L174.264 69.976C173.272 72.68 171.72 75.48 170.072 77.288C169.928 76.936 169.512 76.12 169.256 75.752C170.696 74.232 172.04 71.896 172.856 69.528ZM171.224 73.832L172.616 72.408L172.632 72.424V84.344H171.224V73.832ZM191.032 75.208V78.488H194.456V75.208H191.032ZM189.608 73.864H195.976V79.816H189.608V73.864ZM186.072 70.104H199.608V84.344H197.976V71.64H187.64V84.344H186.072V70.104ZM186.952 82.056H198.904V83.48H186.952V82.056ZM207.56 73.912H216.248V75.016H207.56V73.912ZM209.528 71.384V72.312H214.264V71.384H209.528ZM208.264 70.472H215.592V73.24H208.264V70.472ZM211.208 69.48H212.6V74.568H211.208V69.48ZM209.688 78.216V79.016H214.056V78.216H209.688ZM209.688 79.896V80.712H214.056V79.896H209.688ZM209.688 76.552V77.352H214.056V76.552H209.688ZM208.328 75.64H215.464V81.624H208.328V75.64ZM212.504 82.296L213.4 81.528C214.472 82.168 215.672 82.984 216.392 83.576L215.256 84.36C214.616 83.768 213.48 82.92 212.504 82.296ZM210.04 81.72L211.4 82.152C210.728 83.016 209.592 83.864 208.584 84.36C208.36 84.104 207.864 83.592 207.56 83.352C208.488 82.936 209.48 82.36 210.04 81.72ZM203.112 76.552H206.424V77.64H203.112V76.552ZM203.256 74.36H207.064V79.912H203.24V78.792H205.736V75.464H203.256V74.36ZM204.36 71.08L205 70.04C205.848 70.488 207.08 71.176 207.704 71.592L207.048 72.76C206.456 72.312 205.24 71.576 204.36 71.08ZM204.552 69.336L205.752 69.768C204.888 71.4 203.384 73 201.912 73.992C201.816 73.704 201.48 72.968 201.288 72.648C202.536 71.864 203.832 70.648 204.552 69.336ZM204.984 80.584L206.024 80.152C206.584 81.16 207.304 82.536 207.624 83.32L206.52 83.88C206.216 83.048 205.528 81.64 204.984 80.584ZM202.2 84.328C202.136 83.992 201.912 83.368 201.704 83.064C201.976 82.952 202.312 82.712 202.312 82.12V74.36H203.624V83.288C203.624 83.288 202.2 83.88 202.2 84.328ZM202.2 84.328L202.072 83.16L202.616 82.664L206.296 81.336C206.328 81.688 206.44 82.2 206.52 82.472C203.048 83.832 202.52 84.072 202.2 84.328ZM203.544 72.52H206.312V73.544H203.544V72.52Z" fill="#464646"/>
<g clip-path="url(#clip1_27_3886)">
<path d="M36.8824 64.0175C36.342 61.8755 37.6403 59.701 39.7824 59.1606L72.4099 50.9292C74.5519 50.3888 76.7265 51.6872 77.2669 53.8292L81.9786 72.5057C82.519 74.6477 81.2207 76.8223 79.0786 77.3627L46.4511 85.5941C44.3091 86.1345 42.1345 84.8361 41.5941 82.6941L36.8824 64.0175Z" fill="white"/>
<path d="M53.6715 37.9069L75.6579 51.3999C77.1774 52.3324 76.8096 54.6368 75.0753 55.05L39.5479 63.5139C37.8136 63.9271 36.4463 62.0361 37.3821 60.5186L50.9231 38.5617C51.502 37.623 52.7315 37.3301 53.6715 37.9069Z" fill="#EAB22D" stroke="white"/>
<g filter="url(#filter1_d_27_3886)">
<rect x="39.8927" y="43.3447" width="26.5887" height="28.7929" rx="3" transform="rotate(-13.4002 39.8927 43.3447)" fill="#EB6022"/>
<rect x="39.8927" y="43.3447" width="26.5887" height="28.7929" rx="3" transform="rotate(-13.4002 39.8927 43.3447)" stroke="white"/>
</g>
<path fill-rule="evenodd" clip-rule="evenodd" d="M53.7365 43.7794C53.0672 43.9388 52.6635 44.6082 52.8346 45.2746L52.9947 45.8976C50.1937 46.8566 48.6271 48.8142 49.1117 50.7009C49.5914 52.5682 51.5543 53.2014 53.3885 53.3332L54.9363 53.4561L55.8162 56.8817C54.8638 57.0025 53.8437 56.9238 52.893 56.6874C52.2799 56.5349 51.6156 56.7284 51.2726 57.2469C50.8158 57.9375 51.1179 58.8816 51.9394 59.0619C53.3489 59.3714 54.8949 59.3901 56.39 59.1153L56.5768 59.8424C56.748 60.5087 57.4292 60.9196 58.0985 60.7602C58.7677 60.6007 59.1715 59.9313 59.0003 59.265L58.7793 58.4048C61.4011 57.2827 62.5815 55.3876 62.1359 53.6528C61.6606 51.8028 60.0729 51.1352 57.8729 50.9805L56.8516 50.9005L56.0109 47.6277C56.4825 47.6226 56.9409 47.671 57.3964 47.7658C57.9582 47.8827 58.5514 47.6913 58.8552 47.215C59.2589 46.5821 58.9917 45.7291 58.2478 45.5616C57.3583 45.3612 56.3969 45.3027 55.4345 45.3839L55.2581 44.6972C55.087 44.0309 54.4057 43.62 53.7365 43.7794ZM53.5642 48.1148C52.5659 48.5126 51.8794 49.1063 52.0474 49.7604C52.2181 50.425 53.1478 50.6207 54.2318 50.7134L53.5642 48.1148ZM57.5384 53.5742L58.1802 56.0724C59.0406 55.5501 59.5758 54.8726 59.4282 54.2978C59.2719 53.6896 58.4987 53.5962 57.5384 53.5742Z" fill="white"/>
<path d="M62.2617 66.5004L73.5866 51.8667C74.615 50.5378 76.7244 50.9927 77.1138 52.6272L82.2508 74.1898C82.6304 75.783 81.0389 77.132 79.5294 76.4967L63.0675 69.5678C61.8567 69.0582 61.4577 67.5394 62.2617 66.5004Z" fill="#EAB22D" stroke="white"/>
<path d="M56.1847 68.2469L39.4783 60.2913C37.9612 59.5689 36.2834 60.9259 36.6728 62.5605L41.8098 84.1231C42.1894 85.7163 44.2182 86.2028 45.2791 84.9551L56.8485 71.3482C57.6995 70.3473 57.3708 68.8118 56.1847 68.2469Z" fill="#EAB22D" stroke="white"/>
<path d="M59.5284 62.4127L80.4143 73.8229C82.03 74.7056 81.6957 77.1178 79.9009 77.5278L45.1557 85.4654C43.3609 85.8754 42.0123 83.8476 43.0844 82.3509L56.9436 63.0032C57.5322 62.1815 58.6414 61.9281 59.5284 62.4127Z" fill="#EAB22D" stroke="white"/>
</g>
<path d="M215 110C322.168 110 353.706 71.1944 355 53L355 110L215 110Z" fill="url(#paint2_linear_27_3886)" fill-opacity="0.7"/>
<path d="M225 117C332.168 117 363.706 78.1944 365 60L365 117L225 117Z" fill="url(#paint3_linear_27_3886)"/>
</g>
<rect x="10.5" y="10.5" width="344" height="99" rx="11.5" stroke="#FFB88E"/>
</g>
<defs>
<filter id="filter0_d_27_3886" x="0" y="0" width="365" height="120" filterUnits="userSpaceOnUse" color-interpolation-filters="sRGB">
<feFlood flood-opacity="0" result="BackgroundImageFix"/>
<feColorMatrix in="SourceAlpha" type="matrix" values="0 0 0 0 0 0 0 0 0 0 0 0 0 0 0 0 0 0 127 0" result="hardAlpha"/>
<feOffset/>
<feGaussianBlur stdDeviation="5"/>
<feColorMatrix type="matrix" values="0 0 0 0 0.533333 0 0 0 0 0.533333 0 0 0 0 0.533333 0 0 0 0.2 0"/>
<feBlend mode="normal" in2="BackgroundImageFix" result="effect1_dropShadow_27_3886"/>
<feBlend mode="normal" in="SourceGraphic" in2="effect1_dropShadow_27_3886" result="shape"/>
</filter>
<filter id="filter1_d_27_3886" x="33.0055" y="34.2957" width="46.312" height="47.9453" filterUnits="userSpaceOnUse" color-interpolation-filters="sRGB">
<feFlood flood-opacity="0" result="BackgroundImageFix"/>
<feColorMatrix in="SourceAlpha" type="matrix" values="0 0 0 0 0 0 0 0 0 0 0 0 0 0 0 0 0 0 127 0" result="hardAlpha"/>
<feOffset dy="4"/>
<feGaussianBlur stdDeviation="3.5"/>
<feComposite in2="hardAlpha" operator="out"/>
<feColorMatrix type="matrix" values="0 0 0 0 0.662847 0 0 0 0 0.869688 0 0 0 0 0.958333 0 0 0 0.6 0"/>
<feBlend mode="normal" in2="BackgroundImageFix" result="effect1_dropShadow_27_3886"/>
<feBlend mode="normal" in="SourceGraphic" in2="effect1_dropShadow_27_3886" result="shape"/>
</filter>
<linearGradient id="paint0_linear_27_3886" x1="15.9092" y1="16.1259" x2="58.8382" y2="52.3925" gradientUnits="userSpaceOnUse">
<stop stop-color="#FFB88E"/>
<stop offset="1" stop-color="#FFD2B5"/>
</linearGradient>
<linearGradient id="paint1_linear_27_3886" x1="6.90923" y1="7.12587" x2="49.8382" y2="43.3925" gradientUnits="userSpaceOnUse">
<stop stop-color="#FFB88E"/>
<stop offset="1" stop-color="#FFD2B5"/>
</linearGradient>
<linearGradient id="paint2_linear_27_3886" x1="350.046" y1="105.217" x2="316.21" y2="74.5265" gradientUnits="userSpaceOnUse">
<stop stop-color="#FFB88E"/>
<stop offset="1" stop-color="#FFD3B6"/>
</linearGradient>
<linearGradient id="paint3_linear_27_3886" x1="360.046" y1="112.217" x2="326.21" y2="81.5265" gradientUnits="userSpaceOnUse">
<stop stop-color="#FFB88E"/>
<stop offset="1" stop-color="#FFD3B6"/>
</linearGradient>
<clipPath id="clip0_27_3886">
<rect x="10" y="10" width="345" height="100" rx="12" fill="white"/>
</clipPath>
<clipPath id="clip1_27_3886">
<rect width="60" height="60" fill="white" transform="translate(28 30)"/>
</clipPath>
</defs>
</svg>
