<svg width="365" height="120" viewBox="0 0 365 120" fill="none" xmlns="http://www.w3.org/2000/svg">
<g filter="url(#filter0_d_27_3885)">
<g clip-path="url(#clip0_27_3885)">
<rect x="10" y="10" width="345" height="100" rx="12" fill="white"/>
<path d="M177 10C49.164 10 10 34 10 83V10H177Z" fill="url(#paint0_linear_27_3885)" fill-opacity="0.6"/>
<path d="M168 1C40.164 1 1 25 1 74V1H168Z" fill="url(#paint1_linear_27_3885)" fill-opacity="0.6"/>
<circle cx="331" cy="60" r="10" fill="white"/>
<path d="M328 65.4331L332.945 60.4771L328 55.5221L329.522 54.0001L336 60.4771L329.522 66.9551L328 65.4331Z" fill="#0282B9"/>
<path d="M103.108 44.396H106.552V45.39H103.108V44.396ZM108.54 42.254H109.646V55.106H108.54V42.254ZM101.834 47.434L102.534 46.79C103.57 47.644 104.886 48.862 105.502 49.66L104.746 50.402C104.158 49.59 102.884 48.316 101.834 47.434ZM103.234 42.24L104.27 42.436C103.696 45.082 102.716 47.532 101.428 49.128C101.246 48.946 100.784 48.624 100.546 48.47C101.834 47.014 102.73 44.69 103.234 42.24ZM106.202 44.396H106.412L106.608 44.354L107.35 44.564C106.608 50.108 104.438 53.426 101.456 55.078C101.274 54.812 100.854 54.392 100.574 54.21C103.528 52.698 105.572 49.688 106.202 44.648V44.396ZM109.226 47.112L110.024 46.496C111.214 47.434 112.768 48.778 113.51 49.66L112.656 50.388C111.942 49.492 110.43 48.092 109.226 47.112ZM115.246 44.578H120.552V45.278H116.058V49.45H115.246V44.578ZM122.82 43.696H127.342V44.522H122.82V43.696ZM117.696 42.254H118.62V44.97H118.522V49.296H117.794V44.97H117.696V42.254ZM123.086 42.254L123.982 42.436C123.534 43.906 122.722 45.236 121.742 46.09C121.616 45.922 121.266 45.586 121.07 45.432C121.98 44.676 122.694 43.528 123.086 42.254ZM116.758 45.796L117.374 45.922C117.248 46.748 117.024 47.63 116.73 48.204C116.618 48.134 116.338 48.008 116.17 47.938C116.492 47.336 116.646 46.566 116.758 45.796ZM115.288 42.884L116.044 42.548C116.436 43.024 116.856 43.682 117.01 44.116L116.226 44.508C116.072 44.06 115.666 43.374 115.288 42.884ZM125.634 44.074L126.572 44.214C125.9 46.79 124.234 48.33 121.84 49.24C121.742 49.03 121.476 48.61 121.294 48.428C123.534 47.7 125.074 46.328 125.634 44.074ZM123.044 44.312C123.758 46.37 125.354 47.994 127.454 48.68C127.258 48.848 126.992 49.198 126.866 49.436C124.682 48.61 123.072 46.818 122.26 44.522L123.044 44.312ZM118.886 45.95L119.418 45.796C119.712 46.496 119.964 47.406 120.02 47.994L119.46 48.162C119.404 47.56 119.166 46.65 118.886 45.95ZM120.286 42.506L121.154 42.842C120.762 43.444 120.314 44.088 119.95 44.508L119.306 44.228C119.628 43.738 120.062 43.01 120.286 42.506ZM120.426 49.31H121.476V55.12H120.426V49.31ZM116.156 50.178H125.48V51.088H117.178V54.434H116.156V50.178ZM124.99 50.178H126.012V53.3C126.012 53.818 125.886 54.098 125.452 54.252C125.004 54.406 124.276 54.392 123.1 54.392C123.03 54.14 122.876 53.776 122.736 53.524C123.632 53.538 124.458 53.538 124.682 53.524C124.92 53.51 124.99 53.468 124.99 53.286V50.178ZM120.258 44.578H121.084V49.072H120.258V44.578ZM138.71 44.452C139.298 45.67 140.488 46.902 141.622 47.504C141.398 47.686 141.076 48.064 140.922 48.302C139.76 47.56 138.542 46.16 137.884 44.788L138.71 44.452ZM130.044 43.766V46.23H132.41V43.766H130.044ZM129.162 42.856H133.32V47.126H129.162V42.856ZM131.066 46.706H132.004V53.104H131.066V46.706ZM129.218 48.47H130.058V53.538H129.218V48.47ZM128.532 53.412C129.848 53.104 131.892 52.558 133.838 52.04L133.964 52.964C132.144 53.482 130.212 54 128.798 54.406L128.532 53.412ZM131.444 49.086H133.46V50.024H131.444V49.086ZM133.824 48.848H141.202V49.758H133.824V48.848ZM133.978 44.004H141.286V44.928H133.978V44.004ZM135.49 46.804H139.242V47.672H135.49V46.804ZM135.588 51.158H139.718V52.04H135.28L135.588 51.158ZM135.588 49.464H136.554C136.302 50.36 136.008 51.382 135.77 52.04H134.776C135.056 51.34 135.364 50.318 135.588 49.464ZM139.452 51.158H140.432C140.432 51.158 140.404 51.452 140.39 51.578C140.194 53.566 139.984 54.434 139.606 54.798C139.312 55.064 139.004 55.148 138.486 55.162C138.052 55.176 137.142 55.176 136.218 55.12C136.19 54.84 136.036 54.462 135.84 54.196C136.82 54.28 137.828 54.294 138.192 54.294C138.5 54.294 138.668 54.294 138.808 54.182C139.102 53.944 139.284 53.146 139.438 51.284L139.452 51.158ZM137.142 42.436L138.08 42.66C137.31 45.11 135.812 46.986 133.88 48.19C133.782 47.966 133.502 47.476 133.32 47.266C135.14 46.244 136.484 44.592 137.142 42.436ZM148.09 43.094H154.964V44.102H148.09V43.094ZM152.178 47.266H153.242V53.776C153.242 54.434 153.088 54.756 152.612 54.924C152.136 55.078 151.338 55.092 149.966 55.092C149.924 54.798 149.784 54.364 149.63 54.056C150.624 54.084 151.562 54.084 151.814 54.07C152.094 54.056 152.178 54 152.178 53.762V47.266ZM147.474 46.958H155.37V47.952H147.474V46.958ZM144.674 48.036L145.598 47.126L145.724 47.182V55.162H144.674V48.036ZM146.298 45.236L147.292 45.614C146.2 47.392 144.548 49.198 143.078 50.374C142.924 50.164 142.56 49.702 142.336 49.506C143.792 48.47 145.332 46.846 146.298 45.236ZM145.724 42.24L146.732 42.646C145.794 43.878 144.352 45.236 143.106 46.132C142.952 45.908 142.672 45.502 142.49 45.292C143.652 44.508 145.01 43.248 145.724 42.24ZM163.364 45.656H168.866V46.496H163.364V53.118H162.426V46.356L163.07 45.656H163.364ZM158.884 52.334C159.402 51.578 160.172 50.346 160.76 49.212L161.376 49.842C160.872 50.864 160.2 52.054 159.626 53.006L158.884 52.334ZM158.45 47.196L158.996 46.566C159.696 46.874 160.55 47.364 160.97 47.77L160.396 48.47C159.99 48.064 159.15 47.532 158.45 47.196ZM159.15 44.634L159.724 44.018C160.382 44.326 161.194 44.83 161.6 45.236L160.998 45.908C160.62 45.516 159.822 44.97 159.15 44.634ZM163.322 43.906L164.204 44.158C163.574 45.908 162.566 47.588 161.502 48.708C161.362 48.526 161.04 48.134 160.844 47.952C161.88 46.972 162.776 45.46 163.322 43.906ZM163.07 47.686H168.39V48.456H163.07V47.686ZM163.07 49.618H168.39V50.402H163.07V49.618ZM163 51.676H168.852V52.53H163V51.676ZM165.436 46.104H166.402V52.264H165.436V46.104ZM157.274 42.786H169.034V43.682H158.296V54.56H157.274V42.786ZM157.918 53.664H169.3V54.56H157.918V53.664ZM165.142 44.382L166.066 44.102C166.416 44.634 166.766 45.39 166.92 45.866L165.94 46.174C165.8 45.698 165.464 44.942 165.142 44.382ZM179.464 46.79H180.458V47.462C180.458 49.59 180.234 52.712 177.574 55.148C177.392 54.91 177.028 54.602 176.776 54.448C179.282 52.208 179.464 49.366 179.464 47.434V46.79ZM180.374 48.498C180.836 51.046 181.844 53.3 183.58 54.238C183.356 54.448 183.02 54.84 182.866 55.106C181.032 53.986 180.038 51.536 179.534 48.666L180.374 48.498ZM170.714 43.584H177.182V44.466H170.714V43.584ZM170.546 49.576H177.308V50.458H170.546V49.576ZM171.036 45.67H176.888V46.566H171.036V45.67ZM171.19 47.616H176.72V48.498H171.19V47.616ZM173.444 42.296H174.438V46.244H173.444V42.296ZM171.722 50.948L172.604 51.172C172.254 52.208 171.722 53.384 171.288 54.168C171.078 54.042 170.672 53.86 170.448 53.762C170.924 53.006 171.414 51.914 171.722 50.948ZM175.25 51.256L176.048 50.948C176.454 51.634 176.916 52.586 177.14 53.132L176.286 53.524C176.09 52.95 175.656 51.984 175.25 51.256ZM178.33 44.788H182.558V45.754H178.33V44.788ZM178.386 42.254L179.408 42.394C179.072 44.83 178.456 47.126 177.546 48.652C177.364 48.484 176.916 48.176 176.678 48.036C177.588 46.65 178.106 44.48 178.386 42.254ZM182.292 44.788H182.446L182.628 44.746L183.328 44.956C183.062 46.216 182.656 47.686 182.278 48.61L181.424 48.358C181.746 47.49 182.096 46.076 182.292 44.984V44.788ZM173.458 49.926H174.452V55.12H173.458V49.926ZM188.452 42.87H197.202V43.682H188.452V42.87ZM190.034 45.614H195.606V46.16H190.034V45.614ZM190.034 46.776H195.606V47.322H190.034V46.776ZM189.474 44.41H196.11V48.288H195.13V45.026H190.44V48.288H189.474V44.41ZM188.088 47.938H197.426V49.828H196.474V48.61H189.012V49.828H188.088V47.938ZM190.006 49.03L190.678 49.394C190.328 49.94 189.824 50.584 189.194 50.962L188.578 50.458C189.152 50.136 189.684 49.548 190.006 49.03ZM190.734 49.03H191.602V49.884C191.602 50.136 191.686 50.178 192.162 50.178C192.386 50.178 193.59 50.178 193.898 50.178C194.22 50.178 194.29 50.108 194.346 49.562C194.514 49.66 194.836 49.758 195.06 49.8C194.976 50.612 194.738 50.822 194.024 50.822C193.786 50.822 192.302 50.822 192.078 50.822C191.014 50.822 190.734 50.654 190.734 49.884V49.03ZM191.896 48.918L192.484 48.54C192.96 48.792 193.548 49.212 193.856 49.506L193.254 49.94C192.96 49.632 192.386 49.198 191.896 48.918ZM194.724 49.366L195.326 48.988C195.914 49.464 196.614 50.136 196.95 50.612L196.334 51.018C196.012 50.556 195.326 49.856 194.724 49.366ZM191.448 50.528L192.4 50.724C191.532 51.774 190.272 52.768 188.564 53.566C188.424 53.356 188.144 53.076 187.948 52.936C189.558 52.278 190.762 51.354 191.448 50.528ZM195.074 51.424H195.284L195.48 51.382L196.138 51.746C194.934 53.51 192.232 54.644 188.284 55.148C188.186 54.924 187.962 54.588 187.766 54.364C191.532 53.958 194.136 52.922 195.074 51.592V51.424ZM189.642 51.298C191 53.034 193.982 54 197.356 54.308C197.174 54.518 196.936 54.882 196.81 55.134C193.366 54.742 190.384 53.636 188.844 51.592L189.642 51.298ZM190.916 51.424H195.368V52.124H190.216L190.916 51.424ZM192.176 43.248L193.324 43.374C193.114 43.906 192.918 44.438 192.75 44.816L191.84 44.676C191.966 44.228 192.12 43.654 192.176 43.248ZM187.206 42.324L188.186 42.59C187.43 44.998 186.268 47.476 184.952 49.114C184.854 48.862 184.574 48.302 184.392 48.036C185.554 46.622 186.576 44.48 187.206 42.324ZM186.17 45.754L187.136 44.788L187.164 44.816V55.12H186.17V45.754ZM199.064 43.108H210.922V43.976H199.064V43.108ZM204.384 42.268H205.448V50.262H204.384V42.268ZM201.01 47.168V48.106H208.906V47.168H201.01ZM201.01 45.586V46.51H208.906V45.586H201.01ZM200.016 44.886H209.942V48.82H200.016V44.886ZM206.974 49.296L207.674 48.778C208.892 49.268 210.334 50.164 211.048 50.85L210.334 51.466C209.62 50.752 208.206 49.814 206.974 49.296ZM199.05 49.926C201.584 49.94 205.672 49.912 209.536 49.856L209.48 50.682C205.7 50.766 201.682 50.836 199.092 50.85L199.05 49.926ZM201.682 51.634H202.718V53.622C202.718 53.986 202.872 54.042 203.754 54.042C204.16 54.042 206.246 54.042 206.806 54.042C207.506 54.042 207.632 53.874 207.688 52.642C207.926 52.782 208.332 52.936 208.612 52.992C208.472 54.574 208.15 54.938 206.89 54.938C206.526 54.938 204.034 54.938 203.698 54.938C202.102 54.938 201.682 54.672 201.682 53.622V51.634ZM203.684 51.48L204.356 50.906C205.196 51.312 206.218 51.97 206.722 52.446L206.022 53.09C205.532 52.6 204.524 51.914 203.684 51.48ZM208.542 51.914L209.438 51.592C210.124 52.404 210.838 53.51 211.118 54.238L210.166 54.588C209.886 53.874 209.214 52.754 208.542 51.914ZM200.044 51.578L200.94 51.956C200.632 52.838 200.184 53.972 199.624 54.7L198.714 54.196C199.288 53.524 199.764 52.432 200.044 51.578Z" fill="#464646"/>
<path d="M112.656 69.496L113.76 70.744C110.688 71.592 106 72.008 102.112 72.152C102.064 71.768 101.888 71.16 101.744 70.824C105.568 70.648 110.128 70.232 112.656 69.496ZM101.824 74.024H114.368V75.48H101.824V74.024ZM100.736 77.768H115.296V79.256H100.736V77.768ZM107.232 71.448H108.8V82.408C108.8 83.384 108.528 83.816 107.856 84.056C107.184 84.296 106.08 84.328 104.416 84.312C104.32 83.88 104.032 83.208 103.792 82.808C105.072 82.856 106.368 82.84 106.736 82.84C107.088 82.824 107.232 82.712 107.232 82.392V71.448ZM121.888 70.296H131.136V71.304H121.888V70.296ZM122.512 72.024H130.56V72.984H122.512V72.024ZM125.856 69.496H127.328V72.584H125.856V69.496ZM123.216 74.52V75.688H129.744V74.52H123.216ZM121.968 73.56H131.056V76.648H121.968V73.56ZM123.856 79.32V79.928H129.12V79.32H123.856ZM123.856 80.552V81.192H129.12V80.552H123.856ZM123.856 78.104V78.68H129.12V78.104H123.856ZM122.496 77.256H130.528V82.024H122.496V77.256ZM127.312 82.856L127.856 81.896C129.104 82.312 130.496 82.872 131.36 83.272L130.736 84.328C129.888 83.912 128.528 83.32 127.312 82.856ZM125.072 81.896L126.08 82.856C124.848 83.416 123.296 84.008 122.144 84.424C122.032 84.136 121.776 83.672 121.584 83.368C122.64 83 124.192 82.376 125.072 81.896ZM124.736 73.88H125.888V76.312H124.736V73.88ZM127.28 73.896H128.432V76.296H127.28V73.896ZM120.192 75.976L121.232 75.72C121.616 76.824 122 78.248 122.128 79.096L121.008 79.448C120.896 78.568 120.56 77.096 120.192 75.976ZM118.816 80.056L119.872 79.864C120.064 81.048 120.224 82.552 120.256 83.576L119.152 83.768C119.152 82.76 118.992 81.224 118.816 80.056ZM117.232 79.912L118.416 80.104C118.256 81.608 117.968 83.224 117.616 84.264C117.36 84.12 116.8 83.944 116.48 83.864C116.864 82.824 117.088 81.304 117.232 79.912ZM116.944 75.656C116.864 75.384 116.656 74.76 116.512 74.408C116.784 74.344 117.04 74.008 117.344 73.528C117.664 73.064 118.64 71.224 119.2 69.48L120.464 69.992C119.744 71.768 118.736 73.64 117.776 74.92V74.952C117.776 74.952 116.944 75.384 116.944 75.656ZM116.944 75.656L116.896 74.584L117.552 74.184L120.288 73.96C120.224 74.328 120.176 74.856 120.176 75.144C117.696 75.416 117.232 75.512 116.944 75.656ZM117.056 79.304C116.976 79.032 116.768 78.392 116.608 78.04C116.96 77.96 117.296 77.56 117.76 76.952C118.256 76.376 119.808 74.04 120.752 71.848L121.92 72.536C120.816 74.728 119.344 76.984 117.888 78.584V78.632C117.888 78.632 117.056 79.032 117.056 79.304ZM117.056 79.304L116.992 78.232L117.648 77.784L121.376 77.32C121.328 77.688 121.296 78.216 121.312 78.504C117.92 79 117.376 79.128 117.056 79.304ZM120.288 79.752L121.248 79.464C121.584 80.392 121.936 81.608 122.096 82.392L121.072 82.728C120.944 81.928 120.592 80.696 120.288 79.752ZM134.816 72.04H144.64V71.256H133.696V70.312H146.016V72.984H134.816V72.04ZM134.368 72.04H135.696C135.584 72.984 135.424 74.04 135.264 74.776H133.92C134.096 74.008 134.272 72.936 134.368 72.04ZM134.56 73.816H146.08V74.776H134.272L134.56 73.816ZM145.616 73.816H147.024C147.024 73.816 147.008 74.104 147.008 74.264C146.912 75.192 146.816 75.688 146.576 75.96C146.352 76.168 146.064 76.264 145.728 76.28C145.44 76.296 144.864 76.296 144.272 76.264C144.256 75.992 144.144 75.592 144 75.336C144.464 75.368 144.848 75.384 145.024 75.384C145.184 75.384 145.28 75.368 145.376 75.272C145.488 75.144 145.552 74.808 145.616 73.976V73.816ZM137.52 69.496H138.896V72.568C138.896 74.76 138.192 76.456 133.504 77.272C133.376 76.936 133.04 76.376 132.784 76.104C136.96 75.416 137.52 74.152 137.52 72.536V69.496ZM141.072 69.496H142.512V75.848H141.072V69.496ZM136.304 78.456V79.304H143.856V78.456H136.304ZM136.304 80.168V81.032H143.856V80.168H136.304ZM136.304 76.76V77.592H143.856V76.76H136.304ZM134.832 75.848H145.392V81.944H134.832V75.848ZM141.344 82.536L142.208 81.672C144 82.2 145.952 82.888 147.136 83.4L146.016 84.328C144.944 83.8 143.136 83.096 141.344 82.536ZM137.504 81.848L138.848 82.472C137.536 83.224 135.488 83.944 133.872 84.36C133.632 84.072 133.104 83.512 132.768 83.256C134.448 82.952 136.368 82.44 137.504 81.848Z" fill="#464646"/>
<path d="M152.404 68.744H158.668V70.328H152.404V68.744ZM152.602 73.874H158.488V75.44H152.602V73.874ZM152.026 80.21C153.736 79.796 156.292 79.094 158.758 78.392L158.974 79.904C156.706 80.588 154.276 81.29 152.476 81.83L152.026 80.21ZM161.026 72.794V74.306H166.408V72.794H161.026ZM161.026 75.638V77.15H166.408V75.638H161.026ZM161.026 69.968V71.462H166.408V69.968H161.026ZM159.442 68.564H168.082V78.59H159.442V68.564ZM164.086 77.924H165.706V82.388C165.706 82.874 165.778 82.946 166.156 82.946C166.318 82.946 167.056 82.946 167.272 82.946C167.65 82.946 167.722 82.658 167.758 80.84C168.1 81.092 168.766 81.362 169.216 81.47C169.054 83.792 168.658 84.422 167.47 84.422C167.164 84.422 166.156 84.422 165.868 84.422C164.41 84.422 164.086 83.936 164.086 82.406V77.924ZM160.954 78.302H162.628C162.322 81.362 161.458 83.486 157.678 84.638C157.498 84.224 157.066 83.558 156.724 83.234C160.072 82.352 160.702 80.714 160.954 78.302ZM154.78 69.374H156.418V79.958L154.78 80.228V69.374ZM185.254 67.952L186.28 69.392C184.048 70.058 180.862 70.562 178.18 70.85C178.126 70.436 177.892 69.824 177.712 69.446C180.34 69.122 183.382 68.564 185.254 67.952ZM178.558 73.82H186.928V75.44H178.558V73.82ZM182.374 74.702H184.066V84.44H182.374V74.702ZM170.17 77.204C171.844 76.808 174.382 76.124 176.758 75.458L176.974 77.024C174.778 77.672 172.402 78.356 170.62 78.842L170.17 77.204ZM170.458 71.336H176.848V72.938H170.458V71.336ZM172.834 67.808H174.508V82.55C174.508 83.432 174.328 83.882 173.806 84.134C173.266 84.404 172.474 84.44 171.25 84.44C171.196 84.008 170.962 83.306 170.746 82.874C171.52 82.91 172.258 82.892 172.492 82.892C172.744 82.874 172.834 82.802 172.834 82.568V67.808ZM177.712 69.446H179.386V75.026C179.386 78.32 179.08 81.632 177.136 84.53C176.812 84.152 176.218 83.702 175.768 83.414C177.496 80.768 177.712 77.78 177.712 75.008V69.446ZM192.544 83.252C191.158 83.252 189.556 82.604 188.548 81.668L189.502 80.246C190.42 81.002 191.392 81.542 192.544 81.542C193.93 81.542 194.614 80.84 194.614 79.688C194.614 76.772 189.07 77.276 189.07 73.424C189.07 71.282 190.582 69.878 192.85 69.878C194.506 69.878 195.532 70.544 196.396 71.462L195.316 72.686C194.578 71.966 193.966 71.588 192.94 71.588C191.77 71.588 191.068 72.236 191.068 73.316C191.068 75.944 196.63 75.332 196.63 79.526C196.63 81.74 195.1 83.252 192.544 83.252ZM192.04 85.232V82.46H193.498V85.232H192.04ZM192.04 70.58V67.88H193.498V70.58H192.04ZM202.683 83.252C200.595 83.252 199.281 82.406 198.327 81.47L199.335 80.12C200.073 80.876 201.045 81.542 202.431 81.542C203.925 81.542 205.041 80.48 205.041 78.716C205.041 76.97 204.033 75.962 202.521 75.962C201.693 75.962 201.189 76.196 200.415 76.7L199.389 76.052L199.785 69.752H206.517V71.516H201.603L201.297 74.9C201.855 74.612 202.395 74.45 203.115 74.45C205.329 74.45 207.147 75.746 207.147 78.662C207.147 81.578 204.987 83.252 202.683 83.252ZM213.255 83.252C210.645 83.252 208.971 80.93 208.971 76.322C208.971 71.75 210.645 69.518 213.255 69.518C215.847 69.518 217.539 71.75 217.539 76.322C217.539 80.93 215.847 83.252 213.255 83.252ZM213.255 81.596C214.605 81.596 215.541 80.156 215.541 76.322C215.541 72.542 214.605 71.138 213.255 71.138C211.905 71.138 210.951 72.542 210.951 76.322C210.951 80.156 211.905 81.596 213.255 81.596Z" fill="#EB6022"/>
<path d="M58 90L27.5002 45L89.0002 45L58 90Z" fill="url(#paint2_linear_27_3885)" fill-opacity="0.8"/>
<mask id="path-10-outside-1_27_3885" maskUnits="userSpaceOnUse" x="32.3617" y="49.3616" width="22" height="24" fill="black">
<rect fill="white" x="32.3617" y="49.3616" width="22" height="24"/>
<path fill-rule="evenodd" clip-rule="evenodd" d="M41.7744 52.368C41.021 52.4413 40.4751 53.1172 40.5551 53.8777L41.1114 59.1645L36.201 57.2721C35.4946 56.9999 34.7094 57.3616 34.4473 58.08C34.1852 58.7984 34.5453 59.6015 35.2517 59.8737L39.429 61.4836L36.7112 63.6021C36.1049 64.0748 35.9909 64.9538 36.4567 65.5654C36.9225 66.1771 37.7916 66.2898 38.398 65.8171L41.9885 63.0182L43.9557 65.6015L40.3636 68.4017C39.7572 68.8743 39.6433 69.7534 40.109 70.365C40.5748 70.9767 41.444 71.0893 42.0503 70.6167L45.6424 67.8165L47.9034 70.7856C48.3625 71.3885 49.2191 71.4996 49.8168 71.0337C50.4144 70.5678 50.5268 69.7014 50.0677 69.0985L47.8067 66.1294L51.0367 63.6115C51.6431 63.1389 51.757 62.2598 51.2912 61.6482C50.8255 61.0365 49.9563 60.9238 49.35 61.3965L46.12 63.9144L44.1528 61.3311L47.3844 58.812C47.9907 58.3393 48.1047 57.4603 47.6389 56.8486C47.1731 56.237 46.304 56.1243 45.6976 56.597L43.7568 58.1099L43.2835 53.6124C43.2035 52.8519 42.5278 52.2948 41.7744 52.368Z"/>
</mask>
<path fill-rule="evenodd" clip-rule="evenodd" d="M41.7744 52.368C41.021 52.4413 40.4751 53.1172 40.5551 53.8777L41.1114 59.1645L36.201 57.2721C35.4946 56.9999 34.7094 57.3616 34.4473 58.08C34.1852 58.7984 34.5453 59.6015 35.2517 59.8737L39.429 61.4836L36.7112 63.6021C36.1049 64.0748 35.9909 64.9538 36.4567 65.5654C36.9225 66.1771 37.7916 66.2898 38.398 65.8171L41.9885 63.0182L43.9557 65.6015L40.3636 68.4017C39.7572 68.8743 39.6433 69.7534 40.109 70.365C40.5748 70.9767 41.444 71.0893 42.0503 70.6167L45.6424 67.8165L47.9034 70.7856C48.3625 71.3885 49.2191 71.4996 49.8168 71.0337C50.4144 70.5678 50.5268 69.7014 50.0677 69.0985L47.8067 66.1294L51.0367 63.6115C51.6431 63.1389 51.757 62.2598 51.2912 61.6482C50.8255 61.0365 49.9563 60.9238 49.35 61.3965L46.12 63.9144L44.1528 61.3311L47.3844 58.812C47.9907 58.3393 48.1047 57.4603 47.6389 56.8486C47.1731 56.237 46.304 56.1243 45.6976 56.597L43.7568 58.1099L43.2835 53.6124C43.2035 52.8519 42.5278 52.2948 41.7744 52.368Z" fill="#F4B81C"/>
<path d="M40.5551 53.8777L42.5441 53.6684L42.5441 53.6684L40.5551 53.8777ZM41.7744 52.368L41.9679 54.3587L41.9679 54.3587L41.7744 52.368ZM41.1114 59.1645L40.3922 61.0307L43.4426 62.2062L43.1005 58.9552L41.1114 59.1645ZM36.201 57.2721L36.9202 55.4059L36.9202 55.4059L36.201 57.2721ZM34.4473 58.08L32.5685 57.3945L32.5685 57.3945L34.4473 58.08ZM35.2517 59.8737L35.9709 58.0075L35.9709 58.0075L35.2517 59.8737ZM39.429 61.4836L40.6586 63.0609L43.4458 60.8882L40.1482 59.6173L39.429 61.4836ZM36.7112 63.6021L35.4816 62.0247L35.4816 62.0247L36.7112 63.6021ZM36.4567 65.5654L38.0479 64.3538L38.0479 64.3538L36.4567 65.5654ZM38.398 65.8171L37.1684 64.2398L37.1684 64.2398L38.398 65.8171ZM41.9885 63.0182L43.5796 61.8065L42.3542 60.1973L40.7589 61.4408L41.9885 63.0182ZM43.9557 65.6015L45.1853 67.1789L46.7449 65.9631L45.5468 64.3899L43.9557 65.6015ZM40.3636 68.4017L39.134 66.8243L39.134 66.8243L40.3636 68.4017ZM42.0503 70.6167L40.8207 69.0393L40.8207 69.0393L42.0503 70.6167ZM45.6424 67.8165L47.2336 66.6049L46.0081 64.9956L44.4128 66.2392L45.6424 67.8165ZM47.9034 70.7856L49.4945 69.574L49.4945 69.574L47.9034 70.7856ZM49.8168 71.0337L48.5872 69.4563L48.5872 69.4563L49.8168 71.0337ZM50.0677 69.0985L51.6588 67.8868L51.6588 67.8868L50.0677 69.0985ZM47.8067 66.1294L46.5771 64.552L45.0175 65.7678L46.2155 67.3411L47.8067 66.1294ZM51.0367 63.6115L52.2663 65.1889L52.2663 65.1889L51.0367 63.6115ZM49.35 61.3965L48.1204 59.8191L49.35 61.3965ZM46.12 63.9144L44.5288 65.1261L45.7542 66.7354L47.3496 65.4918L46.12 63.9144ZM44.1528 61.3311L42.9232 59.7537L41.3635 60.9695L42.5616 62.5428L44.1528 61.3311ZM47.3844 58.812L48.614 60.3893L48.614 60.3893L47.3844 58.812ZM47.6389 56.8486L46.0477 58.0603L46.0477 58.0603L47.6389 56.8486ZM45.6976 56.597L46.9272 58.1743L46.9272 58.1743L45.6976 56.597ZM43.7568 58.1099L41.7678 58.3192L42.1448 61.9024L44.9864 59.6873L43.7568 58.1099ZM43.2835 53.6124L41.2945 53.8217L41.2945 53.8217L43.2835 53.6124ZM42.5441 53.6684C42.5783 53.9932 42.3393 54.3226 41.9679 54.3587L41.5809 50.3774C39.7027 50.56 38.3719 52.2411 38.5661 54.087L42.5441 53.6684ZM43.1005 58.9552L42.5441 53.6684L38.5661 54.087L39.1224 59.3738L43.1005 58.9552ZM35.4818 59.1384L40.3922 61.0307L41.8306 57.2983L36.9202 55.4059L35.4818 59.1384ZM36.3261 58.7656C36.2116 59.0795 35.8375 59.2754 35.4818 59.1384L36.9202 55.4059C35.1517 54.7244 33.2073 55.6437 32.5685 57.3945L36.3261 58.7656ZM35.9709 58.0075C36.2994 58.1341 36.4314 58.477 36.3261 58.7656L32.5685 57.3945C31.9389 59.1199 32.7912 61.0689 34.5325 61.74L35.9709 58.0075ZM40.1482 59.6173L35.9709 58.0075L34.5325 61.74L38.7098 63.3498L40.1482 59.6173ZM37.9408 65.1795L40.6586 63.0609L38.1994 59.9062L35.4816 62.0247L37.9408 65.1795ZM38.0479 64.3538C38.2459 64.6139 38.1987 64.9785 37.9408 65.1795L35.4816 62.0247C34.0111 63.1711 33.7359 65.2937 34.8655 66.7771L38.0479 64.3538ZM37.1684 64.2398C37.4401 64.0279 37.8391 64.0796 38.0479 64.3538L34.8655 66.7771C36.0059 68.2746 38.1431 68.5517 39.6276 67.3945L37.1684 64.2398ZM40.7589 61.4408L37.1684 64.2398L39.6276 67.3945L43.2181 64.5956L40.7589 61.4408ZM45.5468 64.3899L43.5796 61.8065L40.3973 64.2299L42.3645 66.8132L45.5468 64.3899ZM41.5932 69.979L45.1853 67.1789L42.7261 64.0242L39.134 66.8243L41.5932 69.979ZM41.7002 69.1533C41.8983 69.4134 41.851 69.778 41.5932 69.979L39.134 66.8243C37.6634 67.9706 37.3882 70.0933 38.5179 71.5767L41.7002 69.1533ZM40.8207 69.0393C41.0925 68.8274 41.4914 68.8792 41.7002 69.1533L38.5179 71.5767C39.6582 73.0742 41.7954 73.3512 43.2799 72.194L40.8207 69.0393ZM44.4128 66.2392L40.8207 69.0393L43.2799 72.194L46.872 69.3939L44.4128 66.2392ZM49.4945 69.574L47.2336 66.6049L44.0512 69.0282L46.3122 71.9973L49.4945 69.574ZM48.5872 69.4563C48.8677 69.2377 49.2791 69.291 49.4945 69.574L46.3122 71.9973C47.4458 73.486 49.5706 73.7615 51.0464 72.6111L48.5872 69.4563ZM48.4765 70.3102C48.2717 70.0413 48.3206 69.6641 48.5872 69.4563L51.0464 72.6111C52.5082 71.4715 52.7818 69.3615 51.6588 67.8868L48.4765 70.3102ZM46.2155 67.3411L48.4765 70.3102L51.6588 67.8868L49.3979 64.9177L46.2155 67.3411ZM49.8071 62.0342L46.5771 64.552L49.0363 67.7068L52.2663 65.1889L49.8071 62.0342ZM49.7001 62.8599C49.502 62.5998 49.5493 62.2352 49.8071 62.0342L52.2663 65.1889C53.7369 64.0426 54.012 61.9199 52.8824 60.4365L49.7001 62.8599ZM50.5796 62.9739C50.3078 63.1857 49.9088 63.134 49.7001 62.8599L52.8824 60.4365C51.7421 58.939 49.6049 58.6619 48.1204 59.8191L50.5796 62.9739ZM47.3496 65.4918L50.5796 62.9739L48.1204 59.8191L44.8904 62.337L47.3496 65.4918ZM42.5616 62.5428L44.5288 65.1261L47.7111 62.7027L45.7439 60.1194L42.5616 62.5428ZM46.1548 57.2346L42.9232 59.7537L45.3824 62.9084L48.614 60.3893L46.1548 57.2346ZM46.0477 58.0603C45.8496 57.8002 45.8969 57.4356 46.1548 57.2346L48.614 60.3893C50.0845 59.243 50.3597 57.1204 49.2301 55.6369L46.0477 58.0603ZM46.9272 58.1743C46.6554 58.3862 46.2565 58.3345 46.0477 58.0603L49.2301 55.6369C48.0897 54.1395 45.9525 53.8624 44.468 55.0196L46.9272 58.1743ZM44.9864 59.6873L46.9272 58.1743L44.468 55.0196L42.5272 56.5325L44.9864 59.6873ZM41.2945 53.8217L41.7678 58.3192L45.7458 57.9006L45.2725 53.4031L41.2945 53.8217ZM41.9679 54.3587C41.6094 54.3935 41.3274 54.1347 41.2945 53.8217L45.2725 53.4031C45.0795 51.5691 43.4463 50.1961 41.5809 50.3774L41.9679 54.3587Z" fill="white" mask="url(#path-10-outside-1_27_3885)"/>
<mask id="path-12-outside-2_27_3885" maskUnits="userSpaceOnUse" x="44.5469" y="35.7778" width="21" height="27" fill="black">
<rect fill="white" x="44.5469" y="35.7778" width="21" height="27"/>
<path fill-rule="evenodd" clip-rule="evenodd" d="M63.067 58.3785C63.2569 59.171 62.772 59.9796 61.9617 60.0668C60.7961 60.1923 59.6151 60.1271 58.4639 59.8707C56.8321 59.5072 55.3034 58.7691 53.9942 57.7125C52.7444 56.704 51.7263 55.4308 51.0096 53.9821H48.2232C47.2974 53.9821 46.5469 53.2316 46.5469 52.3058C46.5469 51.38 47.2974 50.6295 48.2232 50.6295H49.9601C49.8729 50.0443 49.8313 49.4513 49.8364 48.856C49.8409 48.3258 49.8824 47.7982 49.9601 47.2769H48.2232C47.2974 47.2769 46.5469 46.5264 46.5469 45.6006C46.5469 44.6748 47.2974 43.9243 48.2232 43.9243H51.0097C51.7557 42.4164 52.8276 41.1001 54.145 40.0745C55.472 39.0414 57.0132 38.3305 58.6509 37.996C59.8067 37.7599 60.9891 37.7157 62.1527 37.8621C62.9609 37.9637 63.4314 38.78 63.228 39.5688C63.022 40.3676 62.2021 40.8303 61.3792 40.7707C60.6604 40.7187 59.9357 40.765 59.2246 40.9102C58.0225 41.1557 56.8912 41.6776 55.9171 42.4359C55.3638 42.8667 54.8694 43.3674 54.4451 43.9243H59.1345C60.0603 43.9243 60.8108 44.6748 60.8108 45.6006C60.8108 46.5264 60.0603 47.2769 59.1345 47.2769H52.9241C52.8162 47.8033 52.7591 48.3408 52.7544 48.8819C52.7494 49.4708 52.8067 50.0566 52.924 50.6295H59.1345C60.0603 50.6295 60.8108 51.38 60.8108 52.3058C60.8108 53.2316 60.0603 53.9821 59.1345 53.9821H54.445C54.8406 54.5014 55.2973 54.9721 55.8064 55.3829C56.7674 56.1585 57.8896 56.7003 59.0874 56.9671C59.796 57.1249 60.5199 57.1841 61.2397 57.1447C62.0633 57.0997 62.8748 57.5764 63.067 58.3785Z"/>
</mask>
<path fill-rule="evenodd" clip-rule="evenodd" d="M63.067 58.3785C63.2569 59.171 62.772 59.9796 61.9617 60.0668C60.7961 60.1923 59.6151 60.1271 58.4639 59.8707C56.8321 59.5072 55.3034 58.7691 53.9942 57.7125C52.7444 56.704 51.7263 55.4308 51.0096 53.9821H48.2232C47.2974 53.9821 46.5469 53.2316 46.5469 52.3058C46.5469 51.38 47.2974 50.6295 48.2232 50.6295H49.9601C49.8729 50.0443 49.8313 49.4513 49.8364 48.856C49.8409 48.3258 49.8824 47.7982 49.9601 47.2769H48.2232C47.2974 47.2769 46.5469 46.5264 46.5469 45.6006C46.5469 44.6748 47.2974 43.9243 48.2232 43.9243H51.0097C51.7557 42.4164 52.8276 41.1001 54.145 40.0745C55.472 39.0414 57.0132 38.3305 58.6509 37.996C59.8067 37.7599 60.9891 37.7157 62.1527 37.8621C62.9609 37.9637 63.4314 38.78 63.228 39.5688C63.022 40.3676 62.2021 40.8303 61.3792 40.7707C60.6604 40.7187 59.9357 40.765 59.2246 40.9102C58.0225 41.1557 56.8912 41.6776 55.9171 42.4359C55.3638 42.8667 54.8694 43.3674 54.4451 43.9243H59.1345C60.0603 43.9243 60.8108 44.6748 60.8108 45.6006C60.8108 46.5264 60.0603 47.2769 59.1345 47.2769H52.9241C52.8162 47.8033 52.7591 48.3408 52.7544 48.8819C52.7494 49.4708 52.8067 50.0566 52.924 50.6295H59.1345C60.0603 50.6295 60.8108 51.38 60.8108 52.3058C60.8108 53.2316 60.0603 53.9821 59.1345 53.9821H54.445C54.8406 54.5014 55.2973 54.9721 55.8064 55.3829C56.7674 56.1585 57.8896 56.7003 59.0874 56.9671C59.796 57.1249 60.5199 57.1841 61.2397 57.1447C62.0633 57.0997 62.8748 57.5764 63.067 58.3785Z" fill="#00A3E9"/>
<path d="M61.9617 60.0668L61.7476 58.0783L61.7476 58.0783L61.9617 60.0668ZM63.067 58.3785L65.0119 57.9124L65.0119 57.9124L63.067 58.3785ZM58.4639 59.8707L58.8987 57.9185L58.8987 57.9185L58.4639 59.8707ZM53.9942 57.7125L55.2502 56.1561L55.2502 56.1561L53.9942 57.7125ZM51.0096 53.9821L52.8022 53.0953L52.2515 51.9821H51.0096V53.9821ZM49.9601 50.6295V52.6295H52.28L51.9382 50.3348L49.9601 50.6295ZM49.8364 48.856L51.8363 48.8731L49.8364 48.856ZM49.9601 47.2769L51.9383 47.5716L52.2801 45.2769H49.9601V47.2769ZM51.0097 43.9243V45.9243H52.2516L52.8023 44.8112L51.0097 43.9243ZM54.145 40.0745L55.3736 41.6527L55.3736 41.6527L54.145 40.0745ZM58.6509 37.996L58.2507 36.0364L58.6509 37.996ZM62.1527 37.8621L62.4023 35.8777L62.4023 35.8777L62.1527 37.8621ZM63.228 39.5688L61.2913 39.0694L61.2913 39.0694L63.228 39.5688ZM61.3792 40.7707L61.5236 38.7759L61.3792 40.7707ZM59.2246 40.9102L58.8244 38.9506L58.8244 38.9506L59.2246 40.9102ZM55.9171 42.4359L54.6885 40.8578L54.6885 40.8578L55.9171 42.4359ZM54.4451 43.9243L52.8542 42.7122L50.4071 45.9243H54.4451V43.9243ZM52.9241 47.2769V45.2769H51.2924L50.9648 46.8753L52.9241 47.2769ZM52.7544 48.8819L50.7545 48.8648L50.7545 48.8648L52.7544 48.8819ZM52.924 50.6295L50.9648 51.031L51.2924 52.6295H52.924V50.6295ZM54.445 53.9821V51.9821H50.4071L52.8541 55.1941L54.445 53.9821ZM55.8064 55.3829L57.0625 53.8265L57.0625 53.8265L55.8064 55.3829ZM59.0874 56.9671L59.5222 55.015L59.5222 55.015L59.0874 56.9671ZM61.2397 57.1447L61.1306 55.1477L61.1306 55.1477L61.2397 57.1447ZM62.1758 62.0553C64.3701 61.8191 65.4377 59.689 65.0119 57.9124L61.1221 58.8446C61.0913 58.7162 61.1086 58.5602 61.2025 58.4128C61.3055 58.2511 61.504 58.1045 61.7476 58.0783L62.1758 62.0553ZM58.029 61.8228C59.3936 62.1268 60.7938 62.2041 62.1758 62.0553L61.7476 58.0783C60.7984 58.1805 59.8366 58.1275 58.8987 57.9185L58.029 61.8228ZM52.7382 59.2689C54.2854 60.5176 56.0948 61.392 58.029 61.8228L58.8987 57.9185C57.5695 57.6224 56.3214 57.0206 55.2502 56.1561L52.7382 59.2689ZM49.217 54.869C50.0609 56.5748 51.2613 58.0771 52.7382 59.2689L55.2502 56.1561C54.2275 55.3308 53.3916 54.2867 52.8022 53.0953L49.217 54.869ZM51.0096 51.9821H48.2232V55.9821H51.0096V51.9821ZM48.2232 51.9821C48.402 51.9821 48.5469 52.127 48.5469 52.3058H44.5469C44.5469 54.3362 46.1928 55.9821 48.2232 55.9821V51.9821ZM48.5469 52.3058C48.5469 52.4846 48.402 52.6295 48.2232 52.6295V48.6295C46.1928 48.6295 44.5469 50.2754 44.5469 52.3058H48.5469ZM48.2232 52.6295H49.9601V48.6295H48.2232V52.6295ZM47.8364 48.8389C47.8304 49.5388 47.8794 50.236 47.9819 50.9241L51.9382 50.3348C51.8664 49.8526 51.8321 49.3638 51.8363 48.8731L47.8364 48.8389ZM47.9819 46.9823C47.8906 47.5952 47.8418 48.2156 47.8364 48.8389L51.8363 48.8731C51.84 48.4361 51.8743 48.0012 51.9383 47.5716L47.9819 46.9823ZM48.2232 49.2769H49.9601V45.2769H48.2232V49.2769ZM44.5469 45.6006C44.5469 47.631 46.1928 49.2769 48.2232 49.2769V45.2769C48.402 45.2769 48.5469 45.4218 48.5469 45.6006H44.5469ZM48.2232 41.9243C46.1928 41.9243 44.5469 43.5702 44.5469 45.6006H48.5469C48.5469 45.7794 48.402 45.9243 48.2232 45.9243V41.9243ZM51.0097 41.9243H48.2232V45.9243H51.0097V41.9243ZM52.9163 38.4964C51.3594 39.7085 50.0955 41.2618 49.2171 43.0374L52.8023 44.8112C53.4159 43.571 54.2958 42.4917 55.3736 41.6527L52.9163 38.4964ZM58.2507 36.0364C56.3092 36.433 54.4849 37.2752 52.9163 38.4964L55.3736 41.6527C56.4591 40.8075 57.7171 40.228 59.0511 39.9555L58.2507 36.0364ZM62.4023 35.8777C61.0226 35.7042 59.6207 35.7566 58.2507 36.0364L59.0511 39.9555C59.9926 39.7632 60.9555 39.7273 61.9032 39.8464L62.4023 35.8777ZM65.1646 40.0681C65.6206 38.2998 64.5907 36.1529 62.4023 35.8777L61.9032 39.8464C61.6602 39.8159 61.4644 39.666 61.3643 39.5025C61.273 39.3535 61.2584 39.1972 61.2913 39.0694L65.1646 40.0681ZM61.2348 42.7655C62.7863 42.8778 64.6629 42.014 65.1646 40.0681L61.2913 39.0694C61.3315 38.9137 61.4281 38.8248 61.4765 38.7947C61.4983 38.7811 61.5117 38.7775 61.515 38.7767C61.5185 38.7758 61.5206 38.7757 61.5236 38.7759L61.2348 42.7655ZM59.6249 42.8697C60.1564 42.7612 60.6978 42.7266 61.2348 42.7655L61.5236 38.7759C60.623 38.7107 59.715 38.7687 58.8244 38.9506L59.6249 42.8697ZM57.1457 44.0141C57.8783 43.4437 58.7264 43.0532 59.6249 42.8697L58.8244 38.9506C57.3185 39.2582 55.9041 39.9114 54.6885 40.8578L57.1457 44.0141ZM56.036 45.1363C56.3567 44.7155 56.7295 44.3381 57.1457 44.0141L54.6885 40.8578C53.998 41.3953 53.3822 42.0193 52.8542 42.7122L56.036 45.1363ZM59.1345 41.9243H54.4451V45.9243H59.1345V41.9243ZM62.8108 45.6006C62.8108 43.5702 61.1649 41.9243 59.1345 41.9243V45.9243C58.9557 45.9243 58.8108 45.7794 58.8108 45.6006H62.8108ZM59.1345 49.2769C61.1649 49.2769 62.8108 47.631 62.8108 45.6006H58.8108C58.8108 45.4218 58.9557 45.2769 59.1345 45.2769V49.2769ZM52.9241 49.2769H59.1345V45.2769H52.9241V49.2769ZM54.7544 48.899C54.7579 48.4874 54.8013 48.0786 54.8834 47.6785L50.9648 46.8753C50.8311 47.5279 50.7602 48.1942 50.7545 48.8648L54.7544 48.899ZM54.8833 50.2279C54.7941 49.7925 54.7505 49.347 54.7544 48.899L50.7545 48.8648C50.7483 49.5946 50.8192 50.3208 50.9648 51.031L54.8833 50.2279ZM52.924 52.6295H59.1345V48.6295H52.924V52.6295ZM59.1345 52.6295C58.9557 52.6295 58.8108 52.4846 58.8108 52.3058H62.8108C62.8108 50.2754 61.1649 48.6295 59.1345 48.6295V52.6295ZM58.8108 52.3058C58.8108 52.127 58.9557 51.9821 59.1345 51.9821V55.9821C61.1649 55.9821 62.8108 54.3362 62.8108 52.3058H58.8108ZM59.1345 51.9821H54.445V55.9821H59.1345V51.9821ZM57.0625 53.8265C56.6794 53.5174 56.3349 53.1626 56.0359 52.7701L52.8541 55.1941C53.3463 55.8403 53.9153 56.4268 54.5504 56.9393L57.0625 53.8265ZM59.5222 55.015C58.627 54.8155 57.7854 54.41 57.0625 53.8265L54.5504 56.9393C55.7494 57.907 57.1522 58.5851 58.6525 58.9193L59.5222 55.015ZM61.1306 55.1477C60.5929 55.1771 60.052 55.133 59.5222 55.015L58.6525 58.9193C59.5399 59.1169 60.447 59.1911 61.3489 59.1418L61.1306 55.1477ZM65.0119 57.9124C64.5438 55.9589 62.6833 55.0629 61.1306 55.1477L61.3488 59.1418C61.3459 59.1419 61.3438 59.1418 61.3403 59.1409C61.3371 59.14 61.3238 59.1362 61.3023 59.1222C61.2545 59.0913 61.1595 59.0009 61.1221 58.8446L65.0119 57.9124Z" fill="white" mask="url(#path-12-outside-2_27_3885)"/>
<mask id="path-14-outside-3_27_3885" maskUnits="userSpaceOnUse" x="56.7282" y="44.4514" width="31.8572" height="33.8816" fill="black">
<rect fill="white" x="56.7282" y="44.4514" width="31.8572" height="33.8816"/>
<path fill-rule="evenodd" clip-rule="evenodd" d="M79.2901 51.9927C78.597 51.4685 77.6202 51.6129 77.1083 52.3151L76.6287 52.973C73.4467 51.0195 70.2849 51.0674 68.8369 53.0537C67.4024 55.0215 68.3624 57.4434 69.7076 59.3369L70.8248 60.9346L68.1917 64.5465C67.3122 63.7165 66.5723 62.6621 66.0405 61.549C65.6964 60.8289 64.9742 60.337 64.1932 60.4193C63.1531 60.5289 62.4757 61.582 62.96 62.5275C63.7893 64.1467 65.0101 65.6658 66.4754 66.9009L65.9169 67.6671C65.405 68.3693 65.5519 69.3634 66.245 69.8876C66.9381 70.4117 67.9149 70.2674 68.4268 69.5652L69.0862 68.6607C72.2905 70.3203 75.0903 69.9492 76.4244 68.1191C77.8457 66.1695 77.2206 64.0857 75.6037 61.8172L74.8544 60.748L77.3681 57.2998C77.7552 57.758 78.0786 58.2465 78.354 58.7699C78.6914 59.4113 79.3547 59.8357 80.063 59.7491C81.0041 59.6341 81.6207 58.6883 81.1864 57.8286C80.6654 56.7976 79.9472 55.8107 79.0913 54.936L79.6182 54.2132C80.1301 53.511 79.9832 52.5168 79.2901 51.9927ZM74.925 55.31C73.7387 54.6609 72.6134 54.4717 72.1123 55.1592C71.6031 55.8576 72.1548 56.9168 72.9318 58.0442L74.925 55.31ZM72.8 63.5662L70.877 66.2041C72.0817 66.6269 73.1773 66.6059 73.6202 65.9984C74.0889 65.3554 73.5539 64.5235 72.8 63.5662Z"/>
</mask>
<path fill-rule="evenodd" clip-rule="evenodd" d="M79.2901 51.9927C78.597 51.4685 77.6202 51.6129 77.1083 52.3151L76.6287 52.973C73.4467 51.0195 70.2849 51.0674 68.8369 53.0537C67.4024 55.0215 68.3624 57.4434 69.7076 59.3369L70.8248 60.9346L68.1917 64.5465C67.3122 63.7165 66.5723 62.6621 66.0405 61.549C65.6964 60.8289 64.9742 60.337 64.1932 60.4193C63.1531 60.5289 62.4757 61.582 62.96 62.5275C63.7893 64.1467 65.0101 65.6658 66.4754 66.9009L65.9169 67.6671C65.405 68.3693 65.5519 69.3634 66.245 69.8876C66.9381 70.4117 67.9149 70.2674 68.4268 69.5652L69.0862 68.6607C72.2905 70.3203 75.0903 69.9492 76.4244 68.1191C77.8457 66.1695 77.2206 64.0857 75.6037 61.8172L74.8544 60.748L77.3681 57.2998C77.7552 57.758 78.0786 58.2465 78.354 58.7699C78.6914 59.4113 79.3547 59.8357 80.063 59.7491C81.0041 59.6341 81.6207 58.6883 81.1864 57.8286C80.6654 56.7976 79.9472 55.8107 79.0913 54.936L79.6182 54.2132C80.1301 53.511 79.9832 52.5168 79.2901 51.9927ZM74.925 55.31C73.7387 54.6609 72.6134 54.4717 72.1123 55.1592C71.6031 55.8576 72.1548 56.9168 72.9318 58.0442L74.925 55.31ZM72.8 63.5662L70.877 66.2041C72.0817 66.6269 73.1773 66.6059 73.6202 65.9984C74.0889 65.3554 73.5539 64.5235 72.8 63.5662Z" fill="#EB6022"/>
<path d="M77.1083 52.3151L78.7035 53.5214L77.1083 52.3151ZM76.6287 52.973L75.6101 54.6981L77.1545 55.6463L78.2239 54.1794L76.6287 52.973ZM69.7076 59.3369L71.3219 58.1738L71.3175 58.1675L71.3131 58.1613L69.7076 59.3369ZM70.8248 60.9346L72.42 62.141L73.2753 60.9676L72.439 59.7715L70.8248 60.9346ZM68.1917 64.5465L66.8468 66.0216L68.4726 67.5559L69.787 65.7529L68.1917 64.5465ZM66.0405 61.549L64.2576 62.4228L64.2576 62.4228L66.0405 61.549ZM64.1932 60.4193L63.9788 58.4133L63.9788 58.4133L64.1932 60.4193ZM62.96 62.5275L61.2022 63.452L61.2022 63.452L62.96 62.5275ZM66.4754 66.9009L68.0706 68.1073L69.188 66.5745L67.7363 65.3509L66.4754 66.9009ZM68.4268 69.5652L66.8316 68.3588L68.4268 69.5652ZM69.0862 68.6607L69.9791 66.8645L68.485 66.0907L67.491 67.4543L69.0862 68.6607ZM75.6037 61.8172L73.9907 62.9821L73.9954 62.9887L74.0001 62.9953L75.6037 61.8172ZM74.8544 60.748L73.2592 59.5416L72.4029 60.7163L73.2414 61.9129L74.8544 60.748ZM77.3681 57.2998L78.8694 55.99L77.2476 54.0704L75.7729 56.0935L77.3681 57.2998ZM78.354 58.7699L76.6064 59.7142L76.6064 59.7142L78.354 58.7699ZM80.063 59.7491L80.3096 61.7515L80.3096 61.7515L80.063 59.7491ZM81.1864 57.8286L82.9493 56.9141L82.9493 56.9141L81.1864 57.8286ZM79.0913 54.936L77.4961 53.7296L76.4818 55.121L77.6891 56.3549L79.0913 54.936ZM79.6182 54.2132L81.2134 55.4195L79.6182 54.2132ZM74.925 55.31L76.5202 56.5164L77.885 54.6443L75.8577 53.5351L74.925 55.31ZM72.9318 58.0442L71.3098 59.1962L72.8927 61.4925L74.5271 59.2506L72.9318 58.0442ZM72.8 63.5662L74.3455 62.3104L72.7333 60.2631L71.2048 62.3598L72.8 63.5662ZM70.877 66.2041L69.2818 64.9978L67.6701 67.2087L70.2386 68.1102L70.877 66.2041ZM78.7035 53.5214C78.5647 53.7118 78.2999 53.751 78.112 53.6088L80.4683 50.3765C78.8941 49.1861 76.6756 49.5139 75.5131 51.1087L78.7035 53.5214ZM78.2239 54.1794L78.7035 53.5214L75.5131 51.1087L75.0334 51.7667L78.2239 54.1794ZM70.4321 54.2601C70.7122 53.8758 71.2219 53.563 72.1155 53.5526C73.0326 53.5418 74.2576 53.8678 75.6101 54.6981L77.6472 51.2479C75.8177 50.1247 73.8709 49.498 72.0496 49.5193C70.2048 49.541 68.4096 50.2453 67.2417 51.8474L70.4321 54.2601ZM71.3131 58.1613C70.7255 57.3342 70.3177 56.5178 70.1691 55.811C70.0329 55.1634 70.1208 54.6871 70.4321 54.2601L67.2417 51.8474C66.1185 53.3881 65.9692 55.1067 66.2907 56.6354C66.5997 58.1047 67.3446 59.4461 68.1022 60.5125L71.3131 58.1613ZM72.439 59.7715L71.3219 58.1738L68.0934 60.5L69.2105 62.0977L72.439 59.7715ZM69.787 65.7529L72.42 62.141L69.2295 59.7283L66.5965 63.3402L69.787 65.7529ZM64.2576 62.4228C64.8855 63.7371 65.7669 65.0025 66.8468 66.0216L69.5367 63.0714C68.8576 62.4306 68.259 61.587 67.8234 60.6751L64.2576 62.4228ZM64.4075 62.4253C64.3682 62.4295 64.3301 62.426 64.2982 62.418C64.2675 62.4103 64.2489 62.4002 64.2413 62.3954C64.2339 62.3908 64.2349 62.39 64.2404 62.3962C64.2458 62.4023 64.2522 62.4115 64.2576 62.4228L67.8234 60.6751C67.1818 59.3323 65.7379 58.2279 63.9788 58.4133L64.4075 62.4253ZM64.7178 61.603C64.7592 61.6839 64.7891 61.7985 64.7827 61.9272C64.7765 62.0499 64.7394 62.1504 64.6959 62.2223C64.6123 62.3606 64.4949 62.4161 64.4075 62.4253L63.9788 58.4133C61.8313 58.6396 59.9457 60.9989 61.2022 63.452L64.7178 61.603ZM67.7363 65.3509C66.4637 64.2782 65.4171 62.9683 64.7178 61.603L61.2022 63.452C62.1616 65.3252 63.5564 67.0534 65.2145 68.451L67.7363 65.3509ZM67.5121 68.8734L68.0706 68.1073L64.8802 65.6946L64.3217 66.4607L67.5121 68.8734ZM67.4232 68.2714C67.6111 68.4135 67.6509 68.6831 67.5121 68.8734L64.3217 66.4607C63.1591 68.0555 63.4927 70.3133 65.0669 71.5037L67.4232 68.2714ZM66.8316 68.3588C66.9704 68.1684 67.2352 68.1293 67.4232 68.2714L65.0669 71.5037C66.641 72.6941 68.8595 72.3663 70.022 70.7715L66.8316 68.3588ZM67.491 67.4543L66.8316 68.3588L70.022 70.7715L70.6814 69.867L67.491 67.4543ZM74.8292 66.9127C74.333 67.5934 72.789 68.3199 69.9791 66.8645L68.1933 70.4568C71.792 72.3207 75.8476 72.305 78.0197 69.3254L74.8292 66.9127ZM74.0001 62.9953C74.7332 64.0239 75.0951 64.8173 75.2001 65.4262C75.288 65.936 75.214 66.3849 74.8292 66.9127L78.0197 69.3254C79.0561 67.9037 79.3802 66.3359 79.1066 64.7492C78.8502 63.2618 78.0911 61.879 77.2074 60.639L74.0001 62.9953ZM73.2414 61.9129L73.9907 62.9821L77.2167 60.6523L76.4674 59.5831L73.2414 61.9129ZM75.7729 56.0935L73.2592 59.5416L76.4496 61.9543L78.9633 58.5062L75.7729 56.0935ZM80.1015 57.8256C79.7619 57.1801 79.3574 56.5676 78.8694 55.99L75.8667 58.6097C76.1529 58.9484 76.3954 59.313 76.6064 59.7142L80.1015 57.8256ZM79.8165 57.7468C79.9285 57.7331 80.0167 57.7649 80.0602 57.7906C80.0802 57.8025 80.0908 57.8126 80.0952 57.8173C80.0996 57.822 80.1011 57.8248 80.1015 57.8256L76.6064 59.7142C77.2592 60.9549 78.6453 61.9549 80.3096 61.7515L79.8165 57.7468ZM79.4234 58.7431C79.372 58.6413 79.3382 58.5045 79.3463 58.3542C79.3541 58.2097 79.3984 58.09 79.4516 58.0024C79.5538 57.8339 79.6991 57.7611 79.8165 57.7468L80.3096 61.7515C82.3068 61.5073 84.1519 59.2944 82.9493 56.9141L79.4234 58.7431ZM77.6891 56.3549C78.4127 57.0944 79.0044 57.9138 79.4234 58.7431L82.9493 56.9141C82.3264 55.6813 81.4816 54.527 80.4935 53.5171L77.6891 56.3549ZM78.023 53.0068L77.4961 53.7296L80.6865 56.1424L81.2134 55.4195L78.023 53.0068ZM78.112 53.6088C77.924 53.4667 77.8842 53.1972 78.023 53.0068L81.2134 55.4195C82.376 53.8248 82.0424 51.5669 80.4683 50.3765L78.112 53.6088ZM75.8577 53.5351C75.1375 53.141 74.2865 52.7988 73.4195 52.7239C72.5312 52.6472 71.3206 52.8506 70.5171 53.9528L73.7075 56.3655C73.5817 56.538 73.4104 56.6521 73.2562 56.7067C73.1237 56.7535 73.0568 56.7388 73.1039 56.7429C73.1485 56.7468 73.2519 56.764 73.4174 56.8221C73.5794 56.8789 73.7733 56.9651 73.9923 57.0849L75.8577 53.5351ZM70.5171 53.9528C69.6943 55.0814 69.9018 56.3318 70.1704 57.1045C70.4382 57.8747 70.9071 58.6118 71.3098 59.1962L74.5538 56.8922C74.3777 56.6368 74.2328 56.4115 74.1192 56.212C74.0035 56.0089 73.9402 55.8668 73.909 55.7772C73.8763 55.6829 73.9023 55.7125 73.898 55.83C73.8927 55.9772 73.8417 56.1815 73.7075 56.3655L70.5171 53.9528ZM74.5271 59.2506L76.5202 56.5164L73.3298 54.1037L71.3366 56.8378L74.5271 59.2506ZM71.2048 62.3598L69.2818 64.9978L72.4722 67.4105L74.3952 64.7725L71.2048 62.3598ZM70.2386 68.1102C71.0032 68.3785 71.8456 68.549 72.6593 68.501C73.4482 68.4544 74.5102 68.1721 75.2154 67.2047L72.025 64.792C72.1504 64.6199 72.2946 64.5318 72.3796 64.4944C72.4551 64.4612 72.4762 64.4703 72.4093 64.4743C72.2633 64.4829 71.9555 64.4525 71.5154 64.2981L70.2386 68.1102ZM75.2154 67.2047C76.0247 66.0946 75.8144 64.893 75.4949 64.1237C75.2052 63.4258 74.7156 62.7804 74.3455 62.3104L71.2546 64.8219C71.4307 65.0456 71.5681 65.2295 71.6739 65.3877C71.7823 65.5498 71.8276 65.6412 71.8422 65.6766C71.8577 65.7138 71.8091 65.6169 71.8132 65.427C71.8153 65.3268 71.8322 65.2116 71.8722 65.0916C71.9124 64.9713 71.9677 64.8706 72.025 64.792L75.2154 67.2047Z" fill="white" mask="url(#path-14-outside-3_27_3885)"/>
<path d="M33.0625 40.2412C37.1566 37.1833 36.2118 34.4675 34.9521 32.2222C37.8645 35.7817 41.0461 35.7752 42.7537 34.9931C42.8772 34.9198 43.006 34.8514 43.1403 34.7883C43.0218 34.8607 42.8927 34.9294 42.7537 34.9931C39.8679 36.7056 39.9161 41.0643 40.6208 42.8074C38.3533 37.9318 34.6372 39.0651 33.0625 40.2412Z" fill="#F4B81C"/>
<path d="M215 110C322.168 110 353.706 71.1944 355 53L355 110L215 110Z" fill="url(#paint3_linear_27_3885)" fill-opacity="0.7"/>
<path d="M225 117C332.168 117 363.706 78.1944 365 60L365 117L225 117Z" fill="url(#paint4_linear_27_3885)"/>
</g>
<rect x="10.5" y="10.5" width="344" height="99" rx="11.5" stroke="#FFB88E"/>
</g>
<defs>
<filter id="filter0_d_27_3885" x="0" y="0" width="365" height="120" filterUnits="userSpaceOnUse" color-interpolation-filters="sRGB">
<feFlood flood-opacity="0" result="BackgroundImageFix"/>
<feColorMatrix in="SourceAlpha" type="matrix" values="0 0 0 0 0 0 0 0 0 0 0 0 0 0 0 0 0 0 127 0" result="hardAlpha"/>
<feOffset/>
<feGaussianBlur stdDeviation="5"/>
<feColorMatrix type="matrix" values="0 0 0 0 0.533333 0 0 0 0 0.533333 0 0 0 0 0.533333 0 0 0 0.2 0"/>
<feBlend mode="normal" in2="BackgroundImageFix" result="effect1_dropShadow_27_3885"/>
<feBlend mode="normal" in="SourceGraphic" in2="effect1_dropShadow_27_3885" result="shape"/>
</filter>
<linearGradient id="paint0_linear_27_3885" x1="15.9092" y1="16.1259" x2="58.8382" y2="52.3925" gradientUnits="userSpaceOnUse">
<stop stop-color="#FFB88E"/>
<stop offset="1" stop-color="#FFD2B5"/>
</linearGradient>
<linearGradient id="paint1_linear_27_3885" x1="6.90923" y1="7.12587" x2="49.8382" y2="43.3925" gradientUnits="userSpaceOnUse">
<stop stop-color="#FFB88E"/>
<stop offset="1" stop-color="#FFD2B5"/>
</linearGradient>
<linearGradient id="paint2_linear_27_3885" x1="58.0002" y1="90" x2="58.0003" y2="30" gradientUnits="userSpaceOnUse">
<stop stop-color="#FFF067"/>
<stop offset="1" stop-color="white" stop-opacity="0"/>
</linearGradient>
<linearGradient id="paint3_linear_27_3885" x1="350.046" y1="105.217" x2="316.21" y2="74.5265" gradientUnits="userSpaceOnUse">
<stop stop-color="#FFB88E"/>
<stop offset="1" stop-color="#FFD3B6"/>
</linearGradient>
<linearGradient id="paint4_linear_27_3885" x1="360.046" y1="112.217" x2="326.21" y2="81.5265" gradientUnits="userSpaceOnUse">
<stop stop-color="#FFB88E"/>
<stop offset="1" stop-color="#FFD3B6"/>
</linearGradient>
<clipPath id="clip0_27_3885">
<rect x="10" y="10" width="345" height="100" rx="12" fill="white"/>
</clipPath>
</defs>
</svg>
