<svg width="365" height="120" viewBox="0 0 365 120" fill="none" xmlns="http://www.w3.org/2000/svg">
<g filter="url(#filter0_d_27_3884)">
<g clip-path="url(#clip0_27_3884)">
<rect x="10" y="10" width="345" height="100" rx="12" fill="white"/>
<path d="M177 10C49.164 10 10 34 10 83V10H177Z" fill="url(#paint0_linear_27_3884)" fill-opacity="0.6"/>
<path d="M168 1C40.164 1 1 25 1 74V1H168Z" fill="url(#paint1_linear_27_3884)" fill-opacity="0.6"/>
<circle cx="331" cy="60" r="10" fill="white"/>
<path d="M328 65.4331L332.945 60.4771L328 55.5221L329.522 54.0001L336 60.4771L329.522 66.9551L328 65.4331Z" fill="#0282B9"/>
<path d="M109.058 43.71H110.038V51.592H109.058V43.71ZM111.858 42.506H112.866V53.734C112.866 54.42 112.698 54.728 112.292 54.91C111.858 55.078 111.088 55.106 110.052 55.106C109.996 54.812 109.842 54.336 109.688 54.028C110.514 54.056 111.312 54.042 111.564 54.028C111.788 54.028 111.858 53.958 111.858 53.734V42.506ZM104.844 46.65H105.74V55.092H104.844V46.65ZM107.21 48.162H108.078V52.46C108.078 52.894 108.022 53.16 107.728 53.314C107.42 53.468 106.972 53.482 106.3 53.482C106.272 53.23 106.146 52.866 106.02 52.628C106.524 52.642 106.902 52.642 107.042 52.628C107.182 52.628 107.21 52.586 107.21 52.46V48.162ZM101.484 43.038H102.436V47.77C102.436 49.856 102.268 52.866 101.204 54.868C101.036 54.672 100.63 54.364 100.406 54.252C101.4 52.39 101.484 49.73 101.484 47.77V43.038ZM102.002 43.038H108.036V46.72H102.002V45.768H107.028V43.99H102.002V43.038ZM102.674 48.162H107.644V49.058H103.5V53.594H102.674V48.162ZM114.77 47.854H118.746V48.848H114.77V47.854ZM116.59 45.138H121.084V46.146H116.59V45.138ZM121.49 45.768C122.414 49.268 124.374 52.124 127.496 53.3C127.258 53.51 126.922 53.93 126.768 54.21C123.562 52.838 121.63 49.856 120.594 45.964L121.49 45.768ZM126.04 46.132L127.006 46.818C125.83 47.924 124.276 49.226 123.058 50.038L122.316 49.436C123.506 48.596 125.116 47.196 126.04 46.132ZM120.468 45.138H121.588V53.776C121.588 54.42 121.434 54.742 120.986 54.924C120.524 55.092 119.768 55.106 118.606 55.106C118.55 54.812 118.396 54.35 118.228 54.042C119.082 54.084 119.908 54.084 120.146 54.07C120.398 54.056 120.468 53.986 120.468 53.762V45.138ZM117.878 43.122L118.396 42.268C120.118 42.66 122.4 43.444 123.59 44.074L123.058 45.054C121.896 44.41 119.642 43.584 117.878 43.122ZM118.354 47.854H118.564L118.76 47.812L119.46 48.106C118.732 50.99 117.108 53.09 115.316 54.252C115.148 54.014 114.728 53.622 114.476 53.44C116.24 52.432 117.752 50.5 118.354 48.064V47.854ZM133.152 43.01H141.202V43.752H133.152V43.01ZM133.74 44.494H140.642V45.208H133.74V44.494ZM136.736 42.254H137.758V44.914H136.736V42.254ZM134.132 46.496V47.672H140.166V46.496H134.132ZM133.236 45.796H141.09V48.372H133.236V45.796ZM134.622 50.738V51.34H139.648V50.738H134.622ZM134.622 51.844V52.488H139.648V51.844H134.622ZM134.622 49.632V50.22H139.648V49.632H134.622ZM133.684 48.988H140.628V53.118H133.684V48.988ZM137.954 53.748L138.36 53.062C139.438 53.468 140.628 53.972 141.37 54.336L140.922 55.092C140.18 54.714 139.018 54.182 137.954 53.748ZM135.896 53.104L136.652 53.762C135.588 54.252 134.258 54.798 133.278 55.176C133.194 54.966 132.998 54.644 132.858 54.434C133.782 54.084 135.14 53.524 135.896 53.104ZM135.714 46.006H136.54V48.12H135.714V46.006ZM137.982 46.02H138.822V48.106H137.982V46.02ZM131.724 47.798L132.466 47.616C132.816 48.596 133.166 49.856 133.278 50.598L132.466 50.836C132.368 50.066 132.046 48.778 131.724 47.798ZM130.492 51.34L131.262 51.2C131.444 52.236 131.598 53.566 131.626 54.448L130.828 54.588C130.814 53.706 130.66 52.362 130.492 51.34ZM129.162 51.256L130.016 51.396C129.862 52.698 129.582 54.126 129.288 55.036C129.106 54.938 128.686 54.812 128.462 54.742C128.812 53.818 129.022 52.474 129.162 51.256ZM128.826 47.49C128.77 47.294 128.616 46.832 128.518 46.594C128.742 46.538 128.966 46.244 129.232 45.81C129.526 45.39 130.422 43.766 130.94 42.226L131.836 42.604C131.192 44.172 130.296 45.824 129.442 46.944V46.972C129.442 46.972 128.826 47.28 128.826 47.49ZM128.826 47.49L128.798 46.72L129.288 46.426L131.682 46.216C131.64 46.468 131.612 46.846 131.612 47.056C129.428 47.308 129.05 47.378 128.826 47.49ZM128.91 50.64C128.868 50.444 128.714 49.982 128.602 49.73C128.882 49.674 129.176 49.31 129.582 48.778C130.002 48.274 131.36 46.258 132.214 44.354L133.054 44.83C132.074 46.762 130.8 48.722 129.54 50.122V50.15C129.54 50.15 128.91 50.444 128.91 50.64ZM128.91 50.64L128.882 49.87L129.372 49.548L132.69 49.114C132.662 49.38 132.648 49.744 132.662 49.954C129.61 50.402 129.176 50.5 128.91 50.64ZM131.752 51.074L132.452 50.878C132.76 51.69 133.082 52.782 133.222 53.468L132.48 53.706C132.354 53.006 132.032 51.914 131.752 51.074ZM144.912 44.97H154.614V45.992H144.912V44.97ZM144.296 49.072H154.11V50.08H144.296V49.072ZM142.77 53.65H155.272V54.672H142.77V53.65ZM148.482 42.254H149.56V54.168H148.482V42.254ZM145.332 42.478L146.41 42.716C145.794 44.886 144.814 46.958 143.694 48.302C143.484 48.12 143.008 47.812 142.742 47.672C143.89 46.426 144.8 44.48 145.332 42.478ZM161.488 49.674H168.474V55.05H167.466V50.64H162.454V55.12H161.488V49.674ZM167.956 42.296L168.782 43.122C166.864 43.78 163.938 44.214 161.432 44.452C161.39 44.2 161.25 43.794 161.124 43.556C163.56 43.29 166.402 42.856 167.956 42.296ZM164.512 43.514H165.52V50.234H164.512V43.514ZM160.466 46.356H169.384V47.364H160.466V46.356ZM162.146 53.552H167.928V54.518H162.146V53.552ZM157.26 43.164L157.848 42.422C158.702 42.842 159.892 43.472 160.494 43.878L159.878 44.732C159.29 44.312 158.128 43.626 157.26 43.164ZM156.574 47.028L157.162 46.258C157.988 46.664 159.164 47.28 159.752 47.686L159.164 48.54C158.59 48.148 157.428 47.476 156.574 47.028ZM156.91 54.224C157.666 53.16 158.772 51.312 159.584 49.716L160.34 50.402C159.598 51.886 158.618 53.636 157.792 54.938L156.91 54.224ZM170.728 47.406H183.286V48.442H170.728V47.406ZM176.79 44.228H181.858V45.25H176.79V44.228ZM176.132 42.24H177.238V47.896H176.132V42.24ZM176.174 48.106H177.266V55.12H176.174V48.106ZM177.462 50.752L178.008 49.954C179.478 50.514 181.564 51.368 182.642 51.9L182.068 52.838C181.032 52.278 178.96 51.354 177.462 50.752ZM189.768 46.244H195.9V47.21H189.768V46.244ZM189.278 46.244H190.258V50.122C190.258 51.69 190.132 53.776 189.292 55.176C189.138 55.008 188.718 54.686 188.494 54.574C189.208 53.286 189.278 51.522 189.278 50.122V46.244ZM190.44 51.424C191.798 51.158 193.856 50.682 195.816 50.234L195.914 51.06C194.122 51.522 192.232 51.998 190.804 52.334L190.44 51.424ZM190.692 48.806L191.112 48.134C192.344 48.372 193.926 48.876 194.752 49.31L194.332 50.066C193.52 49.632 191.938 49.086 190.692 48.806ZM196.068 42.632L197.09 43.038C196.586 43.962 195.984 44.984 195.48 45.684L194.598 45.306C195.088 44.592 195.732 43.458 196.068 42.632ZM188.914 43.108L189.796 42.716C190.398 43.5 191.028 44.578 191.266 45.292L190.328 45.754C190.104 45.026 189.502 43.934 188.914 43.108ZM195.55 46.244H196.572V53.818C196.572 54.392 196.446 54.714 196.04 54.882C195.606 55.05 194.906 55.05 193.842 55.05C193.8 54.77 193.646 54.336 193.506 54.042C194.304 54.084 195.046 54.084 195.27 54.07C195.48 54.056 195.55 54 195.55 53.804V46.244ZM192.442 42.24H193.492V46.86H192.442V42.24ZM185.26 43.164L185.876 42.436C186.702 42.898 187.864 43.57 188.452 43.976L187.808 44.83C187.248 44.382 186.114 43.668 185.26 43.164ZM184.504 47.028L185.078 46.258C185.904 46.664 187.08 47.28 187.682 47.686L187.094 48.54C186.52 48.148 185.358 47.476 184.504 47.028ZM184.98 54.224C185.722 53.16 186.828 51.312 187.64 49.716L188.41 50.402C187.668 51.886 186.688 53.636 185.862 54.938L184.98 54.224ZM200.45 44.508H209.242V43.724H199.498V43.024H210.222V45.222H200.45V44.508ZM200.128 44.508H201.066C200.968 45.292 200.842 46.16 200.702 46.762H199.764C199.904 46.118 200.058 45.25 200.128 44.508ZM200.268 46.048H210.418V46.762H200.044L200.268 46.048ZM210.11 46.048H211.09C211.09 46.048 211.076 46.272 211.062 46.398C210.978 47.154 210.894 47.56 210.684 47.77C210.516 47.924 210.292 47.994 210.012 48.008C209.774 48.022 209.284 48.022 208.78 47.98C208.766 47.784 208.682 47.49 208.584 47.308C209.018 47.336 209.41 47.35 209.564 47.35C209.718 47.35 209.802 47.336 209.872 47.266C209.97 47.154 210.04 46.86 210.11 46.174V46.048ZM202.942 42.254H203.908V44.774C203.908 46.622 203.334 48.092 199.274 48.876C199.19 48.638 198.966 48.246 198.784 48.064C202.48 47.364 202.942 46.188 202.942 44.746V42.254ZM206.078 42.254H207.072V47.728H206.078V42.254ZM201.556 49.954V50.822H208.598V49.954H201.556ZM201.556 51.48V52.362H208.598V51.48H201.556ZM201.556 48.442V49.296H208.598V48.442H201.556ZM200.534 47.756H209.648V53.034H200.534V47.756ZM206.26 53.552L206.876 52.936C208.472 53.384 210.18 53.958 211.202 54.406L210.404 55.064C209.466 54.616 207.856 54.028 206.26 53.552ZM202.9 53.048L203.838 53.482C202.704 54.126 200.912 54.756 199.512 55.12C199.344 54.924 198.98 54.518 198.742 54.336C200.198 54.056 201.892 53.58 202.9 53.048Z" fill="#464646"/>
<path d="M102.862 68.438H115.174V74.09H113.446V69.68H104.518V74.09H102.862V68.438ZM105.22 70.598H112.744V71.66H105.22V70.598ZM105.22 72.578H112.708V73.694H105.22V72.578ZM100.972 74.684H116.974V76.07H100.972V74.684ZM108.946 76.988H115.192V78.338H108.946V76.988ZM103.474 77.042H107.758V78.266H103.474V77.042ZM103.474 79.274H107.758V80.498H103.474V79.274ZM111.07 78.212C112.114 80.624 114.328 82.46 117.316 83.18C116.956 83.486 116.524 84.116 116.29 84.512C113.158 83.594 110.908 81.506 109.702 78.608L111.07 78.212ZM114.796 76.988H115.102L115.39 76.934L116.434 77.348C115.3 81.074 112.564 83.36 109.378 84.476C109.18 84.08 108.766 83.468 108.46 83.144C111.322 82.298 113.896 80.192 114.796 77.258V76.988ZM100.756 82.01C102.52 81.884 105.184 81.632 107.776 81.38L107.812 82.712C105.346 83 102.79 83.27 100.918 83.468L100.756 82.01ZM106.876 75.134H108.496V84.512H106.876V75.134ZM102.43 75.152H103.996V82.424H102.43V75.152ZM119.026 69.608H134.902V71.066H119.026V69.608ZM123.31 73.118V74.468H130.762V73.118H123.31ZM121.6 71.93H132.544V75.656H121.6V71.93ZM119.602 76.538H133.876V77.96H121.258V84.512H119.602V76.538ZM132.688 76.538H134.398V82.856C134.398 83.63 134.2 83.972 133.624 84.188C133.066 84.368 132.202 84.386 130.996 84.368C130.924 83.99 130.69 83.468 130.492 83.126C131.23 83.162 132.13 83.144 132.346 83.144C132.58 83.126 132.688 83.072 132.688 82.856V76.538ZM125.74 68.132L127.45 67.718C127.756 68.492 128.152 69.518 128.314 70.112L126.514 70.616C126.37 69.986 126.01 68.924 125.74 68.132ZM123.922 78.842H130.744V82.694H123.922V81.47H129.232V80.066H123.922V78.842ZM123.004 78.842H124.588V83.522H123.004V78.842ZM140.806 83.252C138.736 83.252 137.386 82.424 136.486 81.416L137.512 80.084C138.286 80.876 139.258 81.542 140.644 81.542C142.12 81.542 143.146 80.714 143.146 79.346C143.146 77.87 142.21 76.934 139.24 76.934V75.386C141.832 75.386 142.696 74.414 142.696 73.082C142.696 71.912 141.94 71.174 140.662 71.174C139.654 71.174 138.79 71.66 138.034 72.416L136.936 71.102C137.998 70.166 139.222 69.518 140.752 69.518C143.128 69.518 144.802 70.742 144.802 72.92C144.802 74.45 143.92 75.512 142.516 76.034V76.124C144.046 76.52 145.252 77.654 145.252 79.454C145.252 81.848 143.254 83.252 140.806 83.252ZM148.948 83.252C148.156 83.252 147.562 82.64 147.562 81.794C147.562 80.93 148.156 80.336 148.948 80.336C149.722 80.336 150.334 80.93 150.334 81.794C150.334 82.64 149.722 83.252 148.948 83.252ZM156.451 83.252C154.363 83.252 153.049 82.406 152.095 81.47L153.103 80.12C153.841 80.876 154.813 81.542 156.199 81.542C157.693 81.542 158.809 80.48 158.809 78.716C158.809 76.97 157.801 75.962 156.289 75.962C155.461 75.962 154.957 76.196 154.183 76.7L153.157 76.052L153.553 69.752H160.285V71.516H155.371L155.065 74.9C155.623 74.612 156.163 74.45 156.883 74.45C159.097 74.45 160.915 75.746 160.915 78.662C160.915 81.578 158.755 83.252 156.451 83.252ZM165.637 77.888C163.783 77.888 162.523 76.34 162.523 73.676C162.523 71.03 163.783 69.518 165.637 69.518C167.491 69.518 168.751 71.03 168.751 73.676C168.751 76.34 167.491 77.888 165.637 77.888ZM165.637 76.664C166.555 76.664 167.221 75.71 167.221 73.676C167.221 71.642 166.555 70.724 165.637 70.724C164.701 70.724 164.035 71.642 164.035 73.676C164.035 75.71 164.701 76.664 165.637 76.664ZM166.033 83.252L173.305 69.518H174.619L167.347 83.252H166.033ZM175.051 83.252C173.197 83.252 171.937 81.722 171.937 79.04C171.937 76.394 173.197 74.864 175.051 74.864C176.887 74.864 178.147 76.394 178.147 79.04C178.147 81.722 176.887 83.252 175.051 83.252ZM175.051 82.028C175.969 82.028 176.635 81.074 176.635 79.04C176.635 76.988 175.969 76.106 175.051 76.106C174.115 76.106 173.449 76.988 173.449 79.04C173.449 81.074 174.115 82.028 175.051 82.028Z" fill="#EB6022"/>
<path d="M183.566 70.328H189.134V71.736H183.566V70.328ZM183.742 74.888H188.974V76.28H183.742V74.888ZM183.23 80.52C184.75 80.152 187.022 79.528 189.214 78.904L189.406 80.248C187.39 80.856 185.23 81.48 183.63 81.96L183.23 80.52ZM191.23 73.928V75.272H196.014V73.928H191.23ZM191.23 76.456V77.8H196.014V76.456H191.23ZM191.23 71.416V72.744H196.014V71.416H191.23ZM189.822 70.168H197.502V79.08H189.822V70.168ZM193.95 78.488H195.39V82.456C195.39 82.888 195.454 82.952 195.79 82.952C195.934 82.952 196.59 82.952 196.782 82.952C197.118 82.952 197.182 82.696 197.214 81.08C197.518 81.304 198.11 81.544 198.51 81.64C198.366 83.704 198.014 84.264 196.958 84.264C196.686 84.264 195.79 84.264 195.534 84.264C194.238 84.264 193.95 83.832 193.95 82.472V78.488ZM191.166 78.824H192.654C192.382 81.544 191.614 83.432 188.254 84.456C188.094 84.088 187.71 83.496 187.406 83.208C190.382 82.424 190.942 80.968 191.166 78.824ZM185.678 70.888H187.134V80.296L185.678 80.536V70.888ZM202.622 74.216H211.022V75.624H202.622V74.216ZM200.654 77.576H213.022V78.952H200.654V77.576ZM199.918 82.552H213.79V83.944H199.918V82.552ZM205.998 74.872H207.614V83.224H205.998V74.872ZM201.886 79.624L203.118 79.112C203.726 79.96 204.382 81.144 204.638 81.912L203.326 82.472C203.086 81.72 202.478 80.504 201.886 79.624ZM210.414 79.112L211.854 79.656C211.246 80.664 210.542 81.768 209.982 82.488L208.846 82.008C209.374 81.224 210.046 80.008 210.414 79.112ZM207.406 70.248C208.91 71.96 211.87 73.656 214.478 74.424C214.126 74.744 213.662 75.352 213.422 75.736C210.814 74.808 207.902 72.904 206.158 70.872L207.406 70.248ZM206.734 69.336L208.158 69.976C206.382 72.696 203.454 74.664 200.286 75.816C200.062 75.384 199.646 74.792 199.262 74.424C202.286 73.496 205.214 71.72 206.734 69.336ZM221.038 75.208V78.488H224.462V75.208H221.038ZM219.614 73.864H225.982V79.816H219.614V73.864ZM216.078 70.104H229.614V84.344H227.982V71.64H217.646V84.344H216.078V70.104ZM216.958 82.056H228.91V83.48H216.958V82.056ZM237.566 73.912H246.254V75.016H237.566V73.912ZM239.534 71.384V72.312H244.27V71.384H239.534ZM238.27 70.472H245.598V73.24H238.27V70.472ZM241.214 69.48H242.606V74.568H241.214V69.48ZM239.694 78.216V79.016H244.062V78.216H239.694ZM239.694 79.896V80.712H244.062V79.896H239.694ZM239.694 76.552V77.352H244.062V76.552H239.694ZM238.334 75.64H245.47V81.624H238.334V75.64ZM242.51 82.296L243.406 81.528C244.478 82.168 245.678 82.984 246.398 83.576L245.262 84.36C244.622 83.768 243.486 82.92 242.51 82.296ZM240.046 81.72L241.406 82.152C240.734 83.016 239.598 83.864 238.59 84.36C238.366 84.104 237.87 83.592 237.566 83.352C238.494 82.936 239.486 82.36 240.046 81.72ZM233.118 76.552H236.43V77.64H233.118V76.552ZM233.262 74.36H237.07V79.912H233.246V78.792H235.742V75.464H233.262V74.36ZM234.366 71.08L235.006 70.04C235.854 70.488 237.086 71.176 237.71 71.592L237.054 72.76C236.462 72.312 235.246 71.576 234.366 71.08ZM234.558 69.336L235.758 69.768C234.894 71.4 233.39 73 231.918 73.992C231.822 73.704 231.486 72.968 231.294 72.648C232.542 71.864 233.838 70.648 234.558 69.336ZM234.99 80.584L236.03 80.152C236.59 81.16 237.31 82.536 237.63 83.32L236.526 83.88C236.222 83.048 235.534 81.64 234.99 80.584ZM232.206 84.328C232.142 83.992 231.918 83.368 231.71 83.064C231.982 82.952 232.318 82.712 232.318 82.12V74.36H233.63V83.288C233.63 83.288 232.206 83.88 232.206 84.328ZM232.206 84.328L232.078 83.16L232.622 82.664L236.302 81.336C236.334 81.688 236.446 82.2 236.526 82.472C233.054 83.832 232.526 84.072 232.206 84.328ZM233.55 72.52H236.318V73.544H233.55V72.52Z" fill="#464646"/>
<g clip-path="url(#clip1_27_3884)">
<g clip-path="url(#clip2_27_3884)">
<rect x="28" y="50.0215" width="42.7673" height="26.9913" rx="4" transform="rotate(-19.0494 28 50.0215)" fill="#B2D133"/>
<path d="M43.8465 65.2805C40.5181 64.3033 35.1413 64.5208 33.7791 66.7632L37.0051 76.106L86.1575 59.1341L82.9315 49.7912C77.727 50.7023 66.9517 55.176 63.0266 58.6577C58.1201 63.0099 48.007 66.5019 43.8465 65.2805Z" fill="#009983"/>
<path d="M34.501 68.8537L32.1976 62.1829C34.83 61.7131 38.8337 60.9455 42.9241 58.4791C48.0371 55.3961 50.7272 55.7848 56.9364 57.1542C61.9037 58.2498 70.3079 53.7083 73.889 51.3006L75.1084 54.8322C70.8087 55.5849 61.9067 59.2809 58.6639 62.1573C54.6104 65.7529 46.2554 68.6378 42.8182 67.6287C40.0684 66.8215 35.6263 67.0012 34.501 68.8537Z" fill="#8ECBC1"/>
<path fill-rule="evenodd" clip-rule="evenodd" d="M54.6592 45.429C54.7944 46.3816 54.4664 48.3215 52.0733 48.46C51.9662 47.6458 52.3334 45.8998 54.6592 45.429ZM48.4646 48.1241C48.3482 49.0792 48.7143 51.0122 51.1097 51.1035C51.2008 50.2874 50.7992 48.5489 48.4646 48.1241ZM46.5932 51.653C46.723 52.6064 47.5677 54.3832 49.9079 53.8636C49.7888 53.0511 48.9592 51.4714 46.5932 51.653ZM51.1818 58.365C46.3663 60.3251 43.9007 56.8316 43.2692 54.8358C48.0498 53.6269 50.4252 56.3744 51.1193 58.1072C50.177 54.0942 51.0145 51.234 51.8725 50.005C52.0306 49.7786 52.3423 49.7232 52.5687 49.8813C52.7951 50.0394 52.8505 50.3511 52.6924 50.5775C51.7573 51.9168 50.5022 56.4639 54.1664 63.0974C54.2999 63.3391 54.2122 63.6433 53.9705 63.7768C53.7288 63.9104 53.4246 63.8227 53.2911 63.5809C52.246 61.6889 51.5771 59.9409 51.1818 58.365ZM58.5208 53.1618C58.0638 54.7115 56.2116 57.4471 52.4586 55.9919C52.862 54.6733 54.6392 52.2612 58.5208 53.1618ZM56.5998 48.9204C56.4888 49.8761 55.6793 51.6693 53.3293 51.1959C53.4324 50.3812 54.2307 48.7855 56.5998 48.9204Z" fill="white"/>
</g>
<rect x="29.2716" y="50.6403" width="40.9601" height="25.2631" rx="3" transform="rotate(-19.0494 29.2716 50.6403)" stroke="white" stroke-width="2"/>
<path fill-rule="evenodd" clip-rule="evenodd" d="M83.5664 46.7823V43H79.7841L79.7841 46.7823L76.0006 46.7823V50.5647L79.7841 50.5647L79.7841 54.347H83.5664V50.5647L87.3477 50.5647V46.7823L83.5664 46.7823Z" fill="#EB6022"/>
<mask id="path-16-outside-1_27_3884" maskUnits="userSpaceOnUse" x="53.8848" y="51.6168" width="34.8777" height="33.3054" fill="black">
<rect fill="white" x="53.8848" y="51.6168" width="34.8777" height="33.3054"/>
<path fill-rule="evenodd" clip-rule="evenodd" d="M59.4344 71.4307C58.0535 68.0769 58.2409 64.2104 60.2979 60.9338C63.8526 55.2714 71.6445 53.5146 77.7014 57.0098C80.7856 58.7896 82.8252 61.5878 83.6152 64.6535C84.9961 68.0072 84.8087 71.8737 82.7517 75.1504C79.197 80.8128 71.4051 82.5696 65.3482 79.0744C62.264 77.2946 60.2244 74.4963 59.4344 71.4307Z"/>
</mask>
<path fill-rule="evenodd" clip-rule="evenodd" d="M59.4344 71.4307C58.0535 68.0769 58.2409 64.2104 60.2979 60.9338C63.8526 55.2714 71.6445 53.5146 77.7014 57.0098C80.7856 58.7896 82.8252 61.5878 83.6152 64.6535C84.9961 68.0072 84.8087 71.8737 82.7517 75.1504C79.197 80.8128 71.4051 82.5696 65.3482 79.0744C62.264 77.2946 60.2244 74.4963 59.4344 71.4307Z" fill="#FFB300"/>
<path d="M59.4344 71.4307L60.4028 71.1812L60.3855 71.114L60.3591 71.0499L59.4344 71.4307ZM60.2979 60.9338L59.451 60.4021L60.2979 60.9338ZM77.7014 57.0098L78.2012 56.1437L78.2012 56.1437L77.7014 57.0098ZM83.6152 64.6535L82.6468 64.903L82.6641 64.9702L82.6905 65.0343L83.6152 64.6535ZM82.7517 75.1504L83.5986 75.6821L82.7517 75.1504ZM65.3482 79.0744L65.848 78.2082L65.848 78.2082L65.3482 79.0744ZM60.3591 71.0499C59.0943 67.9783 59.2691 64.4534 61.1448 61.4655L59.451 60.4021C57.2127 63.9675 57.0126 68.1756 58.5098 71.8114L60.3591 71.0499ZM61.1448 61.4655C64.3926 56.2922 71.5754 54.6293 77.2016 57.876L78.2012 56.1437C71.7136 52.3999 63.3127 54.2507 59.451 60.4021L61.1448 61.4655ZM77.2016 57.876C80.0545 59.5223 81.9243 62.0991 82.6468 64.903L84.5835 64.404C83.7262 61.0766 81.5166 58.0569 78.2012 56.1437L77.2016 57.876ZM82.6905 65.0343C83.9553 68.1059 83.7805 71.6308 81.9048 74.6187L83.5986 75.6821C85.8369 72.1167 86.037 67.9086 84.5399 64.2728L82.6905 65.0343ZM81.9048 74.6187C78.657 79.792 71.4742 81.4549 65.848 78.2082L64.8484 79.9405C71.336 83.6843 79.7369 81.8335 83.5986 75.6821L81.9048 74.6187ZM65.848 78.2082C62.9951 76.5619 61.1253 73.9851 60.4028 71.1812L58.4661 71.6802C59.3234 75.0076 61.533 78.0273 64.8484 79.9405L65.848 78.2082Z" fill="white" mask="url(#path-16-outside-1_27_3884)"/>
<ellipse cx="12.6621" cy="12.1055" rx="12.6621" ry="12.1055" transform="matrix(0.866135 0.49981 -0.531693 0.846937 67.2539 52.2405)" fill="#A87100"/>
<ellipse cx="12.6621" cy="12.1055" rx="12.6621" ry="12.1055" transform="matrix(0.866135 0.49981 -0.531693 0.846937 66.7343 50.6812)" fill="#FFB300"/>
<path d="M77.2549 66.3665C76.8639 65.1987 76.2731 64.133 75.056 63.2314L76.1248 61.5289L74.7305 60.7243L73.67 62.4135C71.6667 61.5292 69.8262 61.8986 68.8409 63.468C66.862 66.6203 72.8016 69.3231 71.7162 71.0522C71.2319 71.8236 70.3102 71.8715 68.8732 71.0423C67.8204 70.4348 66.9562 69.465 66.5333 68.2244L64.7676 68.9993C65.1429 70.2849 66.3328 71.5694 67.4326 72.3491L66.3805 74.025L67.7748 74.8296L68.852 73.1138C71.0535 74.0218 72.8789 73.5532 73.8308 72.0369C75.8598 68.8048 69.8951 66.1419 70.9305 64.4927C71.4064 63.7345 72.3516 63.7726 73.4187 64.3884C74.4004 64.9549 75.0286 65.8066 75.4672 66.9294L77.2549 66.3665Z" fill="white"/>
<path d="M81.2595 69.3547C80.244 74.4705 75.006 77.7913 69.5108 76.7005C64.0157 75.6097 60.4433 70.5399 61.4588 65.4241C62.4743 60.3083 67.7123 56.9874 73.2075 58.0782C78.7027 59.1691 82.2751 64.2388 81.2595 69.3547Z" stroke="#F4CE6D"/>
</g>
<path d="M215 110C322.168 110 353.706 71.1944 355 53L355 110L215 110Z" fill="url(#paint2_linear_27_3884)" fill-opacity="0.7"/>
<path d="M225 117C332.168 117 363.706 78.1944 365 60L365 117L225 117Z" fill="url(#paint3_linear_27_3884)"/>
</g>
<rect x="10.5" y="10.5" width="344" height="99" rx="11.5" stroke="#FFB88E"/>
</g>
<defs>
<filter id="filter0_d_27_3884" x="0" y="0" width="365" height="120" filterUnits="userSpaceOnUse" color-interpolation-filters="sRGB">
<feFlood flood-opacity="0" result="BackgroundImageFix"/>
<feColorMatrix in="SourceAlpha" type="matrix" values="0 0 0 0 0 0 0 0 0 0 0 0 0 0 0 0 0 0 127 0" result="hardAlpha"/>
<feOffset/>
<feGaussianBlur stdDeviation="5"/>
<feColorMatrix type="matrix" values="0 0 0 0 0.533333 0 0 0 0 0.533333 0 0 0 0 0.533333 0 0 0 0.2 0"/>
<feBlend mode="normal" in2="BackgroundImageFix" result="effect1_dropShadow_27_3884"/>
<feBlend mode="normal" in="SourceGraphic" in2="effect1_dropShadow_27_3884" result="shape"/>
</filter>
<linearGradient id="paint0_linear_27_3884" x1="15.9092" y1="16.1259" x2="58.8382" y2="52.3925" gradientUnits="userSpaceOnUse">
<stop stop-color="#FFB88E"/>
<stop offset="1" stop-color="#FFD2B5"/>
</linearGradient>
<linearGradient id="paint1_linear_27_3884" x1="6.90923" y1="7.12587" x2="49.8382" y2="43.3925" gradientUnits="userSpaceOnUse">
<stop stop-color="#FFB88E"/>
<stop offset="1" stop-color="#FFD2B5"/>
</linearGradient>
<linearGradient id="paint2_linear_27_3884" x1="350.046" y1="105.217" x2="316.21" y2="74.5265" gradientUnits="userSpaceOnUse">
<stop stop-color="#FFB88E"/>
<stop offset="1" stop-color="#FFD3B6"/>
</linearGradient>
<linearGradient id="paint3_linear_27_3884" x1="360.046" y1="112.217" x2="326.21" y2="81.5265" gradientUnits="userSpaceOnUse">
<stop stop-color="#FFB88E"/>
<stop offset="1" stop-color="#FFD3B6"/>
</linearGradient>
<clipPath id="clip0_27_3884">
<rect x="10" y="10" width="345" height="100" rx="12" fill="white"/>
</clipPath>
<clipPath id="clip1_27_3884">
<rect width="60" height="60" fill="white" transform="translate(28 30)"/>
</clipPath>
<clipPath id="clip2_27_3884">
<rect x="28" y="50.0215" width="42.9601" height="27.2631" rx="4" transform="rotate(-19.0494 28 50.0215)" fill="white"/>
</clipPath>
</defs>
</svg>
