<svg width="365" height="120" viewBox="0 0 365 120" fill="none" xmlns="http://www.w3.org/2000/svg">
<g filter="url(#filter0_d_27_3882)">
<g clip-path="url(#clip0_27_3882)">
<rect x="10" y="10" width="345" height="100" rx="12" fill="white"/>
<path d="M177 10C49.164 10 10 34 10 83V10H177Z" fill="url(#paint0_linear_27_3882)" fill-opacity="0.6"/>
<path d="M168 1C40.164 1 1 25 1 74V1H168Z" fill="url(#paint1_linear_27_3882)" fill-opacity="0.6"/>
<circle cx="331" cy="60" r="10" fill="white"/>
<path d="M328 65.4331L332.945 60.4771L328 55.5221L329.522 54.0001L336 60.4771L329.522 66.9551L328 65.4331Z" fill="#0282B9"/>
<path d="M104.494 47.658L105.376 47.434C105.768 48.344 106.188 49.534 106.328 50.248L105.404 50.542C105.264 49.8 104.886 48.596 104.494 47.658ZM103.094 51.368L103.962 51.158C104.172 52.082 104.368 53.286 104.41 54.084L103.5 54.322C103.472 53.51 103.276 52.292 103.094 51.368ZM101.47 51.242L102.436 51.452C102.212 52.628 101.834 53.958 101.484 54.826C101.274 54.714 100.812 54.56 100.56 54.49C100.952 53.636 101.274 52.362 101.47 51.242ZM100.91 47.49C100.854 47.266 100.686 46.762 100.574 46.482C100.826 46.426 101.106 46.146 101.442 45.726C101.792 45.32 102.94 43.738 103.654 42.212L104.662 42.646C103.78 44.228 102.66 45.81 101.61 46.916V46.944C101.61 46.944 100.91 47.266 100.91 47.49ZM100.91 47.49L100.896 46.72L101.4 46.398L104.046 46.174C103.99 46.44 103.962 46.818 103.962 47.028C101.54 47.294 101.148 47.378 100.91 47.49ZM100.98 50.64C100.924 50.43 100.756 49.912 100.63 49.632C100.952 49.562 101.288 49.226 101.764 48.708C102.296 48.218 103.906 46.272 104.998 44.382L105.922 44.956C104.69 46.874 103.178 48.75 101.708 50.08V50.108C101.708 50.108 100.98 50.43 100.98 50.64ZM100.98 50.64L100.938 49.842L101.47 49.492L105.558 48.918C105.53 49.184 105.516 49.576 105.53 49.786C101.778 50.374 101.274 50.486 100.98 50.64ZM104.662 51.032L105.474 50.752C105.768 51.424 106.09 52.306 106.23 52.866L105.362 53.188C105.236 52.614 104.928 51.718 104.662 51.032ZM106.426 43.318H113.216V44.354H106.426V43.318ZM105.852 53.272H113.44V54.308H105.852V53.272ZM109.24 43.892H110.332V53.888H109.24V43.892ZM114.686 46.468H121.35V47.448H114.686V46.468ZM122.288 43.906H123.31V51.648H122.288V43.906ZM117.626 43.43H118.662V55.106H117.626V43.43ZM125.732 42.506H126.768V53.72C126.768 54.448 126.586 54.77 126.138 54.938C125.676 55.12 124.892 55.148 123.604 55.134C123.548 54.84 123.38 54.378 123.212 54.07C124.22 54.098 125.088 54.098 125.354 54.084C125.62 54.084 125.732 54 125.732 53.734V42.506ZM120.412 42.324L121.196 43.136C119.572 43.78 117.038 44.242 114.91 44.522C114.868 44.27 114.714 43.906 114.588 43.682C116.66 43.388 119.096 42.912 120.412 42.324ZM117.584 46.916L118.34 47.224C117.626 49.352 116.254 51.858 114.952 53.188C114.826 52.88 114.56 52.46 114.378 52.194C115.61 51.018 116.968 48.792 117.584 46.916ZM118.522 48.358C119.054 48.736 120.86 50.304 121.308 50.696L120.692 51.578C120.118 50.934 118.592 49.464 117.948 48.918L118.522 48.358ZM135.392 48.904H140.894V55.064H139.886V49.87H136.358V55.12H135.392V48.904ZM137.422 42.268H138.458V49.212H137.422V42.268ZM138.024 45.306H141.454V46.286H138.024V45.306ZM135.896 53.496H140.376V54.462H135.896V53.496ZM129.904 43.528V46.916H133.754V43.528H129.904ZM129.078 42.758H134.608V47.686H129.078V42.758ZM130.1 44.214L130.632 44.074C130.87 44.76 131.052 45.642 131.094 46.202L130.548 46.37C130.52 45.782 130.338 44.9 130.1 44.214ZM130.618 52.306L131.318 52.236C131.486 52.992 131.556 54 131.542 54.658L130.8 54.742C130.842 54.098 130.772 53.076 130.618 52.306ZM132.06 52.292L132.732 52.166C133.026 52.88 133.292 53.804 133.376 54.42L132.662 54.574C132.592 53.958 132.34 53.02 132.06 52.292ZM133.488 52.278L134.174 52.04C134.58 52.712 134.972 53.608 135.112 54.224L134.398 54.49C134.258 53.888 133.88 52.964 133.488 52.278ZM129.372 52.04L130.1 52.292C129.932 53.174 129.666 54.294 129.232 54.966L128.462 54.63C128.91 53.972 129.218 52.894 129.372 52.04ZM132.97 44.032L133.586 44.27C133.334 44.984 133.054 45.894 132.816 46.454L132.354 46.272C132.564 45.67 132.844 44.676 132.97 44.032ZM128.98 48.638H134.706V49.492H128.98V48.638ZM131.43 43.122H132.144V47.322H132.256V50.934H131.318V47.322H131.43V43.122ZM128.728 50.598H134.874V51.438H128.728V50.598ZM151.002 45.012H155.44V45.964H151.002V45.012ZM151.478 42.24L152.374 42.422C151.898 44.956 151.114 47.49 150.12 49.17C149.966 49.002 149.588 48.666 149.378 48.526C150.358 46.986 151.058 44.606 151.478 42.24ZM153.466 45.586L154.404 45.67C153.858 50.472 152.542 53.384 149.168 55.148C149.07 54.938 148.79 54.532 148.622 54.35C151.828 52.824 153.018 50.038 153.466 45.586ZM151.408 45.992C151.94 49.73 153.116 52.922 155.552 54.252C155.328 54.434 155.02 54.798 154.866 55.064C152.36 53.51 151.226 50.192 150.638 46.104L151.408 45.992ZM145.892 42.24H146.732V49.59H145.892V42.24ZM144.394 43.892V46.272H148.328V43.892H144.394ZM143.568 43.15H149.196V47H143.568V43.15ZM144.142 48.288V49.226H148.552V48.288H144.142ZM143.246 47.616H149.476V49.898H143.246V47.616ZM142.602 44.606H143.918V44.648H148.594V44.606H149.994V45.418H148.594V45.376H143.918V45.418H142.602V44.606ZM143.568 52.81C144.226 51.942 145.038 50.612 145.486 49.52L146.368 49.716C145.878 50.85 145.066 52.166 144.478 52.978L143.568 52.81ZM143.568 52.81L144.268 52.222C145.892 52.656 147.908 53.496 149.042 54.126L148.356 54.756C147.264 54.098 145.234 53.244 143.568 52.81ZM147.6 50.234H148.468V50.724C148.468 52.166 147.95 54.084 142.966 55.106C142.882 54.91 142.672 54.588 142.504 54.406C147.208 53.482 147.6 51.816 147.6 50.696V50.234ZM142.616 50.794H149.882V51.564H142.616V50.794ZM157.344 44.886H168.684V45.936H157.344V44.886ZM156.742 53.482H169.244V54.532H156.742V53.482ZM159.29 46.944L160.326 46.692C160.9 48.582 161.488 50.976 161.726 52.6L160.62 52.866C160.41 51.27 159.822 48.806 159.29 46.944ZM165.674 46.706L166.85 46.902C166.22 49.212 165.282 52.152 164.512 53.93L163.476 53.706C164.274 51.914 165.184 48.834 165.674 46.706ZM161.992 42.436L163 42.17C163.294 42.884 163.602 43.794 163.742 44.41L162.664 44.732C162.552 44.116 162.258 43.164 161.992 42.436ZM171.876 45.754H176.258V46.706H171.876V45.754ZM171.862 42.982H176.888V49.604H171.862V48.652H175.838V43.934H171.862V42.982ZM171.344 54.7L171.26 53.748L171.722 53.314L175.81 51.984C175.88 52.278 176.006 52.656 176.09 52.88C172.156 54.266 171.652 54.462 171.344 54.7ZM174.396 50.752L175.292 50.318C176.02 51.452 176.874 52.978 177.266 53.916L176.314 54.434C175.95 53.496 175.11 51.914 174.396 50.752ZM171.344 54.7C171.274 54.406 171.078 53.902 170.896 53.636C171.148 53.524 171.498 53.272 171.498 52.74V42.982H172.562V53.762C172.562 53.762 171.344 54.28 171.344 54.7ZM181.746 43.08H182.782V51.144C182.782 51.718 182.67 52.026 182.278 52.208C181.9 52.376 181.256 52.39 180.248 52.39C180.206 52.096 180.08 51.662 179.926 51.382C180.654 51.41 181.298 51.41 181.494 51.396C181.69 51.382 181.746 51.326 181.746 51.144V43.08ZM178.162 43.08H182.32V44.046H179.212V55.134H178.162V43.08ZM185.344 49.562H191.91V50.486H185.344V49.562ZM188.102 48.05H189.096V53.468H188.102V48.05ZM184.868 53.426C186.632 53.146 189.418 52.642 192.05 52.138L192.106 53.062C189.614 53.552 186.94 54.07 185.106 54.42L184.868 53.426ZM184.98 43.164H192.19V44.102H184.98V43.164ZM189.306 45.012L190.062 44.55C190.846 45.502 191.784 46.776 192.19 47.574L191.392 48.106C190.986 47.294 190.076 45.978 189.306 45.012ZM192.974 43.458H193.954V51.942H192.974V43.458ZM195.746 42.478H196.768V53.482C196.768 54.14 196.6 54.462 196.194 54.63C195.746 54.798 195.004 54.826 193.982 54.826C193.94 54.546 193.758 54.07 193.604 53.776C194.416 53.804 195.186 53.804 195.438 53.804C195.676 53.79 195.746 53.72 195.746 53.482V42.478ZM185.652 47.854C185.596 47.63 185.442 47.14 185.316 46.874C185.526 46.832 185.736 46.58 185.988 46.244C186.24 45.908 187.038 44.634 187.5 43.402L188.522 43.808C187.92 45.082 187.08 46.398 186.31 47.294V47.308C186.31 47.308 185.652 47.63 185.652 47.854ZM185.652 47.854L185.638 47.098L186.198 46.762L190.902 46.37C191.014 46.636 191.224 46.972 191.35 47.182C186.562 47.644 186.002 47.7 185.652 47.854ZM209.158 42.268L209.942 43.122C207.408 43.864 203.264 44.242 199.862 44.382C199.834 44.116 199.708 43.696 199.61 43.458C202.942 43.304 207.03 42.926 209.158 42.268ZM199.624 46.216H210.544V47.224H199.624V46.216ZM198.686 49.506H211.328V50.528H198.686V49.506ZM204.468 43.752H205.56V53.664C205.56 54.406 205.336 54.728 204.804 54.896C204.272 55.064 203.362 55.092 201.878 55.078C201.808 54.784 201.612 54.308 201.444 54.028C202.606 54.07 203.726 54.056 204.034 54.042C204.356 54.042 204.468 53.944 204.468 53.65V43.752Z" fill="#464646"/>
<path d="M103.488 82.024H112.416V83.496H103.488V82.024ZM102.736 77.464H113.248V84.312H111.632V78.904H104.272V84.344H102.736V77.464ZM109.456 71.96L110.64 71.16C112.16 72.536 114.064 74.52 114.896 75.864L113.616 76.792C112.832 75.448 111.008 73.4 109.456 71.96ZM102.016 76.232C101.952 75.928 101.696 75.16 101.52 74.76C101.92 74.68 102.32 74.344 102.848 73.832C103.424 73.304 105.248 71.304 106.432 69.352L107.952 70.008C106.448 72.104 104.64 74.072 102.96 75.448V75.496C102.96 75.496 102.016 75.944 102.016 76.232ZM102.016 76.232L102 75.048L103.072 74.504L113.136 74.088C113.152 74.504 113.216 75.128 113.28 75.448C103.824 75.944 102.768 75.976 102.016 76.232ZM124 72.44H127.008V73.208H124V72.44ZM124 73.656H127.008V74.424H124V73.656ZM121.648 81.032H129.76V81.992H121.648V81.032ZM123.52 71.096H127.376V71.944H123.52V71.096ZM124.896 75.688V76.584H126.048V75.688H124.896ZM123.968 74.936H127.008V77.336H123.968V74.936ZM121.92 79.448H128.576V78.744H120.944V77.832H129.984V80.344H121.92V79.448ZM121.488 79.448H122.88C122.672 80.328 122.416 81.304 122.192 81.992H120.784C121.04 81.272 121.296 80.28 121.488 79.448ZM129.296 81.032H130.72C130.72 81.032 130.688 81.416 130.624 81.592C130.352 82.936 130.048 83.64 129.6 83.992C129.248 84.264 128.864 84.328 128.272 84.344C127.776 84.344 126.8 84.344 125.792 84.296C125.76 83.96 125.6 83.48 125.376 83.16C126.368 83.256 127.424 83.272 127.84 83.272C128.176 83.272 128.352 83.256 128.528 83.144C128.816 82.936 129.056 82.344 129.28 81.192L129.296 81.032ZM116.832 70.712L117.696 69.704C118.512 70.152 119.504 70.84 120 71.368L119.072 72.504C118.624 71.96 117.632 71.208 116.832 70.712ZM116.48 74.984L117.328 73.944C118.144 74.344 119.184 75 119.68 75.496L118.8 76.648C118.336 76.152 117.296 75.432 116.48 74.984ZM116.816 83.384C117.408 82.136 118.224 80.088 118.832 78.248L120.016 79.032C119.488 80.712 118.8 82.648 118.16 84.168L116.816 83.384ZM122.336 73.224L123.024 72.984C123.328 73.496 123.664 74.184 123.76 74.6L123.072 74.92C122.944 74.472 122.64 73.752 122.336 73.224ZM122.464 75.304L123.12 75.08C123.376 75.608 123.616 76.312 123.664 76.776L122.976 77.064C122.912 76.6 122.704 75.864 122.464 75.304ZM120.176 75.368L120.976 75.56C120.832 76.344 120.592 77.192 120.288 77.752C120.144 77.608 119.792 77.384 119.6 77.272C119.904 76.744 120.064 76.04 120.176 75.368ZM120.096 72.728C120.048 72.584 119.888 72.232 119.776 72.056C119.984 72.024 120.112 71.864 120.272 71.624C120.448 71.416 121.024 70.472 121.264 69.624L122.16 69.928C121.776 70.808 121.2 71.72 120.64 72.344V72.36C120.64 72.36 120.096 72.584 120.096 72.728ZM120.096 72.728L120.064 72.056L120.608 71.784L122.432 71.688C122.368 71.928 122.304 72.264 122.304 72.456C120.688 72.584 120.304 72.648 120.096 72.728ZM120.128 74.904C120.096 74.76 119.936 74.392 119.824 74.216C120.08 74.168 120.288 73.96 120.576 73.656C120.896 73.352 121.872 72.136 122.432 70.984L123.28 71.368C122.592 72.488 121.68 73.672 120.752 74.488V74.52C120.752 74.52 120.128 74.744 120.128 74.904ZM120.128 74.904L120.08 74.2L120.576 73.928L123.056 73.656C123.088 73.864 123.152 74.2 123.232 74.376C120.816 74.696 120.384 74.792 120.128 74.904ZM121.248 75.528L121.968 75.352C122.16 75.96 122.304 76.728 122.32 77.208L121.568 77.464C121.552 76.952 121.424 76.152 121.248 75.528ZM124.576 69.88L125.584 69.656C125.824 70.024 126.096 70.584 126.224 70.904L125.168 71.192C125.072 70.824 124.8 70.28 124.576 69.88ZM129.856 73.208L130.528 72.968C130.864 73.496 131.2 74.216 131.328 74.664L130.624 74.952C130.496 74.488 130.176 73.768 129.856 73.208ZM129.968 75.288L130.624 75.048C130.928 75.688 131.2 76.52 131.28 77.048L130.576 77.352C130.512 76.808 130.256 75.944 129.968 75.288ZM127.696 75.304L128.496 75.496C128.352 76.28 128.112 77.128 127.808 77.704C127.664 77.544 127.328 77.32 127.12 77.208C127.424 76.68 127.584 75.976 127.696 75.304ZM127.616 72.712C127.568 72.568 127.408 72.216 127.312 72.024C127.488 72.008 127.632 71.848 127.792 71.608C127.968 71.384 128.528 70.456 128.784 69.592L129.664 69.928C129.312 70.776 128.72 71.688 128.16 72.312V72.328C128.16 72.328 127.616 72.568 127.616 72.712ZM127.616 72.712L127.584 72.04L128.128 71.768L129.936 71.672C129.872 71.912 129.824 72.248 129.824 72.44C128.208 72.568 127.824 72.632 127.616 72.712ZM127.664 74.888C127.616 74.728 127.456 74.376 127.344 74.184C127.6 74.152 127.824 73.944 128.096 73.624C128.416 73.336 129.376 72.12 129.936 70.968L130.8 71.336C130.112 72.472 129.2 73.64 128.272 74.472V74.488C128.272 74.488 127.664 74.728 127.664 74.888ZM127.664 74.888L127.6 74.184L128.096 73.912L130.576 73.624C130.608 73.848 130.688 74.168 130.752 74.344C128.336 74.68 127.904 74.776 127.664 74.888ZM128.736 75.528L129.44 75.336C129.664 76.008 129.824 76.856 129.84 77.368L129.072 77.624C129.072 77.08 128.928 76.2 128.736 75.528ZM133.536 83V71.224H137.12C139.744 71.224 141.616 72.12 141.616 74.792C141.616 77.368 139.744 78.536 137.184 78.536H135.408V83H133.536ZM135.408 77.048H137.008C138.88 77.048 139.776 76.328 139.776 74.792C139.776 73.224 138.816 72.728 136.928 72.728H135.408V77.048ZM145.05 83.224C143.546 83.224 142.474 82.216 142.474 80.664C142.474 78.776 144.074 77.8 147.722 77.4C147.706 76.376 147.338 75.48 146.058 75.48C145.13 75.48 144.25 75.912 143.514 76.392L142.826 75.128C143.722 74.568 144.97 73.976 146.378 73.976C148.57 73.976 149.578 75.368 149.578 77.72V83H148.058L147.914 82.008H147.85C147.05 82.696 146.106 83.224 145.05 83.224ZM145.626 81.752C146.394 81.752 147.002 81.4 147.722 80.728V78.584C145.114 78.888 144.25 79.544 144.25 80.536C144.25 81.4 144.842 81.752 145.626 81.752ZM152.589 86.68C152.141 86.68 151.789 86.616 151.485 86.504L151.837 85.064C151.997 85.128 152.253 85.192 152.477 85.192C153.421 85.192 153.997 84.488 154.317 83.544L154.493 82.936L151.005 74.2H152.893L154.509 78.728C154.781 79.512 155.037 80.392 155.325 81.224H155.405C155.613 80.408 155.853 79.544 156.077 78.728L157.501 74.2H159.293L156.061 83.544C155.373 85.416 154.445 86.68 152.589 86.68ZM169.228 81.464H173.468V82.92H169.228V81.464ZM160.316 72.456H166.348V73.944H160.316V72.456ZM168.556 71.416H174.172V83.96H172.652V72.888H170.012V84.072H168.556V71.416ZM165.964 72.456H167.42C167.42 72.456 167.42 72.984 167.42 73.192C167.292 80.184 167.18 82.584 166.668 83.304C166.348 83.768 166.028 83.928 165.532 84.008C165.068 84.088 164.348 84.088 163.612 84.04C163.596 83.608 163.436 82.952 163.18 82.52C163.884 82.584 164.524 82.584 164.812 82.584C165.052 82.6 165.212 82.536 165.356 82.312C165.708 81.832 165.836 79.496 165.964 72.808V72.456ZM162.428 69.72H163.916C163.9 75.8 163.82 81.256 161.02 84.36C160.78 84.008 160.268 83.512 159.884 83.288C162.476 80.472 162.412 75.432 162.428 69.72ZM176.204 70.184H182.172V71.56H176.204V70.184ZM177.948 75.224H181.628V82.344H177.948V81.032H180.3V76.552H177.948V75.224ZM178.06 70.888L179.484 71.096C179.004 74.504 178.172 77.768 176.652 79.896C176.508 79.56 176.076 78.824 175.804 78.488C177.052 76.696 177.692 73.848 178.06 70.888ZM177.292 75.224H178.604V83.64H177.292V75.224ZM183.516 72.664H189.964V73.864H183.516V72.664ZM183.516 75.096H189.964V76.312H183.516V75.096ZM182.78 77.592H189.756V78.92H182.78V77.592ZM186.092 70.824H187.452V78.136H186.092V70.824ZM184.124 80.12L185.132 79.976C185.324 80.92 185.436 82.12 185.42 82.904L184.348 83.08C184.38 82.28 184.284 81.064 184.124 80.12ZM185.804 80.008L186.748 79.752C187.068 80.52 187.356 81.528 187.468 82.184L186.476 82.472C186.38 81.816 186.108 80.792 185.804 80.008ZM187.404 79.672L188.188 79.352C188.62 79.928 189.036 80.712 189.228 81.208L188.38 81.592C188.204 81.064 187.804 80.28 187.404 79.672ZM182.556 79.544L183.676 79.832C183.532 81.224 183.244 82.728 182.492 83.624L181.436 83.048C182.108 82.232 182.412 80.856 182.556 79.544ZM182.78 70.136H190.38V71.448H184.172V78.28H182.78V70.136ZM189.308 77.592H190.7C190.7 77.592 190.684 77.992 190.668 78.184C190.508 81.912 190.332 83.336 189.916 83.832C189.628 84.168 189.324 84.296 188.892 84.344C188.508 84.376 187.836 84.392 187.132 84.36C187.116 83.96 186.972 83.416 186.748 83.048C187.388 83.112 187.98 83.128 188.22 83.128C188.46 83.128 188.588 83.08 188.732 82.936C189.004 82.616 189.18 81.32 189.308 77.832V77.592Z" fill="#464646"/>
<path d="M198.405 68.438H210.717V74.09H208.989V69.68H200.061V74.09H198.405V68.438ZM200.763 70.598H208.287V71.66H200.763V70.598ZM200.763 72.578H208.251V73.694H200.763V72.578ZM196.515 74.684H212.517V76.07H196.515V74.684ZM204.489 76.988H210.735V78.338H204.489V76.988ZM199.017 77.042H203.301V78.266H199.017V77.042ZM199.017 79.274H203.301V80.498H199.017V79.274ZM206.613 78.212C207.657 80.624 209.871 82.46 212.859 83.18C212.499 83.486 212.067 84.116 211.833 84.512C208.701 83.594 206.451 81.506 205.245 78.608L206.613 78.212ZM210.339 76.988H210.645L210.933 76.934L211.977 77.348C210.843 81.074 208.107 83.36 204.921 84.476C204.723 84.08 204.309 83.468 204.003 83.144C206.865 82.298 209.439 80.192 210.339 77.258V76.988ZM196.299 82.01C198.063 81.884 200.727 81.632 203.319 81.38L203.355 82.712C200.889 83 198.333 83.27 196.461 83.468L196.299 82.01ZM202.419 75.134H204.039V84.512H202.419V75.134ZM197.973 75.152H199.539V82.424H197.973V75.152ZM214.569 69.608H230.445V71.066H214.569V69.608ZM218.853 73.118V74.468H226.305V73.118H218.853ZM217.143 71.93H228.087V75.656H217.143V71.93ZM215.145 76.538H229.419V77.96H216.801V84.512H215.145V76.538ZM228.231 76.538H229.941V82.856C229.941 83.63 229.743 83.972 229.167 84.188C228.609 84.368 227.745 84.386 226.539 84.368C226.467 83.99 226.233 83.468 226.035 83.126C226.773 83.162 227.673 83.144 227.889 83.144C228.123 83.126 228.231 83.072 228.231 82.856V76.538ZM221.283 68.132L222.993 67.718C223.299 68.492 223.695 69.518 223.857 70.112L222.057 70.616C221.913 69.986 221.553 68.924 221.283 68.132ZM219.465 78.842H226.287V82.694H219.465V81.47H224.775V80.066H219.465V78.842ZM218.547 78.842H220.131V83.522H218.547V78.842ZM236.367 83.252C234.279 83.252 232.965 82.406 232.011 81.47L233.019 80.12C233.757 80.876 234.729 81.542 236.115 81.542C237.609 81.542 238.725 80.48 238.725 78.716C238.725 76.97 237.717 75.962 236.205 75.962C235.377 75.962 234.873 76.196 234.099 76.7L233.073 76.052L233.469 69.752H240.201V71.516H235.287L234.981 74.9C235.539 74.612 236.079 74.45 236.799 74.45C239.013 74.45 240.831 75.746 240.831 78.662C240.831 81.578 238.671 83.252 236.367 83.252ZM246.939 83.252C244.329 83.252 242.655 80.93 242.655 76.322C242.655 71.75 244.329 69.518 246.939 69.518C249.531 69.518 251.223 71.75 251.223 76.322C251.223 80.93 249.531 83.252 246.939 83.252ZM246.939 81.596C248.289 81.596 249.225 80.156 249.225 76.322C249.225 72.542 248.289 71.138 246.939 71.138C245.589 71.138 244.635 72.542 244.635 76.322C244.635 80.156 245.589 81.596 246.939 81.596ZM255.818 77.888C253.964 77.888 252.704 76.34 252.704 73.676C252.704 71.03 253.964 69.518 255.818 69.518C257.672 69.518 258.932 71.03 258.932 73.676C258.932 76.34 257.672 77.888 255.818 77.888ZM255.818 76.664C256.736 76.664 257.402 75.71 257.402 73.676C257.402 71.642 256.736 70.724 255.818 70.724C254.882 70.724 254.216 71.642 254.216 73.676C254.216 75.71 254.882 76.664 255.818 76.664ZM256.214 83.252L263.486 69.518H264.8L257.528 83.252H256.214ZM265.232 83.252C263.378 83.252 262.118 81.722 262.118 79.04C262.118 76.394 263.378 74.864 265.232 74.864C267.068 74.864 268.328 76.394 268.328 79.04C268.328 81.722 267.068 83.252 265.232 83.252ZM265.232 82.028C266.15 82.028 266.816 81.074 266.816 79.04C266.816 76.988 266.15 76.106 265.232 76.106C264.296 76.106 263.63 76.988 263.63 79.04C263.63 81.074 264.296 82.028 265.232 82.028Z" fill="#EB6022"/>
<path d="M34 46.4375C35.5833 46.6354 39.1062 47.8625 40.5312 51.1875" stroke="#FFC738" stroke-linecap="round"/>
<path d="M81.5 40.5C79.9167 40.6979 76.3938 41.925 74.9688 45.25" stroke="#FFC738" stroke-linecap="round"/>
<path d="M39.7473 35.1479C39.8072 34.9636 40.0678 34.9636 40.1277 35.1479L41.0923 38.1167C41.1191 38.1991 41.1959 38.2549 41.2826 38.2549H44.4042C44.5979 38.2549 44.6785 38.5029 44.5217 38.6167L41.9963 40.4516C41.9262 40.5025 41.8969 40.5928 41.9236 40.6752L42.8883 43.644C42.9481 43.8283 42.7372 43.9815 42.5805 43.8676L40.0551 42.0328C39.985 41.9819 39.89 41.9819 39.8199 42.0328L37.2945 43.8676C37.1378 43.9815 36.9269 43.8283 36.9867 43.644L37.9514 40.6752C37.9781 40.5928 37.9488 40.5025 37.8787 40.4516L35.3533 38.6167C35.1965 38.5029 35.2771 38.2549 35.4708 38.2549H38.5924C38.6791 38.2549 38.7559 38.1991 38.7827 38.1167L39.7473 35.1479Z" fill="#FFC738"/>
<path d="M76.5598 31.5854C76.6197 31.4011 76.8803 31.4011 76.9402 31.5854L77.3716 32.9132C77.3984 32.9956 77.4752 33.0514 77.5618 33.0514H78.9579C79.1517 33.0514 79.2322 33.2993 79.0755 33.4132L77.946 34.2338C77.8759 34.2847 77.8466 34.375 77.8734 34.4574L78.3048 35.7851C78.3646 35.9694 78.1538 36.1226 77.997 36.0087L76.8676 35.1881C76.7975 35.1372 76.7025 35.1372 76.6324 35.1881L75.503 36.0087C75.3462 36.1226 75.1354 35.9694 75.1952 35.7851L75.6266 34.4574C75.6534 34.375 75.6241 34.2847 75.554 34.2338L74.4245 33.4132C74.2678 33.2993 74.3483 33.0514 74.5421 33.0514H75.9382C76.0248 33.0514 76.1016 32.9956 76.1284 32.9132L76.5598 31.5854Z" fill="#FFC738"/>
<path d="M75.6952 81.8295C75.6952 85.7805 68.569 88.4331 59.4385 88.4331C50.308 88.4331 42.9062 84.4048 42.9062 80.4537C42.9062 76.5027 50.308 73.2998 59.4385 73.2998C68.569 73.2998 75.6952 77.8785 75.6952 81.8295Z" fill="#A3A3A3" fill-opacity="0.6"/>
<mask id="path-14-outside-1_27_3882" maskUnits="userSpaceOnUse" x="37.4336" y="37.9727" width="43" height="49" fill="black">
<rect fill="white" x="37.4336" y="37.9727" width="43" height="49"/>
<path fill-rule="evenodd" clip-rule="evenodd" d="M68.7586 49.1341C72.4521 48.6479 72.1339 43.9977 68.3771 44.0862C68.3771 44.0862 69.5633 40.9975 66.7264 40.2814C65.1251 39.8772 64.3857 40.5388 63.8981 40.9751C63.5219 41.3117 63.2954 41.5143 62.9386 40.9901C62.1191 39.7863 57.9464 39.0754 56.1471 42.2606C51.3413 38.8777 49.6368 43.4786 49.6368 43.4786C49.6368 43.4786 45.408 42.2937 43.9402 44.5444C42.4724 46.7951 44.3178 48.5932 47.1834 49.4904C48.0875 49.7735 48.7337 49.8748 49.2176 49.9097C49.5907 50.796 49.4331 51.7462 49.1514 52.4703C48.8146 52.7484 48.5087 53.0604 48.2159 53.4055C48.1013 53.5035 47.9734 53.6104 47.834 53.7269C45.8935 55.348 41.7165 58.8375 39.9198 66.472C38.9849 70.4444 37.1049 84.1156 59.6762 84.1156C78.347 84.1156 79.9195 70.6956 77.5491 65.4162C76.0785 60.9817 72.3619 55.6236 67.8506 52.9856C67.8791 52.913 67.8873 52.841 67.8739 52.7701C67.654 51.6075 67.4977 50.1804 67.5353 49.1921C67.8876 49.2099 68.2918 49.1956 68.7586 49.1341Z"/>
</mask>
<path fill-rule="evenodd" clip-rule="evenodd" d="M68.7586 49.1341C72.4521 48.6479 72.1339 43.9977 68.3771 44.0862C68.3771 44.0862 69.5633 40.9975 66.7264 40.2814C65.1251 39.8772 64.3857 40.5388 63.8981 40.9751C63.5219 41.3117 63.2954 41.5143 62.9386 40.9901C62.1191 39.7863 57.9464 39.0754 56.1471 42.2606C51.3413 38.8777 49.6368 43.4786 49.6368 43.4786C49.6368 43.4786 45.408 42.2937 43.9402 44.5444C42.4724 46.7951 44.3178 48.5932 47.1834 49.4904C48.0875 49.7735 48.7337 49.8748 49.2176 49.9097C49.5907 50.796 49.4331 51.7462 49.1514 52.4703C48.8146 52.7484 48.5087 53.0604 48.2159 53.4055C48.1013 53.5035 47.9734 53.6104 47.834 53.7269C45.8935 55.348 41.7165 58.8375 39.9198 66.472C38.9849 70.4444 37.1049 84.1156 59.6762 84.1156C78.347 84.1156 79.9195 70.6956 77.5491 65.4162C76.0785 60.9817 72.3619 55.6236 67.8506 52.9856C67.8791 52.913 67.8873 52.841 67.8739 52.7701C67.654 51.6075 67.4977 50.1804 67.5353 49.1921C67.8876 49.2099 68.2918 49.1956 68.7586 49.1341Z" fill="#D94916"/>
<path d="M68.3771 44.0862L66.5101 43.3692L65.4399 46.156L68.4243 46.0856L68.3771 44.0862ZM68.7586 49.1341L69.0196 51.117L69.0196 51.117L68.7586 49.1341ZM66.7264 40.2814L66.237 42.2206L66.237 42.2206L66.7264 40.2814ZM63.8981 40.9751L62.5645 39.4847L62.5644 39.4847L63.8981 40.9751ZM62.9386 40.9901L61.2853 42.1155L61.2853 42.1155L62.9386 40.9901ZM56.1471 42.2606L54.9959 43.8961L56.8022 45.1675L57.8885 43.2443L56.1471 42.2606ZM49.6368 43.4786L49.0972 45.4044L50.872 45.9017L51.5122 44.1734L49.6368 43.4786ZM43.9402 44.5444L42.265 43.4518L42.265 43.4518L43.9402 44.5444ZM47.1834 49.4904L46.5858 51.3991L46.5858 51.3991L47.1834 49.4904ZM49.2176 49.9097L51.0609 49.1337L50.5849 48.0031L49.3614 47.9149L49.2176 49.9097ZM49.1514 52.4703L50.4249 54.0124L50.8265 53.6808L51.0153 53.1954L49.1514 52.4703ZM48.2159 53.4055L49.5158 54.9254L49.6373 54.8215L49.7408 54.6996L48.2159 53.4055ZM47.834 53.7269L46.5517 52.192L46.5517 52.192L47.834 53.7269ZM39.9198 66.472L37.9729 66.0139L37.9729 66.0139L39.9198 66.472ZM77.5491 65.4162L75.6508 66.0457L75.6828 66.1424L75.7246 66.2353L77.5491 65.4162ZM67.8506 52.9856L65.9889 52.2547L65.3634 53.8481L66.841 54.7121L67.8506 52.9856ZM67.8739 52.7701L65.9088 53.1418L65.9088 53.1418L67.8739 52.7701ZM67.5353 49.1921L67.636 47.1947L65.6137 47.0927L65.5367 49.1161L67.5353 49.1921ZM68.4243 46.0856C68.9383 46.0735 69.1605 46.2197 69.2357 46.2845C69.3207 46.3578 69.3603 46.4467 69.3669 46.5386C69.3736 46.6314 69.3468 46.7331 69.2666 46.8266C69.1958 46.9093 68.9952 47.0857 68.4976 47.1513L69.0196 51.117C71.8263 50.7475 73.5266 48.6072 73.3565 46.2507C73.1854 43.8784 71.1762 42.0197 68.33 42.0868L68.4243 46.0856ZM66.237 42.2206C66.4092 42.2641 66.4974 42.3118 66.5338 42.3351C66.5526 42.3471 66.5622 42.3555 66.5659 42.359C66.5697 42.3625 66.571 42.3643 66.5714 42.3649C66.5719 42.3656 66.5738 42.3682 66.5768 42.3742C66.5799 42.3804 66.5848 42.3915 66.5903 42.4088C66.6019 42.445 66.6145 42.503 66.6201 42.5868C66.6321 42.7649 66.6074 42.9716 66.5658 43.1583C66.5465 43.2453 66.5267 43.3136 66.514 43.3543C66.5078 43.3742 66.5036 43.3864 66.5025 43.3895C66.5019 43.391 66.5022 43.3902 66.5034 43.3869C66.504 43.3852 66.5049 43.3829 66.506 43.38C66.5065 43.3785 66.5072 43.3769 66.5078 43.3751C66.5082 43.3742 66.5085 43.3733 66.5089 43.3723C66.5091 43.3718 66.5094 43.371 66.5095 43.3708C66.5098 43.37 66.5101 43.3692 68.3771 44.0862C70.2442 44.8032 70.2445 44.8024 70.2448 44.8016C70.245 44.8013 70.2453 44.8004 70.2455 44.7998C70.2459 44.7987 70.2464 44.7974 70.2469 44.7962C70.2479 44.7936 70.2489 44.7909 70.25 44.7879C70.2522 44.782 70.2547 44.7753 70.2575 44.7678C70.263 44.7527 70.2696 44.7345 70.2771 44.7132C70.292 44.6707 70.3105 44.6158 70.3311 44.5499C70.3722 44.4188 70.4229 44.2403 70.4705 44.0265C70.5627 43.6117 70.6572 43.0014 70.6111 42.3179C70.5648 41.6312 70.3691 40.7753 69.7909 39.9912C69.1922 39.1791 68.3119 38.6189 67.2159 38.3423L66.237 42.2206ZM65.2317 42.4655C65.4794 42.2439 65.5421 42.2065 65.6048 42.1827C65.6213 42.1765 65.7831 42.106 66.237 42.2206L67.2159 38.3423C66.0685 38.0526 65.0599 38.1108 64.1844 38.4434C63.3552 38.7584 62.8044 39.27 62.5645 39.4847L65.2317 42.4655ZM61.2853 42.1155C61.5588 42.5174 62.3767 43.5286 63.772 43.2726C64.2831 43.1788 64.6478 42.9334 64.8182 42.809C64.9952 42.6799 65.1598 42.5299 65.2317 42.4655L62.5644 39.4847C62.4482 39.5886 62.4434 39.5902 62.461 39.5774C62.4721 39.5693 62.6873 39.4048 63.0502 39.3383C63.5087 39.2541 63.9455 39.3677 64.2643 39.5718C64.5119 39.7302 64.6115 39.8936 64.5918 39.8646L61.2853 42.1155ZM57.8885 43.2443C58.3804 42.3736 59.168 42.02 60.0122 41.9769C60.4461 41.9547 60.8423 42.0225 61.1269 42.1216C61.4749 42.2428 61.4257 42.3219 61.2853 42.1155L64.5918 39.8646C64.0416 39.0564 63.1635 38.5952 62.4425 38.3441C61.658 38.0709 60.7449 37.9343 59.8083 37.9821C57.9115 38.0789 55.7132 38.9624 54.4058 41.277L57.8885 43.2443ZM49.6368 43.4786C51.5122 44.1734 51.5119 44.1744 51.5115 44.1755C51.5114 44.1758 51.511 44.1768 51.5107 44.1774C51.5103 44.1787 51.5098 44.18 51.5094 44.1811C51.5085 44.1834 51.5077 44.1855 51.507 44.1873C51.5056 44.191 51.5046 44.1936 51.5039 44.1954C51.5026 44.1988 51.5026 44.1986 51.5041 44.1951C51.507 44.188 51.5155 44.168 51.5297 44.1379C51.5584 44.0766 51.6076 43.98 51.6776 43.8672C51.8259 43.6282 52.0208 43.3925 52.2458 43.2331C52.4412 43.0947 52.6677 43.0035 52.9963 43.021C53.355 43.04 54.0066 43.1997 54.9959 43.8961L57.2984 40.6252C55.8848 39.6301 54.5211 39.0963 53.2085 39.0266C51.8659 38.9553 50.7652 39.38 49.9337 39.969C49.1319 40.537 48.6003 41.24 48.2789 41.758C48.114 42.0237 47.9924 42.2601 47.9092 42.4372C47.8674 42.5263 47.8345 42.6018 47.8102 42.6604C47.798 42.6898 47.7879 42.715 47.7798 42.7357C47.7757 42.746 47.7722 42.7552 47.7691 42.7633C47.7676 42.7673 47.7662 42.771 47.7649 42.7744C47.7642 42.7762 47.7636 42.7778 47.763 42.7794C47.7627 42.7801 47.7623 42.7813 47.7622 42.7817C47.7618 42.7827 47.7614 42.7838 49.6368 43.4786ZM45.6155 45.6369C45.747 45.4352 46.1952 45.1539 47.3149 45.1673C47.7913 45.173 48.2497 45.2338 48.5968 45.2966C48.7673 45.3275 48.9034 45.3575 48.9922 45.3785C49.0365 45.3889 49.0685 45.397 49.0867 45.4017C49.0957 45.4041 49.1013 45.4056 49.1031 45.4061C49.104 45.4063 49.104 45.4063 49.103 45.4061C49.1025 45.4059 49.1018 45.4057 49.1008 45.4055C49.1003 45.4053 49.0998 45.4052 49.0992 45.405C49.0989 45.4049 49.0984 45.4048 49.0982 45.4047C49.0977 45.4046 49.0972 45.4044 49.6368 43.4786C50.1764 41.5528 50.1759 41.5526 50.1753 41.5525C50.1751 41.5524 50.1745 41.5522 50.174 41.5521C50.1732 41.5519 50.1722 41.5516 50.1713 41.5513C50.1693 41.5508 50.167 41.5502 50.1645 41.5495C50.1594 41.5481 50.1533 41.5464 50.1462 41.5445C50.1319 41.5406 50.1135 41.5357 50.0913 41.53C50.0467 41.5184 49.9865 41.5033 49.9122 41.4857C49.7641 41.4507 49.5583 41.4057 49.3094 41.3606C48.8178 41.2716 48.1273 41.1768 47.363 41.1676C46.0014 41.1513 43.6013 41.4028 42.265 43.4518L45.6155 45.6369ZM47.781 47.5818C46.5194 47.1868 45.8051 46.6805 45.5333 46.3203C45.4241 46.1755 45.4245 46.1079 45.4243 46.0949C45.4239 46.0774 45.422 45.9336 45.6155 45.6369L42.265 43.4518C41.7246 44.2805 41.4029 45.2055 41.4253 46.1861C41.4477 47.1713 41.8135 48.0314 42.3403 48.7295C43.3407 50.0554 44.9819 50.8968 46.5858 51.3991L47.781 47.5818ZM49.3614 47.9149C49.0424 47.8919 48.5484 47.8221 47.781 47.5818L46.5858 51.3991C47.6265 51.7249 48.425 51.8578 49.0738 51.9045L49.3614 47.9149ZM51.0153 53.1954C51.397 52.2143 51.7136 50.6841 51.0609 49.1337L47.3742 50.6857C47.4678 50.9079 47.4692 51.2781 47.2875 51.7451L51.0153 53.1954ZM49.7408 54.6996C49.9739 54.4249 50.1969 54.2007 50.4249 54.0124L47.8779 50.9281C47.4322 51.2961 47.0436 51.696 46.691 52.1114L49.7408 54.6996ZM49.1162 55.2617C49.2533 55.1472 49.3907 55.0325 49.5158 54.9254L46.916 51.8856C46.8119 51.9746 46.6935 52.0736 46.5517 52.192L49.1162 55.2617ZM41.8666 66.9302C43.5154 59.9241 47.2956 56.7827 49.1162 55.2617L46.5517 52.192C44.4914 53.9132 39.9176 57.7509 37.9729 66.0139L41.8666 66.9302ZM59.6762 82.1156C48.764 82.1156 44.4556 78.8322 42.7201 75.7919C40.8798 72.5683 41.425 68.8066 41.8666 66.9302L37.9729 66.0139C37.4797 68.1098 36.6174 73.17 39.2462 77.775C41.9798 82.5634 48.0171 86.1156 59.6762 86.1156V82.1156ZM75.7246 66.2353C76.651 68.2987 76.8697 72.2784 74.7922 75.7099C72.8105 78.9832 68.4971 82.1156 59.6762 82.1156V86.1156C69.5261 86.1156 75.3344 82.5379 78.214 77.7814C80.9979 73.1831 80.8176 67.813 79.3736 64.597L75.7246 66.2353ZM66.841 54.7121C70.851 57.0569 74.3006 61.9743 75.6508 66.0457L79.4474 64.7866C77.8564 59.989 73.8729 54.1903 68.8601 51.2591L66.841 54.7121ZM65.9088 53.1418C65.8442 52.8006 65.8964 52.4904 65.9889 52.2547L69.7122 53.7165C69.8618 53.3355 69.9304 52.8813 69.8391 52.3983L65.9088 53.1418ZM65.5367 49.1161C65.4912 50.3121 65.6743 51.9021 65.9088 53.1418L69.8391 52.3983C69.6338 51.3129 69.5041 50.0486 69.5338 49.2682L65.5367 49.1161ZM68.4976 47.1513C68.1395 47.1984 67.8568 47.2058 67.636 47.1947L67.4346 51.1896C67.9185 51.214 68.4442 51.1928 69.0196 51.117L68.4976 47.1513Z" fill="white" mask="url(#path-14-outside-1_27_3882)"/>
<path d="M39.9198 66.4723C41.8456 58.2892 46.5061 54.8681 48.2159 53.4058C50.3361 50.9075 53.1356 50.1407 63.4752 51.426C69.8455 52.2179 75.6232 59.6091 77.5491 65.4164C79.9195 70.6958 78.347 84.1158 59.6762 84.1158C37.1049 84.1158 38.9849 70.4447 39.9198 66.4723Z" fill="#F25C26"/>
<path fill-rule="evenodd" clip-rule="evenodd" d="M46.2842 55.1721C44.5163 63.1104 42.0445 76.5406 61.6973 80.9903C71.1145 83.1226 75.9941 79.3214 78.0205 73.1311C76.7131 78.5444 71.7985 84.2015 59.6762 84.2015C37.1049 84.2015 38.9849 70.5304 39.9198 66.558C41.3227 60.5969 44.1767 57.1629 46.2842 55.1721Z" fill="#D94916"/>
<path d="M48.7095 49.1169C50.027 50.5782 49.2585 52.5266 48.7095 53.3181C53.0514 57.3366 68.2333 54.6697 67.8739 52.7701C67.5146 50.8704 67.3249 48.2645 67.874 48.021C61.1365 46.7424 47.3919 47.6557 48.7095 49.1169Z" fill="#D94916"/>
<path d="M68.7586 49.1344C72.4521 48.6482 72.1339 43.998 68.3771 44.0865C68.3771 44.0865 69.5633 40.9978 66.7264 40.2817C63.8896 39.5656 63.758 42.1942 62.9386 40.9903C62.1191 39.7865 57.9464 39.0757 56.1471 42.2609C51.3413 38.878 49.6368 43.4789 49.6368 43.4789C49.6368 43.4789 45.408 42.2939 43.9402 44.5446C42.4724 46.7953 44.3178 48.5934 47.1834 49.4907C50.049 50.388 50.324 49.459 51.0495 50.3771C51.7751 51.2952 52.987 51.8564 55.1934 51.2388C57.3998 50.6213 57.2431 48.4543 58.5757 50.2528C59.9083 52.0513 63.0061 51.2669 64.1464 49.2106C65.2867 47.1543 65.065 49.6207 68.7586 49.1344Z" fill="#FD642E"/>
<path fill-rule="evenodd" clip-rule="evenodd" d="M57.6045 42.3124C57.8535 42.1295 58.2035 42.1613 58.3861 42.3834C58.6987 42.7636 59.0877 43.5524 59.2268 44.5658C59.3678 45.5936 59.2558 46.8801 58.5214 48.2394C58.3795 48.502 58.042 48.6195 57.7677 48.5019C57.4934 48.3842 57.386 48.076 57.5279 47.8133C58.1429 46.6752 58.2342 45.6076 58.1172 44.7547C57.9982 43.8875 57.6677 43.2691 57.4842 43.0459C57.3015 42.8237 57.3554 42.4954 57.6045 42.3124ZM62.6107 42.7757C62.8804 42.6478 63.2027 42.7628 63.3306 43.0326C63.4584 43.3023 63.3435 43.6246 63.0737 43.7525C62.7961 43.8841 62.1974 44.3137 61.6694 45.0453C61.3339 45.5103 61.034 46.0877 60.8637 46.7753C64.1977 45.1089 67.2497 46.4042 67.968 46.8031C68.2399 46.954 68.3377 47.2727 68.1864 47.5147C68.0351 47.7568 67.692 47.8307 67.4201 47.6797C66.8333 47.3538 63.8538 46.069 60.7058 48.1098C60.657 48.358 60.4381 48.5453 60.1756 48.5453C60.1075 48.5453 60.0423 48.5327 59.9823 48.5097C59.8032 48.5203 59.6173 48.4516 59.4908 48.3112C59.2878 48.086 59.3145 47.7614 59.5503 47.5863C59.5849 47.5606 59.6196 47.5353 59.6542 47.5103C59.7541 46.2257 60.2341 45.1872 60.7928 44.4128C61.413 43.5533 62.1475 42.9953 62.6107 42.7757ZM52.8703 43.6299C52.9956 43.3589 53.3167 43.2408 53.5877 43.366C54.4193 43.7504 56.0268 45.034 56.5043 47.3124C56.7473 47.4332 56.849 47.7093 56.7308 47.9564C56.6037 48.2223 56.2705 48.3541 55.9865 48.2507L55.975 48.2465C55.8932 48.2386 55.8158 48.2121 55.7476 48.1708C54.6485 47.8334 53.1201 47.748 51.715 47.8043C50.9697 47.8342 50.2811 47.903 49.7416 47.9868C49.4715 48.0288 49.2454 48.0735 49.0718 48.1171C48.9851 48.1388 48.9163 48.1591 48.8644 48.1769C48.8387 48.1858 48.8192 48.1933 48.8052 48.1992C48.7933 48.2042 48.7876 48.2072 48.7868 48.2076L48.7869 48.2075C48.515 48.3585 48.1719 48.2846 48.0206 48.0426C47.8694 47.8005 47.9671 47.4819 48.239 47.3309C48.4026 47.2401 48.6182 47.1734 48.8254 47.1214C49.0468 47.0659 49.3125 47.0143 49.6076 46.9684C50.1988 46.8765 50.9348 46.8037 51.7219 46.7722C52.8641 46.7264 54.1621 46.7654 55.2966 46.9809C54.7854 45.4479 53.6602 44.5904 53.1341 44.3472C52.8632 44.222 52.7451 43.9008 52.8703 43.6299Z" fill="#D94916"/>
<path fill-rule="evenodd" clip-rule="evenodd" d="M68.1335 51.2588C68.3001 51.7276 68.0551 52.2426 67.5864 52.4092C60.5475 54.9109 53.1551 53.9448 49.4546 52.391C48.9959 52.1984 48.7802 51.6704 48.9728 51.2117C49.1654 50.753 49.6934 50.5373 50.1521 50.7299C53.4639 52.1206 60.3924 53.0541 66.983 50.7117C67.4518 50.5451 67.9669 50.79 68.1335 51.2588Z" fill="#FFC738"/>
<path d="M58.8426 63.4121L59.8736 66.5855H63.2103L60.5109 68.5467L61.542 71.7201L58.8426 69.7589L56.1431 71.7201L57.1742 68.5467L54.4748 66.5855H57.8115L58.8426 63.4121Z" fill="white"/>
<path fill-rule="evenodd" clip-rule="evenodd" d="M58.9904 74.9437C62.9332 74.9437 66.0776 71.8085 66.0776 68.0046C66.0776 64.2007 62.9332 61.0655 58.9904 61.0655C55.0475 61.0655 51.9032 64.2007 51.9032 68.0046C51.9032 71.8085 55.0475 74.9437 58.9904 74.9437ZM58.9904 76.7453C63.8995 76.7453 67.8792 72.8319 67.8792 68.0046C67.8792 63.1772 63.8995 59.2639 58.9904 59.2639C54.0812 59.2639 50.1016 63.1772 50.1016 68.0046C50.1016 72.8319 54.0812 76.7453 58.9904 76.7453Z" fill="white"/>
<path d="M74.9902 67.6814C76.2043 67.1681 76.7867 67.9348 76.9261 68.3823C77.6641 69.5166 77.5026 73.2611 74.3878 76.8949C71.929 79.7634 68.7266 77.5608 72.6102 74.1631C75.7639 71.404 73.4726 68.3229 74.9902 67.6814Z" fill="#FF9773"/>
<path d="M215 110C322.168 110 353.706 71.1944 355 53L355 110L215 110Z" fill="url(#paint2_linear_27_3882)" fill-opacity="0.7"/>
<path d="M225 117C332.168 117 363.706 78.1944 365 60L365 117L225 117Z" fill="url(#paint3_linear_27_3882)"/>
</g>
<rect x="10.5" y="10.5" width="344" height="99" rx="11.5" stroke="#FFB88E"/>
</g>
<defs>
<filter id="filter0_d_27_3882" x="0" y="0" width="365" height="120" filterUnits="userSpaceOnUse" color-interpolation-filters="sRGB">
<feFlood flood-opacity="0" result="BackgroundImageFix"/>
<feColorMatrix in="SourceAlpha" type="matrix" values="0 0 0 0 0 0 0 0 0 0 0 0 0 0 0 0 0 0 127 0" result="hardAlpha"/>
<feOffset/>
<feGaussianBlur stdDeviation="5"/>
<feColorMatrix type="matrix" values="0 0 0 0 0.533333 0 0 0 0 0.533333 0 0 0 0 0.533333 0 0 0 0.2 0"/>
<feBlend mode="normal" in2="BackgroundImageFix" result="effect1_dropShadow_27_3882"/>
<feBlend mode="normal" in="SourceGraphic" in2="effect1_dropShadow_27_3882" result="shape"/>
</filter>
<linearGradient id="paint0_linear_27_3882" x1="15.9092" y1="16.1259" x2="58.8382" y2="52.3925" gradientUnits="userSpaceOnUse">
<stop stop-color="#FFB88E"/>
<stop offset="1" stop-color="#FFD2B5"/>
</linearGradient>
<linearGradient id="paint1_linear_27_3882" x1="6.90923" y1="7.12587" x2="49.8382" y2="43.3925" gradientUnits="userSpaceOnUse">
<stop stop-color="#FFB88E"/>
<stop offset="1" stop-color="#FFD2B5"/>
</linearGradient>
<linearGradient id="paint2_linear_27_3882" x1="350.046" y1="105.217" x2="316.21" y2="74.5265" gradientUnits="userSpaceOnUse">
<stop stop-color="#FFB88E"/>
<stop offset="1" stop-color="#FFD3B6"/>
</linearGradient>
<linearGradient id="paint3_linear_27_3882" x1="360.046" y1="112.217" x2="326.21" y2="81.5265" gradientUnits="userSpaceOnUse">
<stop stop-color="#FFB88E"/>
<stop offset="1" stop-color="#FFD3B6"/>
</linearGradient>
<clipPath id="clip0_27_3882">
<rect x="10" y="10" width="345" height="100" rx="12" fill="white"/>
</clipPath>
</defs>
</svg>
