<svg width="365" height="120" viewBox="0 0 365 120" fill="none" xmlns="http://www.w3.org/2000/svg">
<g filter="url(#filter0_d_27_3881)">
<g clip-path="url(#clip0_27_3881)">
<rect x="10" y="10" width="345" height="100" rx="12" fill="white"/>
<path d="M177 10C49.164 10 10 34 10 83V10H177Z" fill="url(#paint0_linear_27_3881)" fill-opacity="0.6"/>
<path d="M168 1C40.164 1 1 25 1 74V1H168Z" fill="url(#paint1_linear_27_3881)" fill-opacity="0.6"/>
<circle cx="331" cy="60" r="10" fill="white"/>
<path d="M328 65.4331L332.945 60.4771L328 55.5221L329.522 54.0001L336 60.4771L329.522 66.9551L328 65.4331Z" fill="#0282B9"/>
<path d="M101.288 43.598H112.754V44.494H101.288V43.598ZM101.736 53.86H112.334V54.742H101.736V53.86ZM104.046 45.418H109.94V46.216H104.046V45.418ZM104.046 47.182H109.94V47.98H104.046V47.182ZM100.63 48.988H113.356V49.87H100.63V48.988ZM103.57 51.494H110.444V52.362H103.57V51.494ZM103.416 42.254H104.466V49.478H103.416V42.254ZM109.576 42.254H110.626V49.478H109.576V42.254ZM106.426 50.318H107.504V54.35H106.426V50.318ZM104.158 49.226L105.04 49.562C104.186 51.004 102.646 52.334 101.176 53.02C101.022 52.782 100.728 52.418 100.49 52.222C101.904 51.662 103.402 50.458 104.158 49.226ZM109.884 49.226C110.626 50.416 112.082 51.522 113.538 52.04C113.3 52.236 112.992 52.6 112.838 52.852C111.354 52.222 109.87 50.92 109.058 49.548L109.884 49.226ZM117.374 46.44H124.612V47.42H117.374V46.44ZM115.582 49.324H126.432V50.29H115.582V49.324ZM114.952 53.748H127.062V54.714H114.952V53.748ZM120.398 46.874H121.518V54.238H120.398V46.874ZM116.772 50.962L117.626 50.612C118.172 51.382 118.76 52.46 118.984 53.146L118.06 53.538C117.85 52.852 117.304 51.76 116.772 50.962ZM124.248 50.598L125.242 50.99C124.724 51.886 124.094 52.894 123.576 53.552L122.778 53.202C123.268 52.516 123.898 51.396 124.248 50.598ZM121.406 42.842C122.736 44.41 125.354 45.992 127.608 46.692C127.356 46.93 127.034 47.336 126.866 47.616C124.626 46.79 122.022 45.054 120.524 43.276L121.406 42.842ZM120.986 42.114L121.952 42.562C120.44 44.872 117.878 46.664 115.134 47.658C114.98 47.364 114.686 46.958 114.42 46.706C117.066 45.852 119.642 44.2 120.986 42.114ZM134.412 46.72H135.49V55.12H134.412V46.72ZM131.234 49.086V50.304H138.85V49.086H131.234ZM131.234 47.084V48.274H138.85V47.084H131.234ZM130.212 46.23H139.914V51.144H130.212V46.23ZM128.798 52.222H141.216V53.146H128.798V52.222ZM130.786 43.5V44.83H133.474V43.5H130.786ZM129.834 42.8H134.454V45.53H129.834V42.8ZM136.54 43.5V44.83H139.256V43.5H136.54ZM135.588 42.8H140.25V45.53H135.588V42.8ZM142.686 47.756H155.328V48.568H142.686V47.756ZM143.82 51.102H154.194V51.914H143.82V51.102ZM142.924 52.796H155.104V53.636H142.924V52.796ZM144.366 46.132H153.83V50.276H144.254V49.478H152.752V46.93H144.366V46.132ZM148.412 45.362H149.49V55.12H148.412V45.362ZM144.464 43.066H148.916V43.906H144.464V43.066ZM150.134 43.08H155.384V43.92H150.134V43.08ZM144.744 42.142L145.682 42.408C145.122 43.584 144.198 44.732 143.33 45.474C143.176 45.306 142.812 44.942 142.588 44.774C143.456 44.116 144.268 43.136 144.744 42.142ZM150.358 42.142L151.324 42.394C150.876 43.5 150.078 44.564 149.266 45.25C149.098 45.082 148.692 44.76 148.468 44.606C149.266 44.004 149.966 43.094 150.358 42.142ZM145.458 44.424L146.158 43.92C146.578 44.326 147.124 44.886 147.39 45.236L146.662 45.796C146.41 45.432 145.878 44.83 145.458 44.424ZM151.576 44.41L152.304 43.92C152.738 44.312 153.284 44.858 153.55 45.208L152.794 45.782C152.556 45.404 152.024 44.816 151.576 44.41ZM158.954 46.566H167.116V47.574H158.954V46.566ZM162.986 49.87H167.704V50.864H162.986V49.87ZM162.426 47.042H163.518V54.126L162.426 53.986V47.042ZM159.136 48.708L160.2 48.82C159.808 51.648 158.94 53.776 157.358 55.162C157.19 54.98 156.756 54.63 156.504 54.462C158.072 53.258 158.828 51.256 159.136 48.708ZM159.794 50.5C160.788 53.356 162.972 53.846 165.814 53.86C166.332 53.86 168.754 53.86 169.44 53.832C169.272 54.098 169.09 54.588 169.034 54.896H165.758C162.426 54.896 160.144 54.252 158.94 50.836L159.794 50.5ZM157.148 43.822H168.852V46.888H167.774V44.83H158.184V46.888H157.148V43.822ZM161.95 42.45L162.986 42.156C163.322 42.688 163.686 43.402 163.826 43.878L162.734 44.214C162.608 43.752 162.286 43.01 161.95 42.45ZM178.54 42.94H182.432V43.906H178.54V42.94ZM178.54 46.16H182.432V47.098H178.54V46.16ZM178.526 49.422H182.46V50.374H178.526V49.422ZM181.956 42.94H182.978V53.79C182.978 54.392 182.838 54.714 182.432 54.882C182.04 55.05 181.382 55.078 180.346 55.078C180.318 54.784 180.164 54.322 180.024 54.056C180.766 54.07 181.466 54.07 181.676 54.056C181.886 54.056 181.956 53.986 181.956 53.776V42.94ZM178.106 42.94H179.1V48.022C179.1 50.178 178.932 53.202 177.672 55.19C177.49 54.994 177.07 54.686 176.832 54.588C178.008 52.712 178.106 50.052 178.106 48.022V42.94ZM170.714 44.116H177.42V45.04H170.714V44.116ZM172.366 46.286H175.908V47.14H172.366V46.286ZM172.366 48.512H175.922V49.352H172.366V48.512ZM170.532 50.766H177.42V51.704H170.532V50.766ZM171.904 42.408H172.87V51.144H171.904V42.408ZM175.418 42.408H176.384V51.144H175.418V42.408ZM172.478 52.012L173.486 52.292C172.968 53.356 172.156 54.434 171.4 55.134C171.204 54.966 170.798 54.658 170.546 54.518C171.33 53.888 172.058 52.95 172.478 52.012ZM174.494 52.446L175.306 52.012C175.852 52.642 176.51 53.51 176.79 54.084L175.936 54.588C175.67 54.028 175.04 53.104 174.494 52.446ZM186.954 46.566H195.116V47.574H186.954V46.566ZM190.986 49.87H195.704V50.864H190.986V49.87ZM190.426 47.042H191.518V54.126L190.426 53.986V47.042ZM187.136 48.708L188.2 48.82C187.808 51.648 186.94 53.776 185.358 55.162C185.19 54.98 184.756 54.63 184.504 54.462C186.072 53.258 186.828 51.256 187.136 48.708ZM187.794 50.5C188.788 53.356 190.972 53.846 193.814 53.86C194.332 53.86 196.754 53.86 197.44 53.832C197.272 54.098 197.09 54.588 197.034 54.896H193.758C190.426 54.896 188.144 54.252 186.94 50.836L187.794 50.5ZM185.148 43.822H196.852V46.888H195.774V44.83H186.184V46.888H185.148V43.822ZM189.95 42.45L190.986 42.156C191.322 42.688 191.686 43.402 191.826 43.878L190.734 44.214C190.608 43.752 190.286 43.01 189.95 42.45ZM198.868 43.598H204.776V45.964H203.936V44.466H199.666V45.964H198.868V43.598ZM199.708 50.794H204.09V55.05H203.152V51.648H200.618V55.078H199.708V50.794ZM200.072 53.776H203.754V54.63H200.072V53.776ZM200.87 44.928L201.71 45.082C201.262 46.328 200.534 47.546 199.316 48.47C199.204 48.232 198.952 47.896 198.756 47.756C199.848 46.986 200.548 45.894 200.87 44.928ZM200.954 45.908H203.474V46.72H200.618L200.954 45.908ZM203.236 45.908H203.418L203.586 45.866L204.132 46.244C203.166 48.778 201.08 50.416 198.994 51.284C198.896 51.032 198.63 50.598 198.448 50.416C200.492 49.688 202.452 48.176 203.236 46.09V45.908ZM200.996 42.562L201.836 42.254C202.088 42.758 202.396 43.444 202.536 43.878L201.654 44.256C201.528 43.808 201.234 43.094 200.996 42.562ZM205.224 42.912H211.356V43.822H205.224V42.912ZM206.596 48.19V49.492H209.9V48.19H206.596ZM206.596 50.304V51.648H209.9V50.304H206.596ZM206.596 46.076V47.364H209.9V46.076H206.596ZM205.644 45.208H210.908V52.488H205.644V45.208ZM207.828 43.36L208.822 43.542C208.612 44.326 208.374 45.166 208.192 45.74L207.394 45.53C207.548 44.928 207.744 44.004 207.828 43.36ZM207.156 52.712L207.87 53.37C207.044 54.042 205.868 54.756 204.944 55.204C204.846 54.98 204.636 54.63 204.468 54.42C205.35 54 206.526 53.286 207.156 52.712ZM208.57 53.342L209.13 52.67C209.914 53.146 210.95 53.902 211.468 54.42L210.866 55.176C210.362 54.644 209.354 53.846 208.57 53.342ZM200.128 48.232L200.73 47.588C202.032 48.33 203.852 49.45 204.804 50.122L204.174 50.878C203.278 50.192 201.472 49.03 200.128 48.232Z" fill="#464646"/>
<path d="M112.656 69.496L113.76 70.744C110.688 71.592 106 72.008 102.112 72.152C102.064 71.768 101.888 71.16 101.744 70.824C105.568 70.648 110.128 70.232 112.656 69.496ZM101.824 74.024H114.368V75.48H101.824V74.024ZM100.736 77.768H115.296V79.256H100.736V77.768ZM107.232 71.448H108.8V82.408C108.8 83.384 108.528 83.816 107.856 84.056C107.184 84.296 106.08 84.328 104.416 84.312C104.32 83.88 104.032 83.208 103.792 82.808C105.072 82.856 106.368 82.84 106.736 82.84C107.088 82.824 107.232 82.712 107.232 82.392V71.448ZM121.888 70.296H131.136V71.304H121.888V70.296ZM122.512 72.024H130.56V72.984H122.512V72.024ZM125.856 69.496H127.328V72.584H125.856V69.496ZM123.216 74.52V75.688H129.744V74.52H123.216ZM121.968 73.56H131.056V76.648H121.968V73.56ZM123.856 79.32V79.928H129.12V79.32H123.856ZM123.856 80.552V81.192H129.12V80.552H123.856ZM123.856 78.104V78.68H129.12V78.104H123.856ZM122.496 77.256H130.528V82.024H122.496V77.256ZM127.312 82.856L127.856 81.896C129.104 82.312 130.496 82.872 131.36 83.272L130.736 84.328C129.888 83.912 128.528 83.32 127.312 82.856ZM125.072 81.896L126.08 82.856C124.848 83.416 123.296 84.008 122.144 84.424C122.032 84.136 121.776 83.672 121.584 83.368C122.64 83 124.192 82.376 125.072 81.896ZM124.736 73.88H125.888V76.312H124.736V73.88ZM127.28 73.896H128.432V76.296H127.28V73.896ZM120.192 75.976L121.232 75.72C121.616 76.824 122 78.248 122.128 79.096L121.008 79.448C120.896 78.568 120.56 77.096 120.192 75.976ZM118.816 80.056L119.872 79.864C120.064 81.048 120.224 82.552 120.256 83.576L119.152 83.768C119.152 82.76 118.992 81.224 118.816 80.056ZM117.232 79.912L118.416 80.104C118.256 81.608 117.968 83.224 117.616 84.264C117.36 84.12 116.8 83.944 116.48 83.864C116.864 82.824 117.088 81.304 117.232 79.912ZM116.944 75.656C116.864 75.384 116.656 74.76 116.512 74.408C116.784 74.344 117.04 74.008 117.344 73.528C117.664 73.064 118.64 71.224 119.2 69.48L120.464 69.992C119.744 71.768 118.736 73.64 117.776 74.92V74.952C117.776 74.952 116.944 75.384 116.944 75.656ZM116.944 75.656L116.896 74.584L117.552 74.184L120.288 73.96C120.224 74.328 120.176 74.856 120.176 75.144C117.696 75.416 117.232 75.512 116.944 75.656ZM117.056 79.304C116.976 79.032 116.768 78.392 116.608 78.04C116.96 77.96 117.296 77.56 117.76 76.952C118.256 76.376 119.808 74.04 120.752 71.848L121.92 72.536C120.816 74.728 119.344 76.984 117.888 78.584V78.632C117.888 78.632 117.056 79.032 117.056 79.304ZM117.056 79.304L116.992 78.232L117.648 77.784L121.376 77.32C121.328 77.688 121.296 78.216 121.312 78.504C117.92 79 117.376 79.128 117.056 79.304ZM120.288 79.752L121.248 79.464C121.584 80.392 121.936 81.608 122.096 82.392L121.072 82.728C120.944 81.928 120.592 80.696 120.288 79.752ZM134.816 72.04H144.64V71.256H133.696V70.312H146.016V72.984H134.816V72.04ZM134.368 72.04H135.696C135.584 72.984 135.424 74.04 135.264 74.776H133.92C134.096 74.008 134.272 72.936 134.368 72.04ZM134.56 73.816H146.08V74.776H134.272L134.56 73.816ZM145.616 73.816H147.024C147.024 73.816 147.008 74.104 147.008 74.264C146.912 75.192 146.816 75.688 146.576 75.96C146.352 76.168 146.064 76.264 145.728 76.28C145.44 76.296 144.864 76.296 144.272 76.264C144.256 75.992 144.144 75.592 144 75.336C144.464 75.368 144.848 75.384 145.024 75.384C145.184 75.384 145.28 75.368 145.376 75.272C145.488 75.144 145.552 74.808 145.616 73.976V73.816ZM137.52 69.496H138.896V72.568C138.896 74.76 138.192 76.456 133.504 77.272C133.376 76.936 133.04 76.376 132.784 76.104C136.96 75.416 137.52 74.152 137.52 72.536V69.496ZM141.072 69.496H142.512V75.848H141.072V69.496ZM136.304 78.456V79.304H143.856V78.456H136.304ZM136.304 80.168V81.032H143.856V80.168H136.304ZM136.304 76.76V77.592H143.856V76.76H136.304ZM134.832 75.848H145.392V81.944H134.832V75.848ZM141.344 82.536L142.208 81.672C144 82.2 145.952 82.888 147.136 83.4L146.016 84.328C144.944 83.8 143.136 83.096 141.344 82.536ZM137.504 81.848L138.848 82.472C137.536 83.224 135.488 83.944 133.872 84.36C133.632 84.072 133.104 83.512 132.768 83.256C134.448 82.952 136.368 82.44 137.504 81.848Z" fill="#464646"/>
<path d="M154.456 68.438H166.768V74.09H165.04V69.68H156.112V74.09H154.456V68.438ZM156.814 70.598H164.338V71.66H156.814V70.598ZM156.814 72.578H164.302V73.694H156.814V72.578ZM152.566 74.684H168.568V76.07H152.566V74.684ZM160.54 76.988H166.786V78.338H160.54V76.988ZM155.068 77.042H159.352V78.266H155.068V77.042ZM155.068 79.274H159.352V80.498H155.068V79.274ZM162.664 78.212C163.708 80.624 165.922 82.46 168.91 83.18C168.55 83.486 168.118 84.116 167.884 84.512C164.752 83.594 162.502 81.506 161.296 78.608L162.664 78.212ZM166.39 76.988H166.696L166.984 76.934L168.028 77.348C166.894 81.074 164.158 83.36 160.972 84.476C160.774 84.08 160.36 83.468 160.054 83.144C162.916 82.298 165.49 80.192 166.39 77.258V76.988ZM152.35 82.01C154.114 81.884 156.778 81.632 159.37 81.38L159.406 82.712C156.94 83 154.384 83.27 152.512 83.468L152.35 82.01ZM158.47 75.134H160.09V84.512H158.47V75.134ZM154.024 75.152H155.59V82.424H154.024V75.152ZM174.148 67.88L175.75 68.384C174.58 71.444 172.726 74.576 170.764 76.61C170.602 76.196 170.134 75.278 169.846 74.882C171.556 73.19 173.176 70.544 174.148 67.88ZM172.33 72.668L173.932 71.048L173.95 71.066V84.494H172.33V72.668ZM177.532 74.63H186.64V76.214H177.532V74.63ZM184.786 67.718L186.1 68.996C183.562 69.896 179.962 70.58 176.812 70.994C176.74 70.616 176.506 70.022 176.308 69.662C179.368 69.212 182.788 68.492 184.786 67.718ZM181.402 69.734H182.95C183.112 76.52 184.084 82.406 185.29 82.442C185.578 82.46 185.794 81.56 185.902 79.976C186.172 80.3 186.802 80.696 187.072 80.822C186.694 83.612 185.992 84.368 185.29 84.35C182.644 84.314 181.672 77.924 181.402 69.734ZM176.11 82.946L175.984 81.56L176.704 81.02L181.06 79.94C181.024 80.372 181.042 81.02 181.078 81.38C177.118 82.478 176.506 82.694 176.11 82.946ZM176.11 82.946C176.02 82.568 175.732 81.902 175.48 81.578C175.84 81.434 176.308 81.092 176.308 80.372V69.662L177.91 70.076V81.578C177.91 81.578 176.11 82.406 176.11 82.946ZM178 82.676H182.824V84.08H178V82.676ZM188.368 83V81.794C192.292 78.338 194.29 75.764 194.29 73.586C194.29 72.164 193.534 71.174 192.058 71.174C191.014 71.174 190.15 71.822 189.448 72.632L188.26 71.498C189.412 70.256 190.582 69.518 192.31 69.518C194.74 69.518 196.306 71.084 196.306 73.496C196.306 76.034 194.254 78.68 191.446 81.38C192.13 81.308 192.976 81.236 193.624 81.236H196.936V83H188.368ZM200.541 83.252C199.749 83.252 199.155 82.64 199.155 81.794C199.155 80.93 199.749 80.336 200.541 80.336C201.315 80.336 201.927 80.93 201.927 81.794C201.927 82.64 201.315 83.252 200.541 83.252ZM208.045 83.252C205.957 83.252 204.643 82.406 203.689 81.47L204.697 80.12C205.435 80.876 206.407 81.542 207.793 81.542C209.287 81.542 210.403 80.48 210.403 78.716C210.403 76.97 209.395 75.962 207.883 75.962C207.055 75.962 206.551 76.196 205.777 76.7L204.751 76.052L205.147 69.752H211.879V71.516H206.965L206.659 74.9C207.217 74.612 207.757 74.45 208.477 74.45C210.691 74.45 212.509 75.746 212.509 78.662C212.509 81.578 210.349 83.252 208.045 83.252ZM229.146 67.952L230.172 69.392C227.94 70.058 224.754 70.562 222.072 70.85C222.018 70.436 221.784 69.824 221.604 69.446C224.232 69.122 227.274 68.564 229.146 67.952ZM222.45 73.82H230.82V75.44H222.45V73.82ZM226.266 74.702H227.958V84.44H226.266V74.702ZM214.062 77.204C215.736 76.808 218.274 76.124 220.65 75.458L220.866 77.024C218.67 77.672 216.294 78.356 214.512 78.842L214.062 77.204ZM214.35 71.336H220.74V72.938H214.35V71.336ZM216.726 67.808H218.4V82.55C218.4 83.432 218.22 83.882 217.698 84.134C217.158 84.404 216.366 84.44 215.142 84.44C215.088 84.008 214.854 83.306 214.638 82.874C215.412 82.91 216.15 82.892 216.384 82.892C216.636 82.874 216.726 82.802 216.726 82.568V67.808ZM221.604 69.446H223.278V75.026C223.278 78.32 222.972 81.632 221.028 84.53C220.704 84.152 220.11 83.702 219.66 83.414C221.388 80.768 221.604 77.78 221.604 75.008V69.446Z" fill="#EB6022"/>
<path fill-rule="evenodd" clip-rule="evenodd" d="M68.9717 72.3526C69.2123 71.8948 69.3389 71.4107 69.3389 70.9034C69.3389 67.2425 62.7452 63 54.2969 63C45.8487 63 39 65.9678 39 69.6287C39 72.8585 44.3308 76.1441 51.3877 76.8731C50.9578 77.4849 50.7266 78.1342 50.7266 78.8069C50.7266 82.4678 57.5752 86.2004 66.0235 86.2004C74.4717 86.2004 81.0654 83.7425 81.0654 80.0816C81.0654 76.8593 75.9569 73.1863 68.9717 72.3526Z" fill="#A3A3A3" fill-opacity="0.6"/>
<mask id="path-10-outside-1_27_3881" maskUnits="userSpaceOnUse" x="35" y="34" width="46" height="49" fill="black">
<rect fill="white" x="35" y="34" width="46" height="49"/>
<path fill-rule="evenodd" clip-rule="evenodd" d="M74.0037 44.9082C74.0448 44.6637 74.0658 44.4161 74.0658 44.1658C74.0658 39.656 67.2524 36 58.8476 36C52.9249 36 47.7924 37.8155 45.2776 40.4659C40.3627 41.8198 37 44.5667 37 47.735C37 47.9852 37.021 48.2329 37.0621 48.4774C37.021 48.722 37 48.9696 37 49.2199C37 49.4701 37.021 49.7177 37.062 49.9622C37.021 50.2066 37 50.4542 37 50.7045C37 50.9547 37.021 51.2024 37.0621 51.4469C37.021 51.6914 37 51.9391 37 52.1894C37 52.4429 37.0215 52.6937 37.0637 52.9414C37.0237 53.1827 37.0033 53.4271 37.0033 53.674C37.0033 53.9243 37.0242 54.1719 37.0653 54.4164C37.0242 54.6609 37.0033 54.9085 37.0033 55.1587C37.0033 55.4089 37.0242 55.6565 37.0653 55.901C37.0242 56.1455 37.0033 56.3931 37.0033 56.6433C37.0033 56.8935 37.0242 57.1411 37.0653 57.3856C37.0242 57.6301 37.0033 57.8777 37.0033 58.128C37.0033 58.3749 37.0237 58.6192 37.0637 58.8606C37.0215 59.1082 37 59.359 37 59.6126C37 59.8628 37.021 60.1104 37.062 60.3549C37.021 60.5994 37 60.847 37 61.0972C37 61.3474 37.021 61.595 37.062 61.8396C37.021 62.0841 37 62.3317 37 62.582C37 62.8322 37.021 63.0797 37.062 63.3242C37.021 63.5687 37 63.8163 37 64.0665C37 68.5764 43.8134 72.2323 52.2182 72.2323C55.2311 72.2323 58.0395 71.7625 60.4029 70.952C63.7874 77.7445 69.188 81.8231 73.1241 80.2577C73.3658 80.1615 73.5969 80.0462 73.8173 79.9126C74.0688 79.8583 74.3155 79.7836 74.5568 79.6876C78.9106 77.9561 79.8241 69.9746 76.597 61.8606C74.7749 57.2792 72.0224 53.6351 69.1873 51.6421C72.1877 50.1506 74.0658 48.0182 74.0658 45.6505C74.0658 45.4002 74.0448 45.1527 74.0037 44.9082Z"/>
</mask>
<path fill-rule="evenodd" clip-rule="evenodd" d="M74.0037 44.9082C74.0448 44.6637 74.0658 44.4161 74.0658 44.1658C74.0658 39.656 67.2524 36 58.8476 36C52.9249 36 47.7924 37.8155 45.2776 40.4659C40.3627 41.8198 37 44.5667 37 47.735C37 47.9852 37.021 48.2329 37.0621 48.4774C37.021 48.722 37 48.9696 37 49.2199C37 49.4701 37.021 49.7177 37.062 49.9622C37.021 50.2066 37 50.4542 37 50.7045C37 50.9547 37.021 51.2024 37.0621 51.4469C37.021 51.6914 37 51.9391 37 52.1894C37 52.4429 37.0215 52.6937 37.0637 52.9414C37.0237 53.1827 37.0033 53.4271 37.0033 53.674C37.0033 53.9243 37.0242 54.1719 37.0653 54.4164C37.0242 54.6609 37.0033 54.9085 37.0033 55.1587C37.0033 55.4089 37.0242 55.6565 37.0653 55.901C37.0242 56.1455 37.0033 56.3931 37.0033 56.6433C37.0033 56.8935 37.0242 57.1411 37.0653 57.3856C37.0242 57.6301 37.0033 57.8777 37.0033 58.128C37.0033 58.3749 37.0237 58.6192 37.0637 58.8606C37.0215 59.1082 37 59.359 37 59.6126C37 59.8628 37.021 60.1104 37.062 60.3549C37.021 60.5994 37 60.847 37 61.0972C37 61.3474 37.021 61.595 37.062 61.8396C37.021 62.0841 37 62.3317 37 62.582C37 62.8322 37.021 63.0797 37.062 63.3242C37.021 63.5687 37 63.8163 37 64.0665C37 68.5764 43.8134 72.2323 52.2182 72.2323C55.2311 72.2323 58.0395 71.7625 60.4029 70.952C63.7874 77.7445 69.188 81.8231 73.1241 80.2577C73.3658 80.1615 73.5969 80.0462 73.8173 79.9126C74.0688 79.8583 74.3155 79.7836 74.5568 79.6876C78.9106 77.9561 79.8241 69.9746 76.597 61.8606C74.7749 57.2792 72.0224 53.6351 69.1873 51.6421C72.1877 50.1506 74.0658 48.0182 74.0658 45.6505C74.0658 45.4002 74.0448 45.1527 74.0037 44.9082Z" fill="#FFCD1E"/>
<path d="M74.0037 44.9082L72.0314 44.577L71.9757 44.9082L72.0313 45.2394L74.0037 44.9082ZM45.2776 40.4659L45.8087 42.3941L46.3453 42.2463L46.7284 41.8425L45.2776 40.4659ZM37.0621 48.4774L39.0344 48.8087L39.0901 48.4774L39.0344 48.1461L37.0621 48.4774ZM37.062 49.9622L39.0344 50.2934L39.09 49.9622L39.0344 49.6309L37.062 49.9622ZM37.0621 51.4469L39.0344 51.7782L39.0901 51.4469L39.0344 51.1156L37.0621 51.4469ZM37.0637 52.9414L39.0368 53.2684L39.0917 52.937L39.0353 52.6059L37.0637 52.9414ZM37.0653 54.4164L39.0377 54.7476L39.0933 54.4164L39.0377 54.0851L37.0653 54.4164ZM37.0653 55.901L39.0377 56.2322L39.0933 55.901L39.0377 55.5698L37.0653 55.901ZM37.0653 57.3856L39.0377 57.7169L39.0933 57.3856L39.0377 57.0544L37.0653 57.3856ZM37.0637 58.8606L39.0353 59.1961L39.0917 58.865L39.0368 58.5336L37.0637 58.8606ZM37.062 60.3549L39.0344 60.6861L39.09 60.3549L39.0344 60.0236L37.062 60.3549ZM37.062 61.8396L39.0344 62.1708L39.0901 61.8396L39.0344 61.5083L37.062 61.8396ZM37.062 63.3242L39.0344 63.6554L39.09 63.3242L39.0344 62.993L37.062 63.3242ZM60.4029 70.952L62.193 70.06L61.4116 68.4917L59.7541 69.0601L60.4029 70.952ZM73.1241 80.2577L73.8633 82.1161L73.8633 82.1161L73.1241 80.2577ZM73.8173 79.9126L73.3958 77.9575L73.0676 78.0282L72.7805 78.2023L73.8173 79.9126ZM74.5568 79.6876L73.8177 77.8292L73.8176 77.8292L74.5568 79.6876ZM76.597 61.8606L74.7386 62.5998L74.7386 62.5998L76.597 61.8606ZM69.1873 51.6421L68.297 49.8512L65.289 51.3465L68.0371 53.2783L69.1873 51.6421ZM72.0658 44.1658C72.0658 44.3039 72.0542 44.4407 72.0314 44.577L75.9761 45.2395C76.0354 44.8867 76.0658 44.5283 76.0658 44.1658H72.0658ZM58.8476 38C62.7863 38 66.253 38.861 68.6628 40.154C71.1558 41.4917 72.0658 43.0028 72.0658 44.1658H76.0658C76.0658 40.819 73.5691 38.2472 70.5541 36.6294C67.4561 34.967 63.3136 34 58.8476 34V38ZM46.7284 41.8425C48.7179 39.7457 53.2138 38 58.8476 38V34C52.636 34 46.8669 35.8852 43.8267 39.0893L46.7284 41.8425ZM39 47.735C39 46.913 39.4294 45.9435 40.6002 44.9361C41.772 43.9278 43.5502 43.0162 45.8087 42.3941L44.7464 38.5377C42.0901 39.2694 39.7295 40.4083 37.9912 41.904C36.252 43.4006 35 45.3886 35 47.735H39ZM39.0344 48.1461C39.0115 48.0098 39 47.873 39 47.735H35C35 48.0975 35.0304 48.4559 35.0897 48.8087L39.0344 48.1461ZM39 49.2199C39 49.0819 39.0115 48.945 39.0344 48.8087L35.0897 48.1461C35.0304 48.4989 35 48.8573 35 49.2199H39ZM39.0344 49.6309C39.0115 49.4947 39 49.3579 39 49.2199H35C35 49.5823 35.0304 49.9407 35.0896 50.2934L39.0344 49.6309ZM39 50.7045C39 50.5665 39.0115 50.4297 39.0344 50.2934L35.0896 49.6309C35.0304 49.9836 35 50.342 35 50.7045H39ZM39.0344 51.1156C39.0115 50.9793 39 50.8425 39 50.7045H35C35 51.067 35.0304 51.4254 35.0897 51.7782L39.0344 51.1156ZM39 52.1894C39 52.0513 39.0115 51.9145 39.0344 51.7782L35.0897 51.1156C35.0304 51.4684 35 51.8268 35 52.1894H39ZM39.0353 52.6059C39.0118 52.4678 39 52.3292 39 52.1894H35C35 52.5566 35.0312 52.9197 35.092 53.2769L39.0353 52.6059ZM39.0033 53.674C39.0033 53.5378 39.0145 53.4028 39.0368 53.2684L35.0906 52.6144C35.0329 52.9626 35.0033 53.3164 35.0033 53.674H39.0033ZM39.0377 54.0851C39.0148 53.9489 39.0033 53.812 39.0033 53.674H35.0033C35.0033 54.0365 35.0337 54.3949 35.0929 54.7476L39.0377 54.0851ZM39.0033 55.1587C39.0033 55.0207 39.0148 54.8839 39.0377 54.7476L35.0929 54.0851C35.0337 54.4379 35.0033 54.7962 35.0033 55.1587H39.0033ZM39.0377 55.5698C39.0148 55.4335 39.0033 55.2967 39.0033 55.1587H35.0033C35.0033 55.5212 35.0337 55.8795 35.0929 56.2322L39.0377 55.5698ZM39.0033 56.6433C39.0033 56.5053 39.0148 56.3685 39.0377 56.2322L35.0929 55.5698C35.0337 55.9225 35.0033 56.2808 35.0033 56.6433H39.0033ZM39.0377 57.0544C39.0148 56.9181 39.0033 56.7813 39.0033 56.6433H35.0033C35.0033 57.0057 35.0337 57.3641 35.0929 57.7169L39.0377 57.0544ZM39.0033 58.128C39.0033 57.99 39.0148 57.8531 39.0377 57.7169L35.0929 57.0544C35.0337 57.4071 35.0033 57.7655 35.0033 58.128H39.0033ZM39.0368 58.5336C39.0145 58.3991 39.0033 58.2641 39.0033 58.128H35.0033C35.0033 58.4856 35.0329 58.8393 35.0906 59.1875L39.0368 58.5336ZM39 59.6126C39 59.4728 39.0118 59.3342 39.0353 59.1961L35.092 58.5251C35.0312 58.8823 35 59.2453 35 59.6126H39ZM39.0344 60.0236C39.0115 59.8874 39 59.7506 39 59.6126H35C35 59.975 35.0304 60.3334 35.0896 60.6861L39.0344 60.0236ZM39 61.0972C39 60.9592 39.0115 60.8224 39.0344 60.6861L35.0896 60.0236C35.0304 60.3763 35 60.7347 35 61.0972H39ZM39.0344 61.5083C39.0115 61.372 39 61.2352 39 61.0972H35C35 61.4597 35.0304 61.8181 35.0897 62.1708L39.0344 61.5083ZM39 62.582C39 62.4439 39.0115 62.3071 39.0344 62.1708L35.0897 61.5083C35.0304 61.861 35 62.2195 35 62.582H39ZM39.0344 62.993C39.0115 62.8567 39 62.7199 39 62.582H35C35 62.9444 35.0304 63.3027 35.0896 63.6554L39.0344 62.993ZM39 64.0665C39 63.9285 39.0115 63.7917 39.0344 63.6554L35.0896 62.993C35.0304 63.3457 35 63.704 35 64.0665H39ZM52.2182 70.2323C48.2795 70.2323 44.8128 69.3714 42.4029 68.0783C39.91 66.7406 39 65.2295 39 64.0665H35C35 67.4133 37.4967 69.9851 40.5117 71.6029C43.6097 73.2653 47.7521 74.2323 52.2182 74.2323V70.2323ZM59.7541 69.0601C57.6178 69.7928 55.0306 70.2323 52.2182 70.2323V74.2323C55.4317 74.2323 58.4613 73.7322 61.0518 72.8438L59.7541 69.0601ZM72.385 78.3993C71.3349 78.8169 69.7438 78.6067 67.7449 77.1303C65.7901 75.6865 63.7788 73.2427 62.193 70.06L58.6128 71.8439C60.4115 75.4538 62.7928 78.4455 65.3685 80.3478C67.9 82.2176 70.9772 83.2639 73.8633 82.1161L72.385 78.3993ZM72.7805 78.2023C72.654 78.279 72.5224 78.3446 72.385 78.3993L73.8633 82.1161C74.2093 81.9785 74.5399 81.8133 74.8541 81.6228L72.7805 78.2023ZM73.8176 77.8292C73.6806 77.8838 73.5401 77.9264 73.3958 77.9575L74.2388 81.8676C74.5974 81.7903 74.9505 81.6834 75.2959 81.5461L73.8176 77.8292ZM74.7386 62.5998C76.2547 66.4118 76.7575 70.102 76.4327 72.9401C76.0972 75.8719 74.98 77.367 73.8177 77.8292L75.2959 81.5461C78.4874 80.2767 80.0039 76.9153 80.4068 73.3949C80.8204 69.7809 80.1664 65.4235 78.4554 61.1215L74.7386 62.5998ZM68.0371 53.2783C70.4774 54.9938 73.0214 58.282 74.7386 62.5998L78.4554 61.1215C76.5285 56.2764 73.5673 52.2764 70.3374 50.0059L68.0371 53.2783ZM72.0658 45.6505C72.0658 46.8731 71.0506 48.4824 68.297 49.8512L70.0775 53.4331C73.3248 51.8188 76.0658 49.1633 76.0658 45.6505H72.0658ZM72.0313 45.2394C72.0542 45.3757 72.0658 45.5125 72.0658 45.6505H76.0658C76.0658 45.288 76.0353 44.9297 75.9761 44.577L72.0313 45.2394Z" fill="white" mask="url(#path-10-outside-1_27_3881)"/>
<ellipse cx="51.7865" cy="64.0665" rx="15.2182" ry="8.16585" fill="#E21C64"/>
<ellipse cx="51.7865" cy="62.5819" rx="15.2182" ry="8.16585" fill="#F03679"/>
<path d="M64.0697 62.9528C64.0697 64.4004 62.8668 65.8494 60.6043 66.9663C58.3734 68.0674 55.2565 68.7628 51.7864 68.7628C48.3163 68.7628 45.1994 68.0674 42.9686 66.9663C40.706 65.8494 39.5032 64.4004 39.5032 62.9528C39.5032 61.5051 40.706 60.0562 42.9686 58.9393C45.1994 57.8382 48.3163 57.1428 51.7864 57.1428C55.2565 57.1428 58.3734 57.8382 60.6043 58.9393C62.8668 60.0562 64.0697 61.5051 64.0697 62.9528Z" stroke="#F58BB1"/>
<path d="M52.091 59.6123L53.526 61.9206H58.1698L54.4129 63.3472L55.8479 65.6555L52.091 64.2289L48.3341 65.6555L49.7691 63.3472L46.0122 61.9206H50.656L52.091 59.6123Z" fill="white"/>
<ellipse cx="51.7865" cy="61.0972" rx="15.2182" ry="8.16585" fill="#E21C64"/>
<ellipse cx="51.7865" cy="59.6126" rx="15.2182" ry="8.16585" fill="#F03679"/>
<path d="M64.0697 59.9838C64.0697 61.4315 62.8668 62.8804 60.6043 63.9973C58.3734 65.0984 55.2565 65.7938 51.7864 65.7938C48.3163 65.7938 45.1994 65.0984 42.9686 63.9973C40.706 62.8804 39.5032 61.4315 39.5032 59.9838C39.5032 58.5362 40.706 57.0872 42.9686 55.9703C45.1994 54.8692 48.3163 54.1738 51.7864 54.1738C55.2565 54.1738 58.3734 54.8692 60.6043 55.9703C62.8668 57.0872 64.0697 58.5362 64.0697 59.9838Z" stroke="#F58BB1"/>
<path d="M52.091 56.6431L53.526 58.9513H58.1698L54.4129 60.3779L55.8479 62.6862L52.091 61.2596L48.3341 62.6862L49.7691 60.3779L46.0122 58.9513H50.656L52.091 56.6431Z" fill="#FFC738"/>
<ellipse cx="51.7898" cy="58.128" rx="15.2182" ry="8.16585" fill="#E21C64"/>
<ellipse cx="51.7898" cy="56.6434" rx="15.2182" ry="8.16585" fill="#F03679"/>
<path d="M64.073 57.0146C64.073 58.4622 62.8701 59.9112 60.6076 61.028C58.3767 62.1292 55.2598 62.8245 51.7897 62.8245C48.3196 62.8245 45.2027 62.1292 42.9719 61.028C40.7093 59.9112 39.5065 58.4622 39.5065 57.0146C39.5065 55.5669 40.7093 54.1179 42.9719 53.0011C45.2027 51.8999 48.3196 51.2046 51.7897 51.2046C55.2598 51.2046 58.3767 51.8999 60.6076 53.0011C62.8701 54.1179 64.073 55.5669 64.073 57.0146Z" stroke="#F58BB1"/>
<path d="M52.0943 53.6738L53.5293 55.9821H58.1731L54.4162 57.4087L55.8512 59.717L52.0943 58.2904L48.3374 59.717L49.7724 57.4087L46.0155 55.9821H50.6593L52.0943 53.6738Z" fill="white"/>
<ellipse cx="51.7898" cy="55.1588" rx="15.2182" ry="8.16585" fill="#E21C64"/>
<ellipse cx="51.7898" cy="53.6741" rx="15.2182" ry="8.16585" fill="#F03679"/>
<path d="M64.073 54.0453C64.073 55.493 62.8701 56.942 60.6076 58.0588C58.3767 59.16 55.2598 59.8553 51.7897 59.8553C48.3196 59.8553 45.2027 59.16 42.9719 58.0588C40.7093 56.942 39.5065 55.493 39.5065 54.0453C39.5065 52.5977 40.7093 51.1487 42.9719 50.0319C45.2027 48.9307 48.3196 48.2354 51.7897 48.2354C55.2598 48.2354 58.3767 48.9307 60.6076 50.0319C62.8701 51.1487 64.073 52.5977 64.073 54.0453Z" stroke="#F58BB1"/>
<path d="M52.0943 50.7046L53.5293 53.0129H58.1731L54.4162 54.4395L55.8512 56.7477L52.0943 55.3211L48.3374 56.7477L49.7724 54.4395L46.0155 53.0129H50.6593L52.0943 50.7046Z" fill="#FFC738"/>
<ellipse cx="51.7865" cy="52.1893" rx="15.2182" ry="8.16585" fill="#E21C64"/>
<ellipse cx="51.7865" cy="50.7044" rx="15.2182" ry="8.16585" fill="#F03679"/>
<path d="M64.0697 51.0756C64.0697 52.5232 62.8668 53.9722 60.6043 55.0891C58.3734 56.1902 55.2565 56.8856 51.7864 56.8856C48.3163 56.8856 45.1994 56.1902 42.9686 55.0891C40.706 53.9722 39.5032 52.5232 39.5032 51.0756C39.5032 49.6279 40.706 48.179 42.9686 47.0621C45.1994 45.961 48.3163 45.2656 51.7864 45.2656C55.2565 45.2656 58.3734 45.961 60.6043 47.0621C62.8668 48.179 64.0697 49.6279 64.0697 51.0756Z" stroke="#F58BB1"/>
<path d="M52.091 47.7351L53.526 50.0434H58.1698L54.4129 51.47L55.8479 53.7783L52.091 52.3517L48.3341 53.7783L49.7691 51.47L46.0122 50.0434H50.656L52.091 47.7351Z" fill="white"/>
<ellipse cx="51.7865" cy="49.2198" rx="15.2182" ry="8.16585" fill="#E21C64"/>
<ellipse cx="51.7865" cy="47.7349" rx="15.2182" ry="8.16585" fill="#F03679"/>
<path fill-rule="evenodd" clip-rule="evenodd" d="M60.4257 51.7579C62.6474 50.6613 63.6664 49.316 63.6664 48.1061C63.6664 46.8963 62.6474 45.551 60.4257 44.4543C58.2615 43.386 55.2082 42.6995 51.7864 42.6995C48.3647 42.6995 45.3114 43.386 43.1471 44.4543C40.9255 45.551 39.9065 46.8963 39.9065 48.1061C39.9065 49.316 40.9255 50.6613 43.1471 51.7579C45.3114 52.8262 48.3647 53.5128 51.7864 53.5128C55.2082 53.5128 58.2615 52.8262 60.4257 51.7579ZM51.7864 54.4161C58.8464 54.4161 64.5697 51.591 64.5697 48.1061C64.5697 44.6212 58.8464 41.7961 51.7864 41.7961C44.7264 41.7961 39.0032 44.6212 39.0032 48.1061C39.0032 51.591 44.7264 54.4161 51.7864 54.4161Z" fill="#FFCD1E"/>
<path d="M52.091 44.7656L53.526 47.0739H58.1698L54.4129 48.5005L55.8479 50.8088L52.091 49.3822L48.3341 50.8088L49.7691 48.5005L46.0122 47.0739H50.656L52.091 44.7656Z" fill="#FFC738"/>
<ellipse cx="58.4159" cy="45.6505" rx="15.2182" ry="8.16585" fill="#E21C64"/>
<ellipse cx="58.4159" cy="44.1658" rx="15.2182" ry="8.16585" fill="#F03679"/>
<path d="M58.7204 41.1965L60.1554 43.5048H64.7992L61.0423 44.9314L62.4773 47.2397L58.7204 45.8131L54.9635 47.2397L56.3985 44.9314L52.6416 43.5048H57.2854L58.7204 41.1965Z" fill="#FFC738"/>
<path fill-rule="evenodd" clip-rule="evenodd" d="M67.1704 48.0013C69.392 46.9047 70.411 45.5594 70.411 44.3495C70.411 43.1397 69.392 41.7944 67.1704 40.6977C65.0061 39.6294 61.9528 38.9429 58.5311 38.9429C55.1093 38.9429 52.0561 39.6294 49.8918 40.6977C47.6701 41.7944 46.6511 43.1397 46.6511 44.3495C46.6511 45.5594 47.6701 46.9047 49.8918 48.0013C52.0561 49.0696 55.1093 49.7562 58.5311 49.7562C61.9528 49.7562 65.0061 49.0696 67.1704 48.0013ZM58.5311 50.6595C65.5911 50.6595 71.3143 47.8344 71.3143 44.3495C71.3143 40.8646 65.5911 38.0396 58.5311 38.0396C51.4711 38.0396 45.7478 40.8646 45.7478 44.3495C45.7478 47.8344 51.4711 50.6595 58.5311 50.6595Z" fill="#FFCD1E"/>
<ellipse cx="66.8514" cy="65.566" rx="15.811" ry="8.48395" transform="rotate(68.3115 66.8514 65.566)" fill="#E21C64"/>
<ellipse cx="68.284" cy="64.996" rx="15.811" ry="8.48395" transform="rotate(68.3115 68.284 64.996)" fill="#FF4A8B"/>
<path d="M71.2681 64.1498L69.5906 66.4214L71.3736 70.9045L68.5539 67.8253L66.8765 70.097L66.8112 65.9223L63.9915 62.8431L66.7709 63.3422L66.7057 59.1675L68.4887 63.6507L71.2681 64.1498Z" fill="#FFC738"/>
<path fill-rule="evenodd" clip-rule="evenodd" d="M67.9196 74.9458C69.8343 76.6722 71.5386 77.1509 72.7259 76.6787C73.9131 76.2065 74.8231 74.688 75.0291 72.1182C75.23 69.6121 74.7191 66.3955 73.4038 63.0882C72.0884 59.7809 70.2506 57.092 68.3834 55.4084C66.4687 53.682 64.7644 53.2033 63.5771 53.6755C62.3899 54.1477 61.4798 55.6662 61.2739 58.236C61.073 60.742 61.5838 63.9587 62.8992 67.266C64.2146 70.5733 66.0524 73.2622 67.9196 74.9458ZM62.0598 67.5998C64.7705 74.4156 69.6954 78.8562 73.0597 77.5181C76.424 76.1801 76.9539 69.5701 74.2432 62.7543C71.5324 55.9386 66.6076 51.498 63.2433 52.8361C59.8789 54.1741 59.3491 60.7841 62.0598 67.5998Z" fill="#FFCD1E"/>
<path d="M215 110C322.168 110 353.706 71.1944 355 53L355 110L215 110Z" fill="url(#paint2_linear_27_3881)" fill-opacity="0.7"/>
<path d="M225 117C332.168 117 363.706 78.1944 365 60L365 117L225 117Z" fill="url(#paint3_linear_27_3881)"/>
</g>
<rect x="10.5" y="10.5" width="344" height="99" rx="11.5" stroke="#FFB88E"/>
</g>
<defs>
<filter id="filter0_d_27_3881" x="0" y="0" width="365" height="120" filterUnits="userSpaceOnUse" color-interpolation-filters="sRGB">
<feFlood flood-opacity="0" result="BackgroundImageFix"/>
<feColorMatrix in="SourceAlpha" type="matrix" values="0 0 0 0 0 0 0 0 0 0 0 0 0 0 0 0 0 0 127 0" result="hardAlpha"/>
<feOffset/>
<feGaussianBlur stdDeviation="5"/>
<feColorMatrix type="matrix" values="0 0 0 0 0.533333 0 0 0 0 0.533333 0 0 0 0 0.533333 0 0 0 0.2 0"/>
<feBlend mode="normal" in2="BackgroundImageFix" result="effect1_dropShadow_27_3881"/>
<feBlend mode="normal" in="SourceGraphic" in2="effect1_dropShadow_27_3881" result="shape"/>
</filter>
<linearGradient id="paint0_linear_27_3881" x1="15.9092" y1="16.1259" x2="58.8382" y2="52.3925" gradientUnits="userSpaceOnUse">
<stop stop-color="#FFB88E"/>
<stop offset="1" stop-color="#FFD2B5"/>
</linearGradient>
<linearGradient id="paint1_linear_27_3881" x1="6.90923" y1="7.12587" x2="49.8382" y2="43.3925" gradientUnits="userSpaceOnUse">
<stop stop-color="#FFB88E"/>
<stop offset="1" stop-color="#FFD2B5"/>
</linearGradient>
<linearGradient id="paint2_linear_27_3881" x1="350.046" y1="105.217" x2="316.21" y2="74.5265" gradientUnits="userSpaceOnUse">
<stop stop-color="#FFB88E"/>
<stop offset="1" stop-color="#FFD3B6"/>
</linearGradient>
<linearGradient id="paint3_linear_27_3881" x1="360.046" y1="112.217" x2="326.21" y2="81.5265" gradientUnits="userSpaceOnUse">
<stop stop-color="#FFB88E"/>
<stop offset="1" stop-color="#FFD3B6"/>
</linearGradient>
<clipPath id="clip0_27_3881">
<rect x="10" y="10" width="345" height="100" rx="12" fill="white"/>
</clipPath>
</defs>
</svg>
