<svg width="365" height="120" viewBox="0 0 365 120" fill="none" xmlns="http://www.w3.org/2000/svg">
<g filter="url(#filter0_d_27_3883)">
<g clip-path="url(#clip0_27_3883)">
<rect x="10" y="10" width="345" height="100" rx="12" fill="white"/>
<path d="M177 10C49.164 10 10 34 10 83V10H177Z" fill="url(#paint0_linear_27_3883)" fill-opacity="0.6"/>
<path d="M168 1C40.164 1 1 25 1 74V1H168Z" fill="url(#paint1_linear_27_3883)" fill-opacity="0.6"/>
<circle cx="331" cy="60" r="10" fill="white"/>
<path d="M328 65.4331L332.945 60.4771L328 55.5221L329.522 54.0001L336 60.4771L329.522 66.9551L328 65.4331Z" fill="#0282B9"/>
<path d="M108.96 42.24L110.136 42.478C109.828 43.136 109.506 43.836 109.24 44.284L108.358 44.046C108.582 43.528 108.834 42.758 108.96 42.24ZM107.308 46.58V47.826H111.704V46.58H107.308ZM107.308 44.564V45.796H111.704V44.564H107.308ZM106.328 43.738H112.726V48.666H106.328V43.738ZM109.128 48.316H110.136V53.972C110.136 54.504 110.024 54.798 109.66 54.966C109.282 55.134 108.68 55.134 107.77 55.134C107.728 54.854 107.602 54.448 107.462 54.168C108.12 54.196 108.722 54.196 108.904 54.182C109.086 54.168 109.128 54.126 109.128 53.958V48.316ZM105.81 49.842H108.092V50.724H105.81V49.842ZM107.868 49.842H108.036L108.204 49.8L108.82 50.024C108.316 52.152 107.098 53.664 105.656 54.462C105.53 54.238 105.25 53.902 105.054 53.72C106.314 53.09 107.462 51.69 107.868 49.996V49.842ZM112.376 49.17L113.174 49.8C112.46 50.458 111.62 51.2 110.948 51.676L110.36 51.158C110.99 50.654 111.886 49.786 112.376 49.17ZM110.08 49.002C110.668 51.018 111.886 52.866 113.496 53.692C113.272 53.874 112.964 54.252 112.796 54.518C111.158 53.51 109.968 51.466 109.352 49.198L110.08 49.002ZM103.794 47.77L104.592 47.574C104.942 48.54 105.292 49.8 105.404 50.542L104.55 50.808C104.438 50.038 104.13 48.75 103.794 47.77ZM102.534 51.368L103.332 51.228C103.5 52.194 103.64 53.412 103.682 54.238L102.856 54.392C102.828 53.566 102.688 52.32 102.534 51.368ZM101.162 51.256L102.03 51.396C101.876 52.628 101.596 53.986 101.302 54.868C101.12 54.77 100.714 54.63 100.49 54.56C100.826 53.692 101.036 52.418 101.162 51.256ZM100.826 47.49C100.77 47.28 100.602 46.79 100.49 46.524C100.728 46.468 100.966 46.174 101.246 45.754C101.54 45.334 102.478 43.738 103.024 42.226L104.004 42.632C103.304 44.186 102.38 45.81 101.484 46.916V46.944C101.484 46.944 100.826 47.28 100.826 47.49ZM100.826 47.49L100.798 46.706L101.302 46.412L103.738 46.188C103.696 46.468 103.654 46.832 103.654 47.042C101.428 47.294 101.05 47.378 100.826 47.49ZM100.91 50.64C100.854 50.43 100.686 49.926 100.574 49.66C100.868 49.59 101.176 49.226 101.61 48.708C102.044 48.218 103.5 46.23 104.396 44.34L105.32 44.886C104.27 46.79 102.912 48.708 101.596 50.08V50.108C101.596 50.108 100.91 50.43 100.91 50.64ZM100.91 50.64L100.882 49.856L101.386 49.534L104.788 49.1C104.746 49.352 104.732 49.73 104.746 49.94C101.624 50.402 101.19 50.5 100.91 50.64ZM103.85 51.102L104.578 50.878C104.858 51.606 105.152 52.53 105.278 53.146L104.494 53.398C104.396 52.782 104.102 51.83 103.85 51.102ZM120.58 46.776H126.334V47.826H120.58V46.776ZM114.714 53.412H127.286V54.462H114.714V53.412ZM119.978 42.45H121.084V53.972H119.978V42.45ZM129.554 44.102H140.502V51.998H139.424V45.11H130.59V52.082H129.554V44.102ZM130.226 47.154H139.998V48.12H130.226V47.154ZM130.24 50.262H139.984V51.27H130.24V50.262ZM134.412 42.24H135.49V55.106H134.412V42.24ZM146.984 45.418H149.994V46.342H146.984V45.418ZM149.7 45.418H150.582C150.582 45.418 150.582 45.768 150.582 45.908C150.484 51.956 150.428 53.874 150.106 54.392C149.896 54.728 149.672 54.84 149.35 54.882C149.056 54.924 148.65 54.91 148.216 54.896C148.202 54.63 148.104 54.238 147.978 54C148.412 54.028 148.762 54.028 148.958 54.028C149.112 54.042 149.21 54 149.308 53.818C149.546 53.426 149.644 51.494 149.7 45.642V45.418ZM147.894 42.24H148.762C148.734 47.924 148.594 52.208 146.634 55.148C146.494 54.994 146.116 54.658 145.92 54.518C147.81 51.914 147.908 47.574 147.894 42.24ZM142.686 44.116H146.732V44.984H142.686V44.116ZM142.574 47.826H146.802V48.708H142.574V47.826ZM143.05 45.446L143.778 45.264C144.044 45.978 144.226 46.902 144.24 47.504L143.456 47.714C143.456 47.112 143.288 46.174 143.05 45.446ZM145.5 45.18L146.34 45.376C146.074 46.314 145.78 47.448 145.5 48.19L144.828 47.994C145.066 47.252 145.374 46.006 145.5 45.18ZM144.226 48.148H145.178V50.57C145.178 52.012 144.912 53.916 143.372 55.162C143.246 54.966 142.966 54.644 142.742 54.49C144.1 53.482 144.226 51.76 144.226 50.57V48.148ZM142.756 50.402H146.578V51.284H142.756V50.402ZM143.68 42.66L144.548 42.408C144.912 43.024 145.29 43.85 145.43 44.368L144.52 44.676C144.38 44.158 144.016 43.29 143.68 42.66ZM152.78 48.232H153.746V55.092H152.78V48.232ZM151.1 44.088H155.258V44.97H151.1V44.088ZM151.044 47.854H155.412V48.722H151.044V47.854ZM151.282 50.598H155.286V51.48H151.282V50.598ZM151.492 45.404L152.234 45.222C152.5 45.95 152.71 46.916 152.738 47.532L151.968 47.742C151.94 47.112 151.758 46.146 151.492 45.404ZM154.11 45.138L154.95 45.334C154.698 46.286 154.404 47.448 154.138 48.176L153.424 47.98C153.676 47.238 153.984 45.978 154.11 45.138ZM152.15 42.562L153.018 42.296C153.368 42.94 153.774 43.822 153.914 44.368L153.018 44.69C152.878 44.13 152.5 43.234 152.15 42.562ZM161.348 46.566H168.152V47.434H161.348V46.566ZM161.348 48.554H168.152V49.422H161.348V48.554ZM161.782 53.706H167.704V54.574H161.782V53.706ZM160.34 44.564H169.258V45.446H160.34V44.564ZM161.166 50.612H168.306V55.078H167.354V51.48H162.076V55.12H161.166V50.612ZM163.574 42.59L164.484 42.24C164.876 42.814 165.296 43.57 165.506 44.074L164.554 44.494C164.372 43.976 163.938 43.192 163.574 42.59ZM159.57 42.296L160.522 42.576C159.696 44.928 158.408 47.294 157.022 48.876C156.924 48.638 156.63 48.12 156.434 47.882C157.694 46.51 158.87 44.41 159.57 42.296ZM158.366 45.95L159.318 44.984L159.332 44.998V55.162H158.366V45.95ZM172.73 43.234H181.788V44.242H172.73V43.234ZM172.73 46.496H181.774V47.49H172.73V46.496ZM172.66 49.842H181.802V50.836H172.66V49.842ZM172.142 43.234H173.178V48.316C173.178 50.444 172.926 53.342 171.26 55.204C171.092 54.994 170.672 54.644 170.448 54.504C171.988 52.768 172.142 50.276 172.142 48.302V43.234ZM181.368 43.234H182.404V53.692C182.404 54.378 182.236 54.7 181.774 54.882C181.298 55.05 180.486 55.064 179.156 55.05C179.114 54.77 178.946 54.308 178.792 54.028C179.786 54.07 180.738 54.056 181.004 54.056C181.27 54.042 181.368 53.958 181.368 53.692V43.234ZM176.538 43.612H177.602V54.994H176.538V43.612ZM188.802 44.13L197.006 43.626L197.09 44.452L188.886 44.956L188.802 44.13ZM190.706 42.24H191.7C192.022 44.536 194.276 46.146 195.886 46.132C196.278 46.118 196.39 45.866 196.432 45.068C196.656 45.236 196.978 45.39 197.244 45.46C197.104 46.748 196.74 47.056 195.858 47.056C193.716 47.042 191.084 45.11 190.706 42.24ZM193.002 42.786L193.506 42.24C194.332 42.394 195.396 42.758 195.97 43.066L195.424 43.682C194.892 43.374 193.842 42.996 193.002 42.786ZM188.606 42.184L189.544 42.548C188.452 43.85 186.744 45.054 185.246 45.81C185.078 45.628 184.7 45.236 184.462 45.068C186.002 44.396 187.626 43.332 188.606 42.184ZM187.178 44.116L187.92 43.388L188.186 43.472V46.818H187.178V44.116ZM187.556 49.562V50.514H194.612V49.562H187.556ZM187.556 51.2V52.18H194.612V51.2H187.556ZM187.556 47.924V48.876H194.612V47.924H187.556ZM186.534 47.224H195.662V52.88H186.534V47.224ZM192.162 53.594L193.016 53.062C194.556 53.538 196.25 54.154 197.258 54.63L196.096 55.162C195.214 54.7 193.688 54.098 192.162 53.594ZM188.872 53.034L189.824 53.468C188.69 54.14 186.912 54.784 185.512 55.176C185.344 54.966 184.98 54.56 184.742 54.378C186.184 54.07 187.864 53.58 188.872 53.034ZM207.464 46.79H208.458V47.462C208.458 49.59 208.234 52.712 205.574 55.148C205.392 54.91 205.028 54.602 204.776 54.448C207.282 52.208 207.464 49.366 207.464 47.434V46.79ZM208.374 48.498C208.836 51.046 209.844 53.3 211.58 54.238C211.356 54.448 211.02 54.84 210.866 55.106C209.032 53.986 208.038 51.536 207.534 48.666L208.374 48.498ZM198.714 43.584H205.182V44.466H198.714V43.584ZM198.546 49.576H205.308V50.458H198.546V49.576ZM199.036 45.67H204.888V46.566H199.036V45.67ZM199.19 47.616H204.72V48.498H199.19V47.616ZM201.444 42.296H202.438V46.244H201.444V42.296ZM199.722 50.948L200.604 51.172C200.254 52.208 199.722 53.384 199.288 54.168C199.078 54.042 198.672 53.86 198.448 53.762C198.924 53.006 199.414 51.914 199.722 50.948ZM203.25 51.256L204.048 50.948C204.454 51.634 204.916 52.586 205.14 53.132L204.286 53.524C204.09 52.95 203.656 51.984 203.25 51.256ZM206.33 44.788H210.558V45.754H206.33V44.788ZM206.386 42.254L207.408 42.394C207.072 44.83 206.456 47.126 205.546 48.652C205.364 48.484 204.916 48.176 204.678 48.036C205.588 46.65 206.106 44.48 206.386 42.254ZM210.292 44.788H210.446L210.628 44.746L211.328 44.956C211.062 46.216 210.656 47.686 210.278 48.61L209.424 48.358C209.746 47.49 210.096 46.076 210.292 44.984V44.788ZM201.458 49.926H202.452V55.12H201.458V49.926Z" fill="#464646"/>
<path d="M100.816 80.04H115.184V81.352H100.816V80.04ZM102.352 77.192H112.224V78.392H102.352V77.192ZM107.168 79.208H108.768V82.888C108.768 83.672 108.528 84.008 107.872 84.2C107.232 84.376 106.256 84.376 104.832 84.376C104.736 83.992 104.512 83.48 104.304 83.128C105.328 83.16 106.496 83.16 106.768 83.144C107.072 83.128 107.168 83.064 107.168 82.84V79.208ZM111.888 77.176H112.304L112.64 77.112L113.632 77.976C112.048 78.84 109.936 79.592 107.904 80.056C107.728 79.8 107.376 79.4 107.168 79.192C108.896 78.808 110.896 78.088 111.888 77.464V77.176ZM104.464 74.072V75.272H111.536V74.072H104.464ZM102.96 73H113.136V76.36H102.96V73ZM101.008 70.808H114.96V72.104H101.008V70.808ZM106.752 69.656L108.288 69.384C108.624 69.992 108.96 70.808 109.072 71.352L107.456 71.672C107.344 71.144 107.056 70.296 106.752 69.656ZM121.056 83.224C118.656 83.224 116.768 81.512 116.768 78.616C116.768 75.752 118.736 73.976 120.784 73.976C123.104 73.976 124.368 75.656 124.368 78.152C124.368 78.52 124.336 78.872 124.288 79.096H118.576C118.72 80.776 119.776 81.768 121.296 81.768C122.08 81.768 122.736 81.528 123.392 81.112L124.032 82.296C123.216 82.84 122.208 83.224 121.056 83.224ZM118.544 77.816H122.768C122.768 76.296 122.096 75.432 120.816 75.432C119.712 75.432 118.736 76.28 118.544 77.816ZM130.647 71.544L139.975 71L140.103 72.12L130.759 72.696L130.647 71.544ZM132.631 69.496H134.055C134.391 72.04 136.711 73.832 138.519 73.816C138.967 73.8 139.079 73.528 139.143 72.648C139.447 72.888 139.911 73.096 140.279 73.208C140.087 74.792 139.607 75.144 138.471 75.144C135.879 75.128 133.047 72.888 132.631 69.496ZM135.335 70.232L136.039 69.48C136.967 69.64 138.183 70.056 138.839 70.392L138.087 71.24C137.479 70.904 136.279 70.472 135.335 70.232ZM130.151 69.4L131.511 69.928C130.263 71.448 128.295 72.872 126.583 73.752C126.343 73.48 125.815 72.92 125.495 72.68C127.239 71.928 129.062 70.712 130.151 69.4ZM128.583 71.768L129.591 70.776L130.039 70.904V74.808H128.583V71.768ZM129.367 78.008V78.92H136.935V78.008H129.367ZM129.367 79.832V80.776H136.935V79.832H129.367ZM129.367 76.184V77.096H136.935V76.184H129.367ZM127.895 75.24H138.471V81.72H127.895V75.24ZM134.199 82.552L135.447 81.816C137.175 82.376 139.127 83.128 140.279 83.672L138.551 84.392C137.591 83.864 135.895 83.144 134.199 82.552ZM130.535 81.768L131.911 82.392C130.615 83.192 128.567 83.96 126.951 84.408C126.695 84.104 126.167 83.544 125.831 83.288C127.495 82.952 129.415 82.392 130.535 81.768ZM153.719 69.496L154.823 70.744C151.751 71.592 147.063 72.008 143.174 72.152C143.127 71.768 142.951 71.16 142.807 70.824C146.631 70.648 151.191 70.232 153.719 69.496ZM142.887 74.024H155.431V75.48H142.887V74.024ZM141.799 77.768H156.359V79.256H141.799V77.768ZM148.295 71.448H149.863V82.408C149.863 83.384 149.591 83.816 148.919 84.056C148.247 84.296 147.143 84.328 145.479 84.312C145.383 83.88 145.095 83.208 144.855 82.808C146.135 82.856 147.431 82.84 147.799 82.84C148.151 82.824 148.295 82.712 148.295 82.392V71.448ZM162.951 70.296H172.199V71.304H162.951V70.296ZM163.575 72.024H171.623V72.984H163.575V72.024ZM166.919 69.496H168.391V72.584H166.919V69.496ZM164.279 74.52V75.688H170.807V74.52H164.279ZM163.031 73.56H172.119V76.648H163.031V73.56ZM164.919 79.32V79.928H170.183V79.32H164.919ZM164.919 80.552V81.192H170.183V80.552H164.919ZM164.919 78.104V78.68H170.183V78.104H164.919ZM163.559 77.256H171.591V82.024H163.559V77.256ZM168.375 82.856L168.919 81.896C170.167 82.312 171.559 82.872 172.423 83.272L171.799 84.328C170.951 83.912 169.591 83.32 168.375 82.856ZM166.135 81.896L167.143 82.856C165.911 83.416 164.359 84.008 163.207 84.424C163.095 84.136 162.839 83.672 162.647 83.368C163.703 83 165.255 82.376 166.135 81.896ZM165.799 73.88H166.951V76.312H165.799V73.88ZM168.343 73.896H169.495V76.296H168.343V73.896ZM161.255 75.976L162.295 75.72C162.679 76.824 163.063 78.248 163.191 79.096L162.071 79.448C161.959 78.568 161.623 77.096 161.255 75.976ZM159.879 80.056L160.935 79.864C161.127 81.048 161.286 82.552 161.319 83.576L160.215 83.768C160.215 82.76 160.055 81.224 159.879 80.056ZM158.295 79.912L159.479 80.104C159.319 81.608 159.031 83.224 158.679 84.264C158.423 84.12 157.863 83.944 157.543 83.864C157.927 82.824 158.151 81.304 158.295 79.912ZM158.007 75.656C157.927 75.384 157.719 74.76 157.575 74.408C157.847 74.344 158.103 74.008 158.407 73.528C158.727 73.064 159.703 71.224 160.263 69.48L161.527 69.992C160.807 71.768 159.799 73.64 158.839 74.92V74.952C158.839 74.952 158.007 75.384 158.007 75.656ZM158.007 75.656L157.959 74.584L158.615 74.184L161.351 73.96C161.286 74.328 161.239 74.856 161.239 75.144C158.759 75.416 158.295 75.512 158.007 75.656ZM158.118 79.304C158.039 79.032 157.831 78.392 157.671 78.04C158.023 77.96 158.359 77.56 158.823 76.952C159.319 76.376 160.871 74.04 161.815 71.848L162.983 72.536C161.879 74.728 160.407 76.984 158.951 78.584V78.632C158.951 78.632 158.118 79.032 158.118 79.304ZM158.118 79.304L158.055 78.232L158.711 77.784L162.439 77.32C162.391 77.688 162.359 78.216 162.375 78.504C158.983 79 158.439 79.128 158.118 79.304ZM161.351 79.752L162.311 79.464C162.647 80.392 162.999 81.608 163.159 82.392L162.135 82.728C162.007 81.928 161.655 80.696 161.351 79.752ZM175.879 72.04H185.703V71.256H174.759V70.312H187.079V72.984H175.879V72.04ZM175.431 72.04H176.759C176.647 72.984 176.487 74.04 176.327 74.776H174.983C175.159 74.008 175.335 72.936 175.431 72.04ZM175.623 73.816H187.143V74.776H175.335L175.623 73.816ZM186.679 73.816H188.087C188.087 73.816 188.071 74.104 188.071 74.264C187.975 75.192 187.879 75.688 187.639 75.96C187.415 76.168 187.127 76.264 186.791 76.28C186.503 76.296 185.927 76.296 185.335 76.264C185.319 75.992 185.207 75.592 185.063 75.336C185.527 75.368 185.911 75.384 186.087 75.384C186.247 75.384 186.343 75.368 186.439 75.272C186.551 75.144 186.615 74.808 186.679 73.976V73.816ZM178.583 69.496H179.959V72.568C179.959 74.76 179.255 76.456 174.567 77.272C174.439 76.936 174.103 76.376 173.847 76.104C178.023 75.416 178.583 74.152 178.583 72.536V69.496ZM182.135 69.496H183.575V75.848H182.135V69.496ZM177.367 78.456V79.304H184.919V78.456H177.367ZM177.367 80.168V81.032H184.919V80.168H177.367ZM177.367 76.76V77.592H184.919V76.76H177.367ZM175.895 75.848H186.455V81.944H175.895V75.848ZM182.407 82.536L183.271 81.672C185.063 82.2 187.015 82.888 188.199 83.4L187.079 84.328C186.007 83.8 184.199 83.096 182.407 82.536ZM178.567 81.848L179.911 82.472C178.599 83.224 176.551 83.944 174.935 84.36C174.695 84.072 174.167 83.512 173.831 83.256C175.511 82.952 177.431 82.44 178.567 81.848Z" fill="#464646"/>
<path d="M193.466 68.744H199.73V70.328H193.466V68.744ZM193.664 73.874H199.55V75.44H193.664V73.874ZM193.088 80.21C194.798 79.796 197.354 79.094 199.82 78.392L200.036 79.904C197.768 80.588 195.338 81.29 193.538 81.83L193.088 80.21ZM202.088 72.794V74.306H207.47V72.794H202.088ZM202.088 75.638V77.15H207.47V75.638H202.088ZM202.088 69.968V71.462H207.47V69.968H202.088ZM200.504 68.564H209.144V78.59H200.504V68.564ZM205.148 77.924H206.768V82.388C206.768 82.874 206.84 82.946 207.218 82.946C207.38 82.946 208.118 82.946 208.334 82.946C208.712 82.946 208.784 82.658 208.82 80.84C209.162 81.092 209.828 81.362 210.278 81.47C210.116 83.792 209.72 84.422 208.532 84.422C208.226 84.422 207.218 84.422 206.93 84.422C205.472 84.422 205.148 83.936 205.148 82.406V77.924ZM202.016 78.302H203.69C203.384 81.362 202.52 83.486 198.74 84.638C198.56 84.224 198.128 83.558 197.786 83.234C201.134 82.352 201.764 80.714 202.016 78.302ZM195.842 69.374H197.48V79.958L195.842 80.228V69.374ZM226.316 67.952L227.342 69.392C225.11 70.058 221.924 70.562 219.242 70.85C219.188 70.436 218.954 69.824 218.774 69.446C221.402 69.122 224.444 68.564 226.316 67.952ZM219.62 73.82H227.99V75.44H219.62V73.82ZM223.436 74.702H225.128V84.44H223.436V74.702ZM211.232 77.204C212.906 76.808 215.444 76.124 217.82 75.458L218.036 77.024C215.84 77.672 213.464 78.356 211.682 78.842L211.232 77.204ZM211.52 71.336H217.91V72.938H211.52V71.336ZM213.896 67.808H215.57V82.55C215.57 83.432 215.39 83.882 214.868 84.134C214.328 84.404 213.536 84.44 212.312 84.44C212.258 84.008 212.024 83.306 211.808 82.874C212.582 82.91 213.32 82.892 213.554 82.892C213.806 82.874 213.896 82.802 213.896 82.568V67.808ZM218.774 69.446H220.448V75.026C220.448 78.32 220.142 81.632 218.198 84.53C217.874 84.152 217.28 83.702 216.83 83.414C218.558 80.768 218.774 77.78 218.774 75.008V69.446ZM233.606 83.252C232.22 83.252 230.618 82.604 229.61 81.668L230.564 80.246C231.482 81.002 232.454 81.542 233.606 81.542C234.992 81.542 235.676 80.84 235.676 79.688C235.676 76.772 230.132 77.276 230.132 73.424C230.132 71.282 231.644 69.878 233.912 69.878C235.568 69.878 236.594 70.544 237.458 71.462L236.378 72.686C235.64 71.966 235.028 71.588 234.002 71.588C232.832 71.588 232.13 72.236 232.13 73.316C232.13 75.944 237.692 75.332 237.692 79.526C237.692 81.74 236.162 83.252 233.606 83.252ZM233.102 85.232V82.46H234.56V85.232H233.102ZM233.102 70.58V67.88H234.56V70.58H233.102ZM240.452 83V81.29H243.368V72.074H240.974V70.76C242.234 70.544 243.098 70.22 243.872 69.752H245.438V81.29H248.03V83H240.452ZM254.318 83.252C251.708 83.252 250.034 80.93 250.034 76.322C250.034 71.75 251.708 69.518 254.318 69.518C256.91 69.518 258.602 71.75 258.602 76.322C258.602 80.93 256.91 83.252 254.318 83.252ZM254.318 81.596C255.668 81.596 256.604 80.156 256.604 76.322C256.604 72.542 255.668 71.138 254.318 71.138C252.968 71.138 252.014 72.542 252.014 76.322C252.014 80.156 252.968 81.596 254.318 81.596ZM264.583 83.252C261.973 83.252 260.299 80.93 260.299 76.322C260.299 71.75 261.973 69.518 264.583 69.518C267.175 69.518 268.867 71.75 268.867 76.322C268.867 80.93 267.175 83.252 264.583 83.252ZM264.583 81.596C265.933 81.596 266.869 80.156 266.869 76.322C266.869 72.542 265.933 71.138 264.583 71.138C263.233 71.138 262.279 72.542 262.279 76.322C262.279 80.156 263.233 81.596 264.583 81.596ZM274.849 83.252C272.239 83.252 270.565 80.93 270.565 76.322C270.565 71.75 272.239 69.518 274.849 69.518C277.441 69.518 279.133 71.75 279.133 76.322C279.133 80.93 277.441 83.252 274.849 83.252ZM274.849 81.596C276.199 81.596 277.135 80.156 277.135 76.322C277.135 72.542 276.199 71.138 274.849 71.138C273.499 71.138 272.545 72.542 272.545 76.322C272.545 80.156 273.499 81.596 274.849 81.596Z" fill="#EB6022"/>
<g clip-path="url(#clip1_27_3883)">
<path d="M68 85.6364C68 88.2472 60.3933 90 50.6471 90C40.9009 90 33 87.3381 33 84.7273C33 82.1165 40.9009 80 50.6471 80C60.3933 80 68 83.0256 68 85.6364Z" fill="#A3A3A3" fill-opacity="0.6"/>
<rect x="36.8043" y="42.7138" width="44.9916" height="24.1472" rx="2" transform="rotate(-12.7238 36.8043 42.7138)" fill="#D9D9D9"/>
<rect x="36.8043" y="42.7138" width="44.9916" height="24.1472" rx="2" transform="rotate(-12.7238 36.8043 42.7138)" fill="#F6BC44"/>
<rect x="36.8043" y="42.7138" width="44.9916" height="24.1472" rx="2" transform="rotate(-12.7238 36.8043 42.7138)" stroke="white" stroke-width="2"/>
<rect x="41.715" y="45.8144" width="36.7805" height="15.9361" rx="0.5" transform="rotate(-12.7238 41.715 45.8144)" stroke="white"/>
<path d="M49.8481 56.0257L49.4762 54.3788L51.2833 53.9708L50.1909 49.1329L48.624 49.4867L48.34 48.2286C49.2162 47.8505 49.7593 47.4874 50.2688 46.9757L51.767 46.6374L53.3191 53.5111L54.8517 53.1651L55.2235 54.812L49.8481 56.0257Z" fill="white"/>
<path d="M59.4499 54.026C57.6543 54.4314 56.0845 53.1752 55.4234 50.2473C54.7623 47.3194 55.6607 45.602 57.4563 45.1966C59.2519 44.7911 60.7922 45.9699 61.4507 48.8863C62.1118 51.8142 61.2456 53.6205 59.4499 54.026ZM59.0936 52.4477C59.6997 52.3108 60.0561 51.6533 59.5293 49.3202C59.0051 46.9985 58.4137 46.6151 57.8075 46.752C57.2013 46.8889 56.8206 47.4917 57.3448 49.8134C57.8717 52.1466 58.4874 52.5845 59.0936 52.4477Z" fill="white"/>
<path d="M66.4194 52.4523C64.6238 52.8577 63.054 51.6015 62.3929 48.6736C61.7318 45.7457 62.6301 44.0283 64.4258 43.6229C66.2214 43.2174 67.7617 44.3962 68.4202 47.3127C69.0813 50.2405 68.215 52.0469 66.4194 52.4523ZM66.063 50.874C66.6692 50.7371 67.0256 50.0797 66.4988 47.7465C65.9745 45.4248 65.3831 45.0415 64.777 45.1783C64.1708 45.3152 63.7901 45.918 64.3143 48.2398C64.8411 50.5729 65.4569 51.0108 66.063 50.874Z" fill="white"/>
<path d="M73.3889 50.8786C71.5932 51.2841 70.0234 50.0278 69.3623 47.0999C68.7012 44.172 69.5996 42.4547 71.3952 42.0492C73.1908 41.6438 74.7311 42.8225 75.3897 45.739C76.0508 48.6669 75.1845 50.4732 73.3889 50.8786ZM73.0325 49.3003C73.6387 49.1634 73.995 48.506 73.4682 46.1728C72.944 43.8511 72.3526 43.4678 71.7464 43.6046C71.1403 43.7415 70.7595 44.3444 71.2838 46.6661C71.8106 48.9992 72.4263 49.4372 73.0325 49.3003Z" fill="white"/>
<path d="M57.9874 71.1602L58.6919 70.9094L58.6505 70.1629C58.6041 69.3231 58.256 67.7355 57.7164 66.2198C56.3965 62.5121 54.2071 59.4861 51.2308 57.7667C48.2279 56.032 44.5478 55.7 40.4317 57.1653C33.4416 59.6537 28.7293 67.6828 31.919 76.6426C33.541 81.199 36.4255 84.3215 39.9972 85.9131C43.5594 87.5004 47.7056 87.5212 51.7866 86.0684C55.0888 84.8928 58.5716 82.4061 60.8009 79.3157L61.3374 78.5721L60.6428 77.9733L56.1076 74.0635L55.3512 73.4115L54.6981 74.167C53.2371 75.8571 51.7732 76.9287 50.0322 77.5484C48.4569 78.1092 47.0552 78.2253 45.8641 77.8955C45.0008 77.6565 44.1851 77.1661 43.4541 76.334L57.9874 71.1602ZM47.6366 66.6815L40.706 69.1488C40.7254 68.2768 40.9382 67.5621 41.2677 66.9919C41.7407 66.1735 42.5 65.5734 43.4628 65.2307C44.7928 64.7572 45.7097 64.8899 46.3628 65.2688C46.8483 65.5504 47.2799 66.0211 47.6366 66.6815Z" fill="#EB6022" stroke="white" stroke-width="2"/>
</g>
<path d="M215 110C322.168 110 353.706 71.1944 355 53L355 110L215 110Z" fill="url(#paint2_linear_27_3883)" fill-opacity="0.7"/>
<path d="M225 117C332.168 117 363.706 78.1944 365 60L365 117L225 117Z" fill="url(#paint3_linear_27_3883)"/>
</g>
<rect x="10.5" y="10.5" width="344" height="99" rx="11.5" stroke="#FFB88E"/>
</g>
<defs>
<filter id="filter0_d_27_3883" x="0" y="0" width="365" height="120" filterUnits="userSpaceOnUse" color-interpolation-filters="sRGB">
<feFlood flood-opacity="0" result="BackgroundImageFix"/>
<feColorMatrix in="SourceAlpha" type="matrix" values="0 0 0 0 0 0 0 0 0 0 0 0 0 0 0 0 0 0 127 0" result="hardAlpha"/>
<feOffset/>
<feGaussianBlur stdDeviation="5"/>
<feColorMatrix type="matrix" values="0 0 0 0 0.533333 0 0 0 0 0.533333 0 0 0 0 0.533333 0 0 0 0.2 0"/>
<feBlend mode="normal" in2="BackgroundImageFix" result="effect1_dropShadow_27_3883"/>
<feBlend mode="normal" in="SourceGraphic" in2="effect1_dropShadow_27_3883" result="shape"/>
</filter>
<linearGradient id="paint0_linear_27_3883" x1="15.9092" y1="16.1259" x2="58.8382" y2="52.3925" gradientUnits="userSpaceOnUse">
<stop stop-color="#FFB88E"/>
<stop offset="1" stop-color="#FFD2B5"/>
</linearGradient>
<linearGradient id="paint1_linear_27_3883" x1="6.90923" y1="7.12587" x2="49.8382" y2="43.3925" gradientUnits="userSpaceOnUse">
<stop stop-color="#FFB88E"/>
<stop offset="1" stop-color="#FFD2B5"/>
</linearGradient>
<linearGradient id="paint2_linear_27_3883" x1="350.046" y1="105.217" x2="316.21" y2="74.5265" gradientUnits="userSpaceOnUse">
<stop stop-color="#FFB88E"/>
<stop offset="1" stop-color="#FFD3B6"/>
</linearGradient>
<linearGradient id="paint3_linear_27_3883" x1="360.046" y1="112.217" x2="326.21" y2="81.5265" gradientUnits="userSpaceOnUse">
<stop stop-color="#FFB88E"/>
<stop offset="1" stop-color="#FFD3B6"/>
</linearGradient>
<clipPath id="clip0_27_3883">
<rect x="10" y="10" width="345" height="100" rx="12" fill="white"/>
</clipPath>
<clipPath id="clip1_27_3883">
<rect width="60" height="60" fill="white" transform="translate(28 30)"/>
</clipPath>
</defs>
</svg>
