<svg width="255" height="24" viewBox="0 0 255 24" fill="none" xmlns="http://www.w3.org/2000/svg">
<mask id="mask0_38_3399" style="mask-type:alpha" maskUnits="userSpaceOnUse" x="0" y="0" width="24" height="24">
<path d="M12 24C18.6274 24 24 18.6274 24 12C24 5.37258 18.6274 0 12 0C5.37258 0 0 5.37258 0 12C0 18.6274 5.37258 24 12 24Z" fill="white"/>
</mask>
<g mask="url(#mask0_38_3399)">
<path fill-rule="evenodd" clip-rule="evenodd" d="M0 0H24V24H0V0Z" fill="#0282B9"/>
<path d="M12 24C18.6274 24 24 18.6274 24 12C24 5.37258 18.6274 0 12 0C5.37258 0 0 5.37258 0 12C0 18.6274 5.37258 24 12 24Z" fill="url(#paint0_radial_38_3399)"/>
<path d="M12 15C13.6569 15 15 13.6569 15 12C15 10.3431 13.6569 9 12 9C10.3431 9 9 10.3431 9 12C9 13.6569 10.3431 15 12 15Z" fill="white"/>
</g>
<rect x="24" y="11.5" width="103.5" height="1" fill="#DDDDDD" fill-opacity="0.7"/>
<rect x="127.5" y="11.5" width="103.5" height="1" fill="#DDDDDD" fill-opacity="0.7"/>
<g clip-path="url(#clip0_38_3399)">
<mask id="mask1_38_3399" style="mask-type:alpha" maskUnits="userSpaceOnUse" x="231" y="0" width="24" height="24">
<path d="M243 24C249.627 24 255 18.6274 255 12C255 5.37258 249.627 0 243 0C236.373 0 231 5.37258 231 12C231 18.6274 236.373 24 243 24Z" fill="white"/>
</mask>
<g mask="url(#mask1_38_3399)">
<g opacity="0.7">
<path opacity="0.7" fill-rule="evenodd" clip-rule="evenodd" d="M231 0H255V24H231V0Z" fill="#DDDDDD"/>
</g>
</g>
</g>
<defs>
<radialGradient id="paint0_radial_38_3399" cx="0" cy="0" r="1" gradientUnits="userSpaceOnUse" gradientTransform="translate(12 12) scale(11.5318)">
<stop stop-color="white" stop-opacity="0.495"/>
<stop offset="1" stop-color="white" stop-opacity="0"/>
</radialGradient>
<clipPath id="clip0_38_3399">
<rect width="24" height="24" fill="white" transform="translate(231)"/>
</clipPath>
</defs>
</svg>
